<svg width="17" height="16" viewBox="0 0 17 16" fill="none" xmlns="http://www.w3.org/2000/svg">
<g clip-path="url(#clip0_1_2004)">
<path d="M14.0647 16.0001H2.01022C1.49895 16.0001 1.08301 15.6085 1.08301 15.1273C1.08301 14.6462 1.49895 14.2546 2.01022 14.2546H14.0647C14.576 14.2546 14.9919 14.6462 14.9919 15.1273C14.9919 15.6085 14.576 16.0001 14.0647 16.0001ZM2.01022 14.8364C1.83967 14.8364 1.70115 14.9668 1.70115 15.1273C1.70115 15.288 1.83967 15.4183 2.01022 15.4183H14.0647C14.2354 15.4183 14.3738 15.288 14.3738 15.1273C14.3738 14.9668 14.2354 14.8364 14.0647 14.8364H2.01022Z" fill="#333333"/>
<path d="M10.3556 14.8363H3.55565C3.38497 14.8363 3.24658 14.7063 3.24658 14.5454V10.7637C3.24658 10.6028 3.38497 10.4727 3.55565 10.4727H10.6647C10.751 10.4727 10.8328 10.5065 10.8915 10.5658C10.9499 10.6255 10.9796 10.7052 10.9729 10.786L10.6637 14.5678C10.6513 14.7193 10.5168 14.8363 10.3556 14.8363ZM3.86473 14.2545H10.0694L10.3309 11.0546H3.86473V14.2545Z" fill="#333333"/>
<path d="M10.6649 11.0545H3.55583C1.27442 11.0545 0.464844 8.54722 0.464844 6.40002C0.464844 6.23913 0.603362 6.10913 0.774046 6.10913H16.2284C16.399 6.10913 16.5375 6.23913 16.5375 6.40002C16.5375 9.24094 13.0594 11.0545 10.6649 11.0545ZM1.08766 6.69091C1.16094 8.99864 2.11332 10.4726 3.55583 10.4726H10.6649C12.6726 10.4726 15.6671 8.97593 15.9042 6.69091H1.08766Z" fill="#333333"/>
<path d="M4.48296 6.69104H1.39208C1.2214 6.69104 1.08301 6.56104 1.08301 6.40015V5.52734C1.08301 5.20654 1.36018 4.94556 1.70116 4.94556H4.17388C4.51486 4.94556 4.79203 5.20654 4.79203 5.52734V6.40015C4.79203 6.56104 4.65364 6.69104 4.48296 6.69104ZM1.70116 6.10925H4.17388V5.52734H1.70116V6.10925Z" fill="#333333"/>
<path d="M3.55623 5.52726H2.31981C2.14926 5.52726 2.01074 5.39726 2.01074 5.23637V2.70025C2.01074 1.28095 3.14911 0.097487 4.60251 0.00593482C5.38045 -0.0424047 6.12259 0.205763 6.69131 0.706126C7.25265 1.20002 7.5743 1.89679 7.5743 2.61822V3.20001C7.5743 3.6812 7.15836 4.0728 6.64709 4.0728C6.13581 4.0728 5.71987 3.6812 5.71987 3.20001V2.61822C5.71987 2.37298 5.60859 2.13763 5.41469 1.97186C5.21845 1.80426 4.96502 1.72577 4.69888 1.74958C4.23158 1.79291 3.86531 2.19733 3.86531 2.67035V5.23637C3.86531 5.39726 3.72679 5.52726 3.55623 5.52726ZM2.62889 4.94548H3.24716V2.67035C3.24716 1.90119 3.85843 1.24287 4.63896 1.17097C5.07293 1.13166 5.50781 1.26581 5.83011 1.54096C6.1528 1.81647 6.33802 2.20917 6.33802 2.61822V3.20001C6.33802 3.36065 6.4764 3.4909 6.64709 3.4909C6.81764 3.4909 6.95616 3.36065 6.95616 3.20001V2.61822C6.95616 2.05731 6.70584 1.51545 6.26902 1.13105C5.82674 0.741892 5.2488 0.547801 4.64389 0.586864C3.51382 0.657786 2.62889 1.58612 2.62889 2.70025V4.94548ZM4.62314 0.296216H4.62625H4.62314Z" fill="#333333"/>
<path d="M11.9011 8.72741H1.02831C0.857627 8.72741 0.719238 8.59729 0.719238 8.43652C0.719238 8.27563 0.857627 8.14551 1.02831 8.14551H11.9011C12.0718 8.14551 12.2102 8.27563 12.2102 8.43652C12.2102 8.59729 12.0718 8.72741 11.9011 8.72741Z" fill="#333333"/>
<path d="M15.5115 8.72742H14.0649C13.8944 8.72742 13.7559 8.59729 13.7559 8.43652C13.7559 8.27563 13.8944 8.14551 14.0649 8.14551H15.5115C15.6822 8.14551 15.8205 8.27563 15.8205 8.43652C15.8205 8.59729 15.6822 8.72742 15.5115 8.72742Z" fill="#333333"/>
</g>
<defs>
<clipPath id="clip0_1_2004">
<rect width="17" height="16" fill="white"/>
</clipPath>
</defs>
</svg>
