<svg width="17" height="17" viewBox="0 0 17 17" fill="none" xmlns="http://www.w3.org/2000/svg">
<g clip-path="url(#clip0_1_1904)">
<path d="M15.6864 5.45628H4.75661V4.8897H4.77375C5.05783 4.8897 5.28893 4.65861 5.28893 4.37452V3.02654H10.0969C10.5278 3.02654 10.8783 2.67601 10.8783 2.2452C10.8783 1.81439 10.5277 1.46387 10.0969 1.46387H1.84596C1.1216 1.46387 0.532313 2.05319 0.532313 2.77752V4.37449C0.532313 4.65857 0.763406 4.88967 1.04749 4.88967H1.06463V5.45624H1.04749C0.469891 5.45628 0 5.92617 0 6.50377V15.2871C0 15.4246 0.111496 15.5361 0.249023 15.5361H5.03994C5.17746 15.5361 5.28896 15.4246 5.28896 15.2871V9.43155C5.28896 8.6883 5.89362 8.08361 6.63691 8.08361H13.308V8.63309C13.308 8.91717 13.5391 9.14827 13.8232 9.14827H15.9525C16.2366 9.14827 16.4677 8.91717 16.4677 8.63309V8.08361H16.4848C16.7689 8.08361 17 7.85251 17 7.56843V6.76996C17 6.04557 16.4107 5.45628 15.6864 5.45628ZM1.56267 4.88967H2.91075C3.04828 4.88967 3.15978 4.77817 3.15978 4.64064C3.15978 4.50312 3.04828 4.39162 2.91075 4.39162H1.04749C1.03803 4.39162 1.03036 4.38395 1.03036 4.37449V2.77752C1.03036 2.32778 1.39626 1.96191 1.84596 1.96191H10.0969C10.2532 1.96191 10.3802 2.08902 10.3802 2.2452C10.3802 2.40139 10.2531 2.52849 10.0969 2.52849H5.03994C4.90241 2.52849 4.79091 2.63999 4.79091 2.77752V4.37449C4.79091 4.38395 4.78324 4.39162 4.77378 4.39162H3.97524C3.83772 4.39162 3.72622 4.50312 3.72622 4.64064C3.72622 4.77817 3.83772 4.88967 3.97524 4.88967H4.2586V5.45624H1.56267V4.88967ZM16.502 7.56839C16.502 7.57786 16.4943 7.58553 16.4848 7.58553H15.154C15.0164 7.58553 14.9049 7.69702 14.9049 7.83455C14.9049 7.97208 15.0164 8.08357 15.154 8.08357H15.9696V8.63305C15.9696 8.64252 15.962 8.65019 15.9525 8.65019H13.8232C13.8138 8.65019 13.8061 8.64252 13.8061 8.63305V8.08357H14.0893C14.2268 8.08357 14.3383 7.97208 14.3383 7.83455C14.3383 7.69702 14.2268 7.58553 14.0893 7.58553H6.63687C5.619 7.58553 4.79088 8.41365 4.79088 9.43152V15.038H0.498047V6.50377C0.498047 6.20079 0.744514 5.95432 1.04749 5.95432H15.6863C16.1361 5.95432 16.5019 6.32022 16.5019 6.76993L16.502 7.56839Z" fill="#333333"/>
<path d="M14.8877 9.71484C14.7502 9.71484 14.6387 9.82634 14.6387 9.96387V10.4962C14.6387 10.6337 14.7502 10.7452 14.8877 10.7452C15.0252 10.7452 15.1367 10.6337 15.1367 10.4962V9.96387C15.1367 9.82634 15.0252 9.71484 14.8877 9.71484Z" fill="#333333"/>
<path d="M14.8877 12.9087C14.7502 12.9087 14.6387 13.0202 14.6387 13.1577V13.69C14.6387 13.8276 14.7502 13.939 14.8877 13.939C15.0252 13.939 15.1367 13.8276 15.1367 13.69V13.1577C15.1367 13.0202 15.0252 12.9087 14.8877 12.9087Z" fill="#333333"/>
<path d="M14.8877 11.3118C14.7502 11.3118 14.6387 11.4233 14.6387 11.5608V12.0931C14.6387 12.2306 14.7502 12.3421 14.8877 12.3421C15.0252 12.3421 15.1367 12.2306 15.1367 12.0931V11.5608C15.1367 11.4232 15.0252 11.3118 14.8877 11.3118Z" fill="#333333"/>
<path d="M14.8877 14.5056C14.7502 14.5056 14.6387 14.6171 14.6387 14.7546V15.287C14.6387 15.4245 14.7502 15.536 14.8877 15.536C15.0252 15.536 15.1367 15.4245 15.1367 15.287V14.7546C15.1367 14.6171 15.0252 14.5056 14.8877 14.5056Z" fill="#333333"/>
<path d="M16.0281 10.7416C16.165 10.7283 16.2652 10.6066 16.2519 10.4697L16.2005 9.93986C16.1873 9.80297 16.0656 9.70266 15.9286 9.71604C15.7917 9.72932 15.6915 9.85104 15.7048 9.98794L15.7562 10.5178C15.7687 10.6465 15.8771 10.7427 16.0038 10.7427C16.0118 10.7427 16.0199 10.7424 16.0281 10.7416Z" fill="#333333"/>
<path d="M16.3362 13.9206C16.4731 13.9073 16.5733 13.7856 16.56 13.6487L16.5086 13.1188C16.4953 12.9819 16.3737 12.8817 16.2367 12.895C16.0998 12.9083 15.9996 13.03 16.0129 13.1669L16.0643 13.6967C16.0768 13.8254 16.1852 13.9217 16.3119 13.9217C16.3199 13.9218 16.328 13.9214 16.3362 13.9206Z" fill="#333333"/>
<path d="M16.1824 12.3312C16.3193 12.3179 16.4195 12.1962 16.4062 12.0593L16.3548 11.5294C16.3415 11.3925 16.2198 11.2924 16.0829 11.3056C15.946 11.3189 15.8458 11.4406 15.8591 11.5775L15.9105 12.1073C15.923 12.2361 16.0313 12.3323 16.1581 12.3323C16.1661 12.3323 16.1742 12.332 16.1824 12.3312Z" fill="#333333"/>
<path d="M16.6629 14.7081C16.6496 14.5712 16.5279 14.4711 16.391 14.4843C16.2541 14.4976 16.1539 14.6193 16.1672 14.7562L16.2186 15.2861C16.2311 15.4148 16.3395 15.5111 16.4662 15.5111C16.4742 15.5111 16.4823 15.5107 16.4905 15.5099C16.6274 15.4966 16.7276 15.3749 16.7143 15.238L16.6629 14.7081Z" fill="#333333"/>
<path d="M13.8474 9.71603C13.7105 9.70274 13.5888 9.80295 13.5755 9.93985L13.5241 10.4697C13.5108 10.6066 13.6111 10.7283 13.748 10.7416C13.7561 10.7424 13.7643 10.7428 13.7723 10.7428C13.899 10.7428 14.0074 10.6465 14.0199 10.5178L14.0713 9.98796C14.0845 9.85103 13.9843 9.72931 13.8474 9.71603Z" fill="#333333"/>
<path d="M13.5388 12.895C13.402 12.8816 13.2802 12.9819 13.2669 13.1188L13.2155 13.6487C13.2023 13.7856 13.3025 13.9073 13.4394 13.9206C13.4475 13.9214 13.4557 13.9218 13.4637 13.9218C13.5904 13.9218 13.6988 13.8255 13.7113 13.6968L13.7627 13.1669C13.7759 13.03 13.6757 12.9083 13.5388 12.895Z" fill="#333333"/>
<path d="M13.6931 11.3054C13.5559 11.2921 13.4345 11.3923 13.4212 11.5292L13.3698 12.059C13.3566 12.1959 13.4568 12.3177 13.5937 12.3309C13.6019 12.3317 13.61 12.3321 13.618 12.3321C13.7447 12.3321 13.8531 12.2358 13.8656 12.1071L13.917 11.5773C13.9302 11.4404 13.83 11.3187 13.6931 11.3054Z" fill="#333333"/>
<path d="M13.3845 14.4844C13.2473 14.471 13.1259 14.5713 13.1126 14.7082L13.0612 15.238C13.048 15.3749 13.1482 15.4966 13.2851 15.5099C13.2933 15.5107 13.3014 15.5111 13.3094 15.5111C13.4361 15.5111 13.5445 15.4148 13.557 15.2861L13.6084 14.7563C13.6216 14.6194 13.5214 14.4976 13.3845 14.4844Z" fill="#333333"/>
</g>
<defs>
<clipPath id="clip0_1_1904">
<rect width="17" height="17" fill="white"/>
</clipPath>
</defs>
</svg>
