<svg width="17" height="18" viewBox="0 0 17 18" fill="none" xmlns="http://www.w3.org/2000/svg">
<path d="M14.3085 0C13.839 0 13.4585 0.402938 13.4585 0.9V1.2H7.22513C6.44313 1.20098 5.80938 1.872 5.80846 2.7V4.2H5.2418C4.77235 4.2 4.3918 4.60294 4.3918 5.1V6.1335C3.15763 6.93896 2.40676 8.36494 2.40846 9.9V10.2552C2.07006 10.3819 1.84328 10.72 1.8418 11.1V11.7C1.8418 11.8657 1.96866 12 2.12513 12H11.1918C11.3483 12 11.4751 11.8657 11.4751 11.7V11.1C11.4736 10.72 11.2469 10.3819 10.9085 10.2552V9.9C10.9101 8.7054 10.4614 7.55951 9.66179 6.7167C9.43959 6.48983 9.19221 6.29227 8.92513 6.1284V5.1C8.92513 4.60294 8.54458 4.2 8.07513 4.2H7.50846V3.3C7.50846 3.13433 7.63532 3 7.7918 3H13.4585V3.6C13.4585 4.09706 13.839 4.5 14.3085 4.5H15.1585V0H14.3085ZM10.9085 11.1V11.4H2.40846V11.1C2.40846 10.9343 2.53533 10.8 2.6918 10.8H10.6251C10.7816 10.8 10.9085 10.9343 10.9085 11.1ZM9.26258 7.1418C9.95498 7.87226 10.3434 8.86508 10.3418 9.9V10.2H2.97513V9.9C2.97421 8.54445 3.65017 7.2894 4.75248 6.6H8.56643C8.81987 6.74756 9.05394 6.9297 9.26258 7.1418ZM8.07513 4.8C8.2316 4.8 8.35846 4.93433 8.35846 5.1V6H4.95846V5.1C4.95846 4.93433 5.08533 4.8 5.2418 4.8H8.07513ZM13.4585 2.4H7.7918C7.32235 2.4 6.9418 2.80294 6.9418 3.3V4.2H6.37513V2.7C6.37513 2.20294 6.75568 1.8 7.22513 1.8H13.4585V2.4ZM14.5918 3.9H14.3085C14.152 3.9 14.0251 3.76568 14.0251 3.6V0.9C14.0251 0.734325 14.152 0.6 14.3085 0.6H14.5918V3.9Z" fill="black"/>
<path d="M6.65833 12.6001C6.50186 12.6001 6.375 12.7344 6.375 12.9001V14.1001C6.375 14.2658 6.50186 14.4001 6.65833 14.4001C6.8148 14.4001 6.94167 14.2658 6.94167 14.1001V12.9001C6.94167 12.7344 6.8148 12.6001 6.65833 12.6001Z" fill="black"/>
<path d="M6.65833 15C6.50186 15 6.375 15.1343 6.375 15.3V16.5C6.375 16.6657 6.50186 16.8 6.65833 16.8C6.8148 16.8 6.94167 16.6657 6.94167 16.5V15.3C6.94167 15.1343 6.8148 15 6.65833 15Z" fill="black"/>
<path d="M10.0582 13.8C9.90177 13.8 9.7749 13.9344 9.7749 14.1V15.3001C9.7749 15.4657 9.90177 15.6001 10.0582 15.6001C10.2147 15.6001 10.3416 15.4657 10.3416 15.3001V14.1C10.3416 13.9344 10.2147 13.8 10.0582 13.8Z" fill="black"/>
<path d="M7.79163 13.8C7.63516 13.8 7.5083 13.9344 7.5083 14.1V15.3001C7.5083 15.4657 7.63516 15.6001 7.79163 15.6001C7.9481 15.6001 8.07497 15.4657 8.07497 15.3001V14.1C8.07497 13.9344 7.9481 13.8 7.79163 13.8Z" fill="black"/>
<path d="M5.52503 13.8C5.36856 13.8 5.2417 13.9344 5.2417 14.1V15.3001C5.2417 15.4657 5.36856 15.6001 5.52503 15.6001C5.6815 15.6001 5.80837 15.4657 5.80837 15.3001V14.1C5.80837 13.9344 5.6815 13.8 5.52503 13.8Z" fill="black"/>
<path d="M3.25843 13.8C3.10196 13.8 2.9751 13.9344 2.9751 14.1V15.3001C2.9751 15.4657 3.10196 15.6001 3.25843 15.6001C3.4149 15.6001 3.54176 15.4657 3.54176 15.3001V14.1C3.54176 13.9344 3.4149 13.8 3.25843 13.8Z" fill="black"/>
<path d="M4.39173 12.6001C4.23526 12.6001 4.1084 12.7344 4.1084 12.9001V14.1001C4.1084 14.2658 4.23526 14.4001 4.39173 14.4001C4.5482 14.4001 4.67507 14.2658 4.67507 14.1001V12.9001C4.67507 12.7344 4.5482 12.6001 4.39173 12.6001Z" fill="black"/>
<path d="M8.92494 12.6001C8.76846 12.6001 8.6416 12.7344 8.6416 12.9001V14.1001C8.6416 14.2658 8.76846 14.4001 8.92494 14.4001C9.08141 14.4001 9.20827 14.2658 9.20827 14.1001V12.9001C9.20827 12.7344 9.08141 12.6001 8.92494 12.6001Z" fill="black"/>
<path d="M8.92494 15C8.76846 15 8.6416 15.1343 8.6416 15.3V16.5C8.6416 16.6657 8.76846 16.8 8.92494 16.8C9.08141 16.8 9.20827 16.6657 9.20827 16.5V15.3C9.20827 15.1343 9.08141 15 8.92494 15Z" fill="black"/>
<path d="M4.39173 15C4.23526 15 4.1084 15.1343 4.1084 15.3V16.5C4.1084 16.6657 4.23526 16.8 4.39173 16.8C4.5482 16.8 4.67507 16.6657 4.67507 16.5V15.3C4.67507 15.1343 4.5482 15 4.39173 15Z" fill="black"/>
<path d="M5.52503 16.2C5.36856 16.2 5.2417 16.3343 5.2417 16.5V17.7C5.2417 17.8656 5.36856 18 5.52503 18C5.6815 18 5.80837 17.8656 5.80837 17.7V16.5C5.80837 16.3343 5.6815 16.2 5.52503 16.2Z" fill="black"/>
<path d="M7.79163 16.2C7.63516 16.2 7.5083 16.3343 7.5083 16.5V17.7C7.5083 17.8656 7.63516 18 7.79163 18C7.9481 18 8.07497 17.8656 8.07497 17.7V16.5C8.07497 16.3343 7.9481 16.2 7.79163 16.2Z" fill="black"/>
</svg>
