<svg width="17" height="17" viewBox="0 0 17 17" fill="none" xmlns="http://www.w3.org/2000/svg">
<path d="M10.2266 5.77734C10.2266 5.72451 10.2056 5.67384 10.1682 5.63647C10.1309 5.59911 10.0802 5.57812 10.0273 5.57812C9.97451 5.57812 9.92384 5.59911 9.88647 5.63647C9.84911 5.67384 9.82812 5.72451 9.82812 5.77734V6.14258C9.82812 6.19541 9.84911 6.24609 9.88647 6.28345C9.92384 6.32081 9.97451 6.3418 10.0273 6.3418C10.0802 6.3418 10.1309 6.32081 10.1682 6.28345C10.2056 6.24609 10.2266 6.19541 10.2266 6.14258V5.77734Z" fill="black"/>
<path d="M10.0273 6.50781C9.97451 6.50781 9.92384 6.5288 9.88647 6.56616C9.84911 6.60352 9.82812 6.6542 9.82812 6.70703V7.57031C9.82812 7.62315 9.84911 7.67382 9.88647 7.71118C9.92384 7.74854 9.97451 7.76953 10.0273 7.76953C10.0802 7.76953 10.1309 7.74854 10.1682 7.71118C10.2056 7.67382 10.2266 7.62315 10.2266 7.57031V6.70703C10.2266 6.6542 10.2056 6.60352 10.1682 6.56616C10.1309 6.5288 10.0802 6.50781 10.0273 6.50781Z" fill="black"/>
<path d="M9.36328 7.20508C9.31045 7.20508 9.25977 7.22607 9.22241 7.26343C9.18505 7.30079 9.16406 7.35146 9.16406 7.4043V7.57031C9.16406 7.62315 9.18505 7.67382 9.22241 7.71118C9.25977 7.74854 9.31045 7.76953 9.36328 7.76953C9.41612 7.76953 9.46679 7.74854 9.50415 7.71118C9.54151 7.67382 9.5625 7.62315 9.5625 7.57031V7.4043C9.5625 7.35146 9.54151 7.30079 9.50415 7.26343C9.46679 7.22607 9.41612 7.20508 9.36328 7.20508Z" fill="black"/>
<path d="M9.5625 5.77734C9.5625 5.72451 9.54151 5.67384 9.50415 5.63647C9.46679 5.59911 9.41612 5.57812 9.36328 5.57812C9.31045 5.57812 9.25977 5.59911 9.22241 5.63647C9.18505 5.67384 9.16406 5.72451 9.16406 5.77734V6.00977C9.16406 6.0626 9.18505 6.11327 9.22241 6.15063C9.25977 6.188 9.31045 6.20898 9.36328 6.20898C9.41612 6.20898 9.46679 6.188 9.50415 6.15063C9.54151 6.11327 9.5625 6.0626 9.5625 6.00977V5.77734Z" fill="black"/>
<path d="M9.5625 6.57422C9.5625 6.52138 9.54151 6.47071 9.50415 6.43335C9.46679 6.39599 9.41612 6.375 9.36328 6.375C9.31045 6.375 9.25977 6.39599 9.22241 6.43335C9.18505 6.47071 9.16406 6.52138 9.16406 6.57422V6.83984C9.16406 6.89268 9.18505 6.94335 9.22241 6.98071C9.25977 7.01807 9.31045 7.03906 9.36328 7.03906C9.41612 7.03906 9.46679 7.01807 9.50415 6.98071C9.54151 6.94335 9.5625 6.89268 9.5625 6.83984V6.57422Z" fill="black"/>
<path d="M8.93164 5.77734C8.93164 5.72451 8.91065 5.67384 8.87329 5.63647C8.83593 5.59911 8.78526 5.57812 8.73242 5.57812C8.67959 5.57812 8.62891 5.59911 8.59155 5.63647C8.55419 5.67384 8.5332 5.72451 8.5332 5.77734V6.14258C8.5332 6.19541 8.55419 6.24609 8.59155 6.28345C8.62891 6.32081 8.67959 6.3418 8.73242 6.3418C8.78526 6.3418 8.83593 6.32081 8.87329 6.28345C8.91065 6.24609 8.93164 6.19541 8.93164 6.14258V5.77734Z" fill="black"/>
<path d="M8.73242 6.50781C8.67959 6.50781 8.62891 6.5288 8.59155 6.56616C8.55419 6.60352 8.5332 6.6542 8.5332 6.70703V7.57031C8.5332 7.62315 8.55419 7.67382 8.59155 7.71118C8.62891 7.74854 8.67959 7.76953 8.73242 7.76953C8.78526 7.76953 8.83593 7.74854 8.87329 7.71118C8.91065 7.67382 8.93164 7.62315 8.93164 7.57031V6.70703C8.93164 6.6542 8.91065 6.60352 8.87329 6.56616C8.83593 6.5288 8.78526 6.50781 8.73242 6.50781Z" fill="black"/>
<path d="M8.10156 7.20508C8.04873 7.20508 7.99805 7.22607 7.96069 7.26343C7.92333 7.30079 7.90234 7.35146 7.90234 7.4043V7.57031C7.90234 7.62315 7.92333 7.67382 7.96069 7.71118C7.99805 7.74854 8.04873 7.76953 8.10156 7.76953C8.1544 7.76953 8.20507 7.74854 8.24243 7.71118C8.27979 7.67382 8.30078 7.62315 8.30078 7.57031V7.4043C8.30078 7.35146 8.27979 7.30079 8.24243 7.26343C8.20507 7.22607 8.1544 7.20508 8.10156 7.20508Z" fill="black"/>
<path d="M8.30078 5.77734C8.30078 5.72451 8.27979 5.67384 8.24243 5.63647C8.20507 5.59911 8.1544 5.57812 8.10156 5.57812C8.04873 5.57812 7.99805 5.59911 7.96069 5.63647C7.92333 5.67384 7.90234 5.72451 7.90234 5.77734V6.00977C7.90234 6.0626 7.92333 6.11327 7.96069 6.15063C7.99805 6.188 8.04873 6.20898 8.10156 6.20898C8.1544 6.20898 8.20507 6.188 8.24243 6.15063C8.27979 6.11327 8.30078 6.0626 8.30078 6.00977V5.77734Z" fill="black"/>
<path d="M8.30078 6.57422C8.30078 6.52138 8.27979 6.47071 8.24243 6.43335C8.20507 6.39599 8.1544 6.375 8.10156 6.375C8.04873 6.375 7.99805 6.39599 7.96069 6.43335C7.92333 6.47071 7.90234 6.52138 7.90234 6.57422V6.83984C7.90234 6.89268 7.92333 6.94335 7.96069 6.98071C7.99805 7.01807 8.04873 7.03906 8.10156 7.03906C8.1544 7.03906 8.20507 7.01807 8.24243 6.98071C8.27979 6.94335 8.30078 6.89268 8.30078 6.83984V6.57422Z" fill="black"/>
<path d="M7.60352 5.77734C7.60352 5.72451 7.58253 5.67384 7.54517 5.63647C7.50781 5.59911 7.45713 5.57812 7.4043 5.57812C7.35146 5.57812 7.30079 5.59911 7.26343 5.63647C7.22607 5.67384 7.20508 5.72451 7.20508 5.77734V6.14258C7.20508 6.19541 7.22607 6.24609 7.26343 6.28345C7.30079 6.32081 7.35146 6.3418 7.4043 6.3418C7.45713 6.3418 7.50781 6.32081 7.54517 6.28345C7.58253 6.24609 7.60352 6.19541 7.60352 6.14258V5.77734Z" fill="black"/>
<path d="M7.4043 6.50781C7.35146 6.50781 7.30079 6.5288 7.26343 6.56616C7.22607 6.60352 7.20508 6.6542 7.20508 6.70703V7.57031C7.20508 7.62315 7.22607 7.67382 7.26343 7.71118C7.30079 7.74854 7.35146 7.76953 7.4043 7.76953C7.45713 7.76953 7.50781 7.74854 7.54517 7.71118C7.58253 7.67382 7.60352 7.62315 7.60352 7.57031V6.70703C7.60352 6.6542 7.58253 6.60352 7.54517 6.56616C7.50781 6.5288 7.45713 6.50781 7.4043 6.50781Z" fill="black"/>
<path d="M5.32213 0.199219H3.26918C3.15914 0.199219 3.05435 0.288436 3.05435 0.398438V15.7715H2.74629C2.72133 15.7702 2.69637 15.7741 2.67299 15.7829C2.64961 15.7918 2.62832 15.8054 2.61046 15.8229C2.59261 15.8404 2.57858 15.8614 2.56926 15.8846C2.55993 15.9078 2.55552 15.9327 2.55631 15.9577V16.668C2.55528 16.6936 2.55942 16.7192 2.56849 16.7433C2.57755 16.7673 2.59136 16.7893 2.60908 16.8078C2.62681 16.8264 2.64809 16.8413 2.67166 16.8515C2.69523 16.8616 2.72061 16.867 2.74629 16.8672H14.253C14.2787 16.867 14.3041 16.8616 14.3277 16.8515C14.3512 16.8413 14.3725 16.8264 14.3903 16.8078C14.408 16.7893 14.4218 16.7673 14.4308 16.7433C14.4399 16.7192 14.4441 16.6936 14.443 16.668V15.9577C14.4438 15.9327 14.4394 15.9078 14.4301 15.8846C14.4208 15.8614 14.4067 15.8404 14.3889 15.8229C14.371 15.8054 14.3497 15.7918 14.3263 15.7829C14.303 15.7741 14.278 15.7702 14.253 15.7715H5.51138V9.72852H5.95189C6.06189 9.72852 6.14224 9.62625 6.14224 9.51621V7.49507C6.14307 7.46985 6.13871 7.44473 6.12944 7.42126C6.12017 7.39779 6.10617 7.37647 6.08833 7.35862C6.07049 7.34078 6.04917 7.32678 6.0257 7.3175C6.00224 7.30823 5.97711 7.30387 5.95189 7.30469H5.51138V1.59375H7.68546C8.01434 1.59375 8.26724 1.86369 8.26724 2.1926V2.26113C8.17967 2.29917 8.1049 2.36164 8.05191 2.44107C7.99891 2.52049 7.96992 2.61351 7.96842 2.70898V2.88402C7.50357 3.08304 7.13834 3.55858 7.13834 4.11254V4.29184C6.93912 4.31478 6.7411 4.50141 6.7411 4.7346C6.74328 4.85435 6.79276 4.96837 6.87873 5.05176C6.9647 5.13516 7.08017 5.18115 7.19993 5.17969H10.3199C10.435 5.18041 10.5458 5.13653 10.6292 5.05726C10.7125 4.97799 10.7619 4.8695 10.767 4.75458C10.772 4.63965 10.7324 4.52724 10.6563 4.44095C10.5802 4.35465 10.4737 4.3012 10.359 4.2918V4.11251C10.3606 3.84794 10.2821 3.58909 10.134 3.36988C9.98587 3.15066 9.77498 2.9813 9.52896 2.88399V2.70911C9.52896 2.50617 9.42935 2.33245 9.23014 2.26123V2.1926C9.23014 1.33653 8.5415 0.630859 7.68546 0.630859H5.51138V0.398438C5.51249 0.372818 5.50843 0.347237 5.49943 0.323222C5.49044 0.299207 5.4767 0.277248 5.45904 0.258656C5.44138 0.240065 5.42015 0.22522 5.39663 0.215008C5.37311 0.204797 5.34777 0.199427 5.32213 0.199219ZM3.45279 0.597656H5.11295V15.7715H3.45279V0.597656ZM14.0446 16.1699V16.4688H2.95474V16.1699H14.0446ZM5.74381 7.70312V9.33008H5.51138V7.70312H5.74381ZM10.3199 4.68164C10.3331 4.68164 10.3458 4.68689 10.3551 4.69623C10.3645 4.70557 10.3697 4.71824 10.3697 4.73145C10.3697 4.74465 10.3645 4.75732 10.3551 4.76666C10.3458 4.776 10.3331 4.78125 10.3199 4.78125H7.19993C7.18672 4.78125 7.17405 4.776 7.16471 4.76666C7.15537 4.75732 7.15013 4.74465 7.15013 4.73145C7.15013 4.71824 7.15537 4.70557 7.16471 4.69623C7.17405 4.68689 7.18672 4.68164 7.19993 4.68164H10.3199ZM9.9606 4.11241V4.2832H7.53678V4.11241C7.53678 3.59978 7.96978 3.1875 8.4824 3.1875H9.03756C9.159 3.18725 9.2793 3.21101 9.39152 3.25742C9.50375 3.30384 9.60569 3.37198 9.69148 3.45794C9.77727 3.5439 9.84521 3.64598 9.8914 3.7583C9.93758 3.87062 9.9611 3.99096 9.9606 4.11241ZM9.13053 2.70911V2.78906C9.09732 2.78627 9.07312 2.78906 9.03756 2.78906H8.4824C8.44671 2.78906 8.40006 2.78611 8.36685 2.78906V2.70937C8.36893 2.6859 8.37968 2.66404 8.39702 2.64808C8.41435 2.63211 8.43702 2.62319 8.46059 2.62305H9.05927C9.10566 2.62305 9.13053 2.66272 9.13053 2.70911ZM7.68546 1.0293C8.32183 1.0293 8.8317 1.55626 8.8317 2.1926V2.22461H8.66568V2.1926C8.66722 2.06264 8.64304 1.93366 8.59454 1.81309C8.54603 1.69251 8.47416 1.58272 8.38305 1.49002C8.29195 1.39733 8.18341 1.32358 8.06369 1.273C7.94397 1.22242 7.81542 1.19602 7.68546 1.19531H5.51138V1.0293H7.68546Z" fill="black"/>
<path d="M4.08398 2.51416C4.03115 2.51416 3.98048 2.53515 3.94312 2.57251C3.90575 2.60987 3.88477 2.66054 3.88477 2.71338V2.80303C3.88477 2.85586 3.90575 2.90654 3.94312 2.9439C3.98048 2.98126 4.03115 3.00225 4.08398 3.00225C4.13682 3.00225 4.18749 2.98126 4.22485 2.9439C4.26221 2.90654 4.2832 2.85586 4.2832 2.80303V2.71338C4.2832 2.66054 4.26221 2.60987 4.22485 2.57251C4.18749 2.53515 4.13682 2.51416 4.08398 2.51416Z" fill="black"/>
<path d="M4.08398 3.24658C4.03115 3.24658 3.98048 3.26757 3.94312 3.30493C3.90575 3.34229 3.88477 3.39296 3.88477 3.4458V7.653C3.88477 7.70584 3.90575 7.75651 3.94312 7.79387C3.98048 7.83123 4.03115 7.85222 4.08398 7.85222C4.13682 7.85222 4.18749 7.83123 4.22485 7.79387C4.26221 7.75651 4.2832 7.70584 4.2832 7.653V3.4458C4.2832 3.39296 4.26221 3.34229 4.22485 3.30493C4.18749 3.26757 4.13682 3.24658 4.08398 3.24658Z" fill="black"/>
</svg>
