<svg width="17" height="17" viewBox="0 0 17 17" fill="none" xmlns="http://www.w3.org/2000/svg">
<g clip-path="url(#clip0_1_1874)">
<path d="M3.96632 3.1167C3.34041 3.1167 2.83301 3.6241 2.83301 4.25001C2.83301 4.87591 3.34041 5.38332 3.96632 5.38332C4.59222 5.38332 5.09963 4.87591 5.09963 4.25001C5.09963 3.6241 4.59222 3.1167 3.96632 3.1167ZM3.96632 4.81666C3.65335 4.81666 3.39966 4.56298 3.39966 4.25001C3.39966 3.93704 3.65335 3.68335 3.96632 3.68335C4.27929 3.68335 4.53297 3.93704 4.53297 4.25001C4.53297 4.56298 4.27925 4.81666 3.96632 4.81666Z" fill="#4C4ABE"/>
<path d="M7.36658 3.96655C6.89715 3.96655 6.5166 4.3471 6.5166 4.81654C6.5166 5.28597 6.89715 5.66652 7.36658 5.66652C7.83602 5.66652 8.21657 5.28597 8.21657 4.81654C8.21657 4.3471 7.83602 3.96655 7.36658 3.96655ZM7.36658 5.09986C7.21012 5.09986 7.08326 4.973 7.08326 4.81654C7.08326 4.66007 7.21012 4.53321 7.36658 4.53321C7.52305 4.53321 7.64991 4.66007 7.64991 4.81654C7.64991 4.973 7.52305 5.09986 7.36658 5.09986Z" fill="#4C4ABE"/>
<path d="M6.0915 2.2666C5.85679 2.2666 5.6665 2.45689 5.6665 2.69159C5.6665 2.92629 5.85679 3.11658 6.0915 3.11658C6.3262 3.11658 6.51649 2.92629 6.51649 2.69159C6.51649 2.45689 6.3262 2.2666 6.0915 2.2666ZM6.0915 2.83326C6.01326 2.83326 5.94983 2.76983 5.94983 2.69159C5.94983 2.61336 6.01326 2.54993 6.0915 2.54993C6.16973 2.54993 6.23316 2.61336 6.23316 2.69159C6.23316 2.76983 6.16973 2.83326 6.0915 2.83326Z" fill="#4C4ABE"/>
<path d="M16.9919 9.94727C16.9548 9.7148 16.8041 9.51618 16.5903 9.4178C16.6694 9.21533 16.7124 9.00049 16.7172 8.78314C16.7164 8.22053 16.3829 7.71167 15.8672 7.48664V1.41664C15.8672 0.634263 15.2329 0 14.4506 0C13.6682 0 13.0339 0.634263 13.0339 1.41664V1.42315C12.2675 1.45467 11.6524 2.06698 11.6173 2.83327C11.6173 2.98974 11.7442 3.1166 11.9006 3.1166H14.4506C14.607 3.1166 14.7339 2.98974 14.7339 2.83327C14.7113 2.17386 14.2449 1.61351 13.6006 1.4716V1.41664C13.6006 0.947198 13.9811 0.566655 14.4506 0.566655C14.92 0.566655 15.3006 0.947198 15.3006 1.41664V7.36651C15.1737 7.36661 15.0474 7.38436 14.9254 7.41921C14.5648 6.14009 13.2356 5.39551 11.9565 5.75608C11.272 5.94902 10.708 6.43486 10.4157 7.08318C10.3082 7.08718 10.2012 7.09997 10.0958 7.12143C9.80931 6.39845 8.99095 6.04461 8.26797 6.33112C8.08721 6.40274 7.92327 6.51104 7.78642 6.64912C6.84645 5.71276 5.32541 5.71567 4.38901 6.65564C4.32229 6.72261 4.25956 6.79348 4.2012 6.86785C3.26997 6.61502 2.29203 7.06962 1.885 7.9445C1.1141 7.83853 0.403231 8.3776 0.297302 9.14853C0.288093 9.21522 0.283737 9.28247 0.284198 9.3498V9.49486C-0.0275334 9.7273 -0.0917779 10.1684 0.140692 10.4802C0.250694 10.6277 0.414068 10.7263 0.595858 10.7548L0.775487 12.4638C0.955011 13.8458 1.83407 15.0378 3.10132 15.6176L2.98799 16.0664C2.88745 16.469 3.13231 16.8768 3.53492 16.9774C3.843 17.0544 4.16621 16.9293 4.3423 16.665L4.71799 16.1015C4.94677 16.1322 5.17733 16.1483 5.40817 16.1497H11.5935C11.8243 16.1483 12.0549 16.1322 12.2837 16.1015L12.6597 16.6653C12.8898 17.0106 13.3564 17.1039 13.7016 16.8737C13.9664 16.6973 14.0912 16.3732 14.0134 16.0647L13.9001 15.6164C15.1675 15.0371 16.0469 13.8457 16.227 12.4638L16.4067 10.7548C16.7912 10.6934 17.0532 10.3318 16.9919 9.94727ZM13.6639 2.10332C13.8549 2.20308 14.0108 2.35895 14.1105 2.54995H12.2406C12.5103 2.03358 13.1475 1.83359 13.6639 2.10332ZM1.70083 8.49982C1.79242 8.50138 1.88312 8.51784 1.96943 8.54855C2.11768 8.59863 2.27843 8.51901 2.32851 8.37076C2.32925 8.36857 2.32996 8.36633 2.33067 8.3641C2.56112 7.61743 3.35327 7.19892 4.09998 7.42941C4.13582 7.44046 4.1712 7.45296 4.20602 7.46681C4.33128 7.51639 4.47418 7.47091 4.54771 7.35801C5.09775 6.50526 6.23496 6.2599 7.0877 6.80995C7.27573 6.93125 7.44006 7.08587 7.57251 7.26621C7.6658 7.39183 7.84327 7.41807 7.96889 7.32479C8.00076 7.30113 8.02729 7.27103 8.0468 7.23646C8.27145 6.82836 8.78437 6.67965 9.19247 6.9043C9.42221 7.03077 9.58006 7.25686 9.61955 7.51611C9.64395 7.67066 9.78902 7.7762 9.94357 7.7518C9.96178 7.74893 9.97963 7.74429 9.99694 7.73795C10.1528 7.68005 10.3177 7.65023 10.484 7.64984C10.5123 7.64984 10.5407 7.6521 10.5857 7.6555C10.7123 7.66209 10.8285 7.58552 10.8724 7.46652C11.2075 6.50735 12.2567 6.00147 13.2159 6.33654C13.8776 6.56774 14.3504 7.1549 14.4353 7.85071C14.4542 8.00605 14.5955 8.11658 14.7508 8.09763C14.7907 8.09278 14.829 8.0795 14.8634 8.05868C14.9947 7.97726 15.146 7.9338 15.3006 7.93316C15.77 7.93316 16.1505 8.31371 16.1505 8.78314C16.1471 8.98133 16.0957 9.17573 16.0009 9.3498H0.850852C0.850852 8.88036 1.2314 8.49982 1.70083 8.49982ZM3.87084 16.3505C3.83663 16.4021 3.77886 16.4331 3.71699 16.433C3.6145 16.4326 3.53173 16.3492 3.53209 16.2467C3.53212 16.2322 3.53389 16.2177 3.53736 16.2035L3.62774 15.8434C3.78471 15.9 3.94507 15.9505 4.1094 15.9916L3.87084 16.3505ZM13.4306 16.3619H13.4297C13.3952 16.4072 13.3414 16.4336 13.2844 16.433C13.2227 16.4331 13.165 16.4022 13.1308 16.3508L12.8923 15.9916C13.0572 15.9505 13.2175 15.8995 13.3739 15.8434L13.464 16.2029C13.4785 16.2582 13.4661 16.3171 13.4306 16.3619ZM15.6635 12.4046C15.4725 14.2168 13.723 15.583 11.5935 15.583H5.40789C3.2784 15.583 1.52885 14.2168 1.33789 12.4046L1.16535 10.7664H15.836L15.6635 12.4046ZM16.2922 10.1998H0.709189C0.630955 10.1998 0.567525 10.1364 0.567525 10.0581C0.567525 9.97988 0.630955 9.91645 0.709189 9.91645H16.2922C16.3704 9.91645 16.4339 9.97988 16.4339 10.0581C16.4339 10.1364 16.3704 10.1998 16.2922 10.1998Z" fill="#4C4ABE"/>
<path d="M11.8995 3.68311C11.7431 3.68311 11.6162 3.80997 11.6162 3.96643V4.81642C11.6162 4.97288 11.7431 5.09974 11.8995 5.09974C12.056 5.09974 12.1829 4.97288 12.1829 4.81642V3.96643C12.1829 3.80997 12.056 3.68311 11.8995 3.68311Z" fill="#4C4ABE"/>
<path d="M12.7496 3.3999C12.5932 3.3999 12.4663 3.52676 12.4663 3.68323V4.24988C12.4663 4.40635 12.5932 4.53321 12.7496 4.53321C12.9061 4.53321 13.033 4.40635 13.033 4.24988V3.68323C13.033 3.52676 12.9061 3.3999 12.7496 3.3999Z" fill="#4C4ABE"/>
<path d="M13.5997 3.68311C13.4433 3.68311 13.3164 3.80997 13.3164 3.96643V4.81642C13.3164 4.97288 13.4433 5.09974 13.5997 5.09974C13.7562 5.09974 13.8831 4.97288 13.8831 4.81642V3.96643C13.8831 3.80997 13.7562 3.68311 13.5997 3.68311Z" fill="#4C4ABE"/>
<path d="M14.4498 3.3999C14.2934 3.3999 14.1665 3.52676 14.1665 3.68323V4.24988C14.1665 4.40635 14.2934 4.53321 14.4498 4.53321C14.6063 4.53321 14.7332 4.40635 14.7332 4.24988V3.68323C14.7332 3.52676 14.6063 3.3999 14.4498 3.3999Z" fill="#4C4ABE"/>
</g>
<defs>
<clipPath id="clip0_1_1874">
<rect width="17" height="17" fill="white"/>
</clipPath>
</defs>
</svg>
