<svg width="28" height="28" viewBox="0 0 28 28" fill="none" xmlns="http://www.w3.org/2000/svg">
<g clip-path="url(#clip0_1_5118)">
<path d="M5.83267 4.90479C4.91221 4.90479 4.16602 5.65098 4.16602 6.57144C4.16602 7.49189 4.91221 8.23809 5.83267 8.23809C6.75312 8.23809 7.49932 7.49189 7.49932 6.57144C7.49932 5.65098 6.75312 4.90479 5.83267 4.90479ZM5.83267 7.40476C5.37241 7.40476 4.99934 7.03169 4.99934 6.57144C4.99934 6.11118 5.37241 5.73811 5.83267 5.73811C6.29292 5.73811 6.66599 6.11118 6.66599 6.57144C6.66599 7.03169 6.29287 7.40476 5.83267 7.40476Z" fill="#333333"/>
<path d="M10.832 6.15479C10.1417 6.15479 9.58203 6.71442 9.58203 7.40477C9.58203 8.09513 10.1417 8.65476 10.832 8.65476C11.5224 8.65476 12.082 8.09513 12.082 7.40477C12.082 6.71442 11.5224 6.15479 10.832 6.15479ZM10.832 7.82144C10.6019 7.82144 10.4154 7.63487 10.4154 7.40477C10.4154 7.17467 10.6019 6.98811 10.832 6.98811C11.0621 6.98811 11.2487 7.17467 11.2487 7.40477C11.2487 7.63487 11.0621 7.82144 10.832 7.82144Z" fill="#333333"/>
<path d="M8.95898 3.65454C8.61383 3.65454 8.33398 3.93438 8.33398 4.27953C8.33398 4.62469 8.61383 4.90453 8.95898 4.90453C9.30413 4.90453 9.58397 4.62469 9.58397 4.27953C9.58397 3.93438 9.30413 3.65454 8.95898 3.65454ZM8.95898 4.48787C8.84393 4.48787 8.75065 4.39459 8.75065 4.27953C8.75065 4.16448 8.84393 4.0712 8.95898 4.0712C9.07403 4.0712 9.16731 4.16448 9.16731 4.27953C9.16731 4.39459 9.07403 4.48787 8.95898 4.48787Z" fill="#333333"/>
<path d="M24.9869 17.6285C24.9323 17.2866 24.7107 16.9945 24.3963 16.8499C24.5127 16.5521 24.5759 16.2362 24.5829 15.9165C24.5818 15.0891 24.0913 14.3408 23.3329 14.0099V5.08331C23.3329 3.93275 22.4002 3 21.2496 3C20.0991 3 19.1663 3.93275 19.1663 5.08331V5.09289C18.0392 5.13925 17.1346 6.03971 17.083 7.16662C17.083 7.39672 17.2696 7.58329 17.4997 7.58329H21.2496C21.4797 7.58329 21.6663 7.39672 21.6663 7.16662C21.6331 6.19689 20.9472 5.37284 19.9996 5.16414V5.08331C19.9996 4.39295 20.5593 3.83332 21.2496 3.83332C21.94 3.83332 22.4996 4.39295 22.4996 5.08331V13.8332C22.313 13.8334 22.1274 13.8595 21.948 13.9107C21.4177 12.0296 19.4629 10.9347 17.5818 11.4649C16.5753 11.7487 15.7457 12.4631 15.3159 13.4166C15.1579 13.4224 15.0005 13.4412 14.8455 13.4728C14.4242 12.4096 13.2207 11.8892 12.1575 12.3106C11.8917 12.4159 11.6506 12.5752 11.4493 12.7782C10.067 11.4012 7.83013 11.4055 6.45306 12.7878C6.35494 12.8863 6.2627 12.9905 6.17687 13.0999C4.8074 12.7281 3.36924 13.3966 2.77065 14.6832C1.63696 14.5274 0.591556 15.3201 0.435777 16.4539C0.422235 16.5519 0.415829 16.6508 0.416506 16.7499V16.9632C-0.0419268 17.305 -0.136405 17.9537 0.205467 18.4122C0.367236 18.6291 0.607494 18.7741 0.874835 18.8161L1.139 21.3294C1.40301 23.3618 2.69575 25.1146 4.55938 25.9673L4.39272 26.6273C4.24485 27.2193 4.60495 27.8192 5.19703 27.967C5.6501 28.0802 6.12541 27.8963 6.38436 27.5077L6.93686 26.6789C7.27331 26.7241 7.61237 26.7478 7.95185 26.7498H17.048C17.3875 26.7478 17.7265 26.7241 18.063 26.6789L18.6159 27.5081C18.9544 28.0159 19.6405 28.1531 20.1482 27.8146C20.5376 27.5551 20.7212 27.0784 20.6067 26.6248L20.4401 25.9656C22.3039 25.1137 23.5972 23.3615 23.8621 21.3294L24.1263 18.8161C24.6918 18.7258 25.0771 18.1941 24.9869 17.6285ZM20.0928 6.09314C20.3737 6.23986 20.6029 6.46908 20.7496 6.74996H17.9996C18.3963 5.99059 19.3334 5.69648 20.0928 6.09314ZM2.49982 15.4999C2.63451 15.5022 2.76789 15.5264 2.89481 15.5715C3.11283 15.6452 3.34924 15.5281 3.42288 15.3101C3.42398 15.3069 3.42502 15.3036 3.42606 15.3003C3.76496 14.2022 4.9299 13.5868 6.02801 13.9257C6.08072 13.942 6.13275 13.9604 6.18395 13.9807C6.36817 14.0536 6.57832 13.9868 6.68644 13.8207C7.49534 12.5667 9.16772 12.2058 10.4218 13.0147C10.6983 13.1931 10.9399 13.4205 11.1347 13.6857C11.2719 13.8705 11.5329 13.9091 11.7176 13.7719C11.7645 13.7371 11.8035 13.6928 11.8322 13.642C12.1626 13.0418 12.9169 12.8231 13.5171 13.1535C13.8549 13.3395 14.087 13.672 14.1451 14.0532C14.181 14.2805 14.3943 14.4357 14.6216 14.3998C14.6484 14.3956 14.6746 14.3888 14.7001 14.3795C14.9293 14.2943 15.1718 14.2505 15.4164 14.2499C15.458 14.2499 15.4997 14.2532 15.5659 14.2582C15.7522 14.2679 15.9231 14.1553 15.9876 13.9803C16.4804 12.5697 18.0234 11.8258 19.4339 12.3185C20.407 12.6585 21.1024 13.522 21.2271 14.5453C21.255 14.7737 21.4628 14.9363 21.6912 14.9084C21.7498 14.9013 21.8062 14.8818 21.8567 14.8511C22.0498 14.7314 22.2724 14.6675 22.4996 14.6665C23.19 14.6665 23.7496 15.2262 23.7496 15.9165C23.7445 16.208 23.669 16.4939 23.5296 16.7499H1.24983C1.24983 16.0595 1.80946 15.4999 2.49982 15.4999ZM5.69104 27.0452C5.64073 27.1209 5.55578 27.1665 5.46479 27.1664C5.31406 27.1658 5.19234 27.0432 5.19286 26.8925C5.19292 26.8711 5.19552 26.8498 5.20063 26.8289L5.33354 26.2993C5.56437 26.3827 5.8002 26.4568 6.04187 26.5173L5.69104 27.0452ZM19.7496 27.0618H19.7484C19.6977 27.1285 19.6185 27.1673 19.5347 27.1664C19.4439 27.1666 19.359 27.1212 19.3088 27.0456L18.958 26.5173C19.2005 26.4568 19.4363 26.3818 19.6663 26.2993L19.7988 26.8281C19.8201 26.9094 19.8019 26.996 19.7496 27.0618ZM23.0334 21.2423C22.7525 23.9073 20.1796 25.9164 17.048 25.9164H7.95143C4.8198 25.9164 2.2469 23.9073 1.96607 21.2423L1.71233 18.8332H23.2871L23.0334 21.2423ZM23.9579 17.9998H1.0415C0.926449 17.9998 0.833169 17.9066 0.833169 17.7915C0.833169 17.6765 0.926449 17.5832 1.0415 17.5832H23.9579C24.073 17.5832 24.1663 17.6765 24.1663 17.7915C24.1663 17.9066 24.073 17.9998 23.9579 17.9998Z" fill="#333333"/>
<path d="M17.4987 8.41675C17.2686 8.41675 17.082 8.60331 17.082 8.83341V10.0834C17.082 10.3135 17.2686 10.5001 17.4987 10.5001C17.7288 10.5001 17.9154 10.3135 17.9154 10.0834V8.83341C17.9154 8.60331 17.7288 8.41675 17.4987 8.41675Z" fill="#333333"/>
<path d="M18.7506 8C18.5205 8 18.334 8.18656 18.334 8.41666V9.24999C18.334 9.48009 18.5205 9.66665 18.7506 9.66665C18.9807 9.66665 19.1673 9.48009 19.1673 9.24999V8.41666C19.1673 8.18656 18.9807 8 18.7506 8Z" fill="#333333"/>
<path d="M20.0006 8.41675C19.7705 8.41675 19.584 8.60331 19.584 8.83341V10.0834C19.584 10.3135 19.7705 10.5001 20.0006 10.5001C20.2308 10.5001 20.4173 10.3135 20.4173 10.0834V8.83341C20.4173 8.60331 20.2308 8.41675 20.0006 8.41675Z" fill="#333333"/>
<path d="M21.2487 8C21.0186 8 20.832 8.18656 20.832 8.41666V9.24999C20.832 9.48009 21.0186 9.66665 21.2487 9.66665C21.4788 9.66665 21.6654 9.48009 21.6654 9.24999V8.41666C21.6654 8.18656 21.4788 8 21.2487 8Z" fill="#333333"/>
</g>
<defs>
<clipPath id="clip0_1_5118">
<rect width="28" height="28" fill="white"/>
</clipPath>
</defs>
</svg>
