<svg width="17" height="18" viewBox="0 0 17 18" fill="none" xmlns="http://www.w3.org/2000/svg">
<g clip-path="url(#clip0_1_2021)">
<path d="M15.1406 8.4375H1.85938C1.50713 8.4375 1.16932 8.58566 0.920249 8.84938C0.671177 9.1131 0.53125 9.47079 0.53125 9.84375V16.0312C0.53125 16.4042 0.671177 16.7619 0.920249 17.0256C1.16932 17.2893 1.50713 17.4375 1.85938 17.4375H15.1406C15.4929 17.4375 15.8307 17.2893 16.0798 17.0256C16.3288 16.7619 16.4688 16.4042 16.4688 16.0312V9.84375C16.4688 9.47079 16.3288 9.1131 16.0798 8.84938C15.8307 8.58566 15.4929 8.4375 15.1406 8.4375ZM15.9375 16.0312C15.9369 16.2548 15.8527 16.469 15.7034 16.6271C15.5541 16.7852 15.3518 16.8743 15.1406 16.875H1.85938C1.64822 16.8743 1.4459 16.7852 1.2966 16.6271C1.14729 16.469 1.06313 16.2548 1.0625 16.0312V9.84375C1.06313 9.62018 1.14729 9.40596 1.2966 9.24787C1.4459 9.08978 1.64822 9.00067 1.85938 9H15.1406C15.3518 9.00067 15.5541 9.08978 15.7034 9.24787C15.8527 9.40596 15.9369 9.62018 15.9375 9.84375V16.0312Z" fill="black"/>
<path d="M7.17188 9.5625H2.65625C2.37446 9.5625 2.10421 9.68103 1.90495 9.89201C1.70569 10.103 1.59375 10.3891 1.59375 10.6875V15.1875C1.59375 15.4859 1.70569 15.772 1.90495 15.983C2.10421 16.194 2.37446 16.3125 2.65625 16.3125H9.03125C9.31304 16.3125 9.58329 16.194 9.78255 15.983C9.98181 15.772 10.0938 15.4859 10.0938 15.1875V14.9062C10.0938 14.8317 10.0658 14.7601 10.016 14.7074C9.96614 14.6546 9.89857 14.625 9.82812 14.625C9.75768 14.625 9.69011 14.6546 9.6403 14.7074C9.59049 14.7601 9.5625 14.8317 9.5625 14.9062V15.1875C9.5625 15.3367 9.50653 15.4798 9.4069 15.5852C9.30727 15.6907 9.17215 15.75 9.03125 15.75H2.65625C2.51535 15.75 2.38023 15.6907 2.2806 15.5852C2.18097 15.4798 2.125 15.3367 2.125 15.1875V10.6875C2.125 10.5383 2.18097 10.3952 2.2806 10.2898C2.38023 10.1843 2.51535 10.125 2.65625 10.125H7.17188C7.80567 10.1258 8.41329 10.3928 8.86145 10.8673C9.30961 11.3418 9.56173 11.9852 9.5625 12.6562V12.9375C9.5625 13.0121 9.59049 13.0836 9.6403 13.1364C9.69011 13.1891 9.75768 13.2188 9.82812 13.2188C9.89857 13.2188 9.96614 13.1891 10.016 13.1364C10.0658 13.0836 10.0938 13.0121 10.0938 12.9375V12.6562C10.0928 11.836 9.7847 11.0497 9.23694 10.4697C8.68918 9.88973 7.94652 9.56347 7.17188 9.5625Z" fill="black"/>
<path d="M5.04688 12.0937C5.04688 12.2606 5.09361 12.4238 5.18117 12.5625C5.26873 12.7013 5.39319 12.8094 5.5388 12.8733C5.68441 12.9371 5.84463 12.9538 5.99921 12.9213C6.15379 12.8887 6.29578 12.8084 6.40723 12.6904C6.51867 12.5724 6.59457 12.422 6.62531 12.2584C6.65606 12.0947 6.64028 11.925 6.57997 11.7709C6.51965 11.6167 6.41751 11.4849 6.28647 11.3922C6.15542 11.2995 6.00136 11.25 5.84375 11.25C5.63241 11.25 5.42972 11.3389 5.28027 11.4971C5.13083 11.6554 5.04688 11.87 5.04688 12.0937ZM6.10937 12.0937C6.10937 12.1494 6.0938 12.2038 6.06461 12.25C6.03542 12.2963 5.99394 12.3323 5.9454 12.3536C5.89686 12.3749 5.84345 12.3804 5.79193 12.3696C5.7404 12.3587 5.69307 12.332 5.65592 12.2926C5.61878 12.2533 5.59348 12.2032 5.58323 12.1486C5.57298 12.0941 5.57824 12.0375 5.59834 11.9861C5.61845 11.9347 5.65249 11.8908 5.69618 11.8599C5.73986 11.829 5.79121 11.8125 5.84375 11.8125C5.9142 11.8125 5.98176 11.8421 6.03158 11.8949C6.08139 11.9476 6.10937 12.0192 6.10937 12.0937Z" fill="black"/>
<path d="M12.2188 12.0937C12.2188 12.2606 12.2655 12.4238 12.353 12.5625C12.4406 12.7013 12.5651 12.8094 12.7107 12.8733C12.8563 12.9371 13.0165 12.9538 13.1711 12.9213C13.3257 12.8887 13.4677 12.8084 13.5791 12.6904C13.6905 12.5724 13.7664 12.422 13.7972 12.2584C13.8279 12.0947 13.8122 11.925 13.7518 11.7709C13.6915 11.6167 13.5894 11.4849 13.4583 11.3922C13.3273 11.2995 13.1732 11.25 13.0156 11.25C12.8043 11.25 12.6016 11.3389 12.4521 11.4971C12.3027 11.6554 12.2188 11.87 12.2188 12.0937ZM13.2812 12.0937C13.2812 12.1494 13.2657 12.2038 13.2365 12.25C13.2073 12.2963 13.1658 12.3323 13.1173 12.3536C13.0687 12.3749 13.0153 12.3804 12.9638 12.3696C12.9123 12.3587 12.8649 12.332 12.8278 12.2926C12.7907 12.2533 12.7654 12.2032 12.7551 12.1486C12.7449 12.0941 12.7501 12.0375 12.7702 11.9861C12.7903 11.9347 12.8244 11.8908 12.8681 11.8599C12.9117 11.829 12.9631 11.8125 13.0156 11.8125C13.0861 11.8125 13.1536 11.8421 13.2035 11.8949C13.2533 11.9476 13.2812 12.0192 13.2812 12.0937Z" fill="black"/>
<path d="M14.3438 9.5625H11.6875C11.4057 9.5625 11.1355 9.68103 10.9362 9.89201C10.7369 10.103 10.625 10.3891 10.625 10.6875V15.1875C10.625 15.4859 10.7369 15.772 10.9362 15.983C11.1355 16.194 11.4057 16.3125 11.6875 16.3125H14.3438C14.6255 16.3125 14.8958 16.194 15.0951 15.983C15.2943 15.772 15.4062 15.4859 15.4062 15.1875V14.9062C15.4062 14.8317 15.3783 14.7601 15.3285 14.7074C15.2786 14.6546 15.2111 14.625 15.1406 14.625C15.0702 14.625 15.0026 14.6546 14.9528 14.7074C14.903 14.7601 14.875 14.8317 14.875 14.9062V15.1875C14.875 15.3367 14.819 15.4798 14.7194 15.5852C14.6198 15.6907 14.4846 15.75 14.3438 15.75H11.6875C11.5466 15.75 11.4115 15.6907 11.3118 15.5852C11.2122 15.4798 11.1562 15.3367 11.1562 15.1875V10.6875C11.1562 10.5383 11.2122 10.3952 11.3118 10.2898C11.4115 10.1843 11.5466 10.125 11.6875 10.125H14.3438C14.4846 10.125 14.6198 10.1843 14.7194 10.2898C14.819 10.3952 14.875 10.5383 14.875 10.6875V12.9375C14.875 13.0121 14.903 13.0836 14.9528 13.1364C15.0026 13.1891 15.0702 13.2188 15.1406 13.2188C15.2111 13.2188 15.2786 13.1891 15.3285 13.1364C15.3783 13.0836 15.4062 13.0121 15.4062 12.9375V10.6875C15.4062 10.3891 15.2943 10.103 15.0951 9.89201C14.8958 9.68103 14.6255 9.5625 14.3438 9.5625Z" fill="black"/>
<path d="M15.9375 3.375H10.625C10.3432 3.375 10.073 3.49353 9.8737 3.7045C9.67444 3.91548 9.5625 4.20163 9.5625 4.5V4.78125C9.5625 4.85584 9.59049 4.92738 9.6403 4.98012C9.69011 5.03287 9.75768 5.0625 9.82812 5.0625C9.89857 5.0625 9.96614 5.03287 10.016 4.98012C10.0658 4.92738 10.0938 4.85584 10.0938 4.78125V4.5C10.0938 4.35082 10.1497 4.20774 10.2493 4.10225C10.349 3.99676 10.4841 3.9375 10.625 3.9375H15.9375V6.1875H14.875V5.0625C14.875 4.91332 14.819 4.77024 14.7194 4.66475C14.6198 4.55926 14.4846 4.5 14.3438 4.5H11.4349C11.3644 4.5 11.2969 4.52963 11.2471 4.58238C11.1973 4.63512 11.1693 4.70666 11.1693 4.78125C11.1693 4.85584 11.1973 4.92738 11.2471 4.98012C11.2969 5.03287 11.3644 5.0625 11.4349 5.0625H14.3438V6.46875C14.3438 6.54334 14.3717 6.61488 14.4215 6.66762C14.4714 6.72037 14.5389 6.75 14.6094 6.75H16.2031C16.2736 6.75 16.3411 6.72037 16.391 6.66762C16.4408 6.61488 16.4688 6.54334 16.4688 6.46875V3.9375C16.4688 3.78832 16.4128 3.64524 16.3132 3.53975C16.2135 3.43426 16.0784 3.375 15.9375 3.375Z" fill="black"/>
<path d="M9.84021 7.41206C9.92244 7.55415 10.0379 7.67139 10.1754 7.75248C10.3128 7.83357 10.4678 7.87577 10.6251 7.875C10.7822 7.87483 10.9366 7.83218 11.0737 7.75109C11.2108 7.67001 11.326 7.55318 11.4085 7.41169C11.491 7.2702 11.538 7.10875 11.545 6.94264C11.552 6.77653 11.5188 6.61128 11.4486 6.46256L11.0549 5.625H11.1564C11.2268 5.625 11.2944 5.59537 11.3442 5.54262C11.394 5.48988 11.422 5.41834 11.422 5.34375C11.422 5.26916 11.394 5.19762 11.3442 5.14488C11.2944 5.09213 11.2268 5.0625 11.1564 5.0625H10.0939C10.0234 5.0625 9.95587 5.09213 9.90606 5.14488C9.85624 5.19762 9.82826 5.26916 9.82826 5.34375C9.82826 5.41834 9.85624 5.48988 9.90606 5.54262C9.95587 5.59537 10.0234 5.625 10.0939 5.625H10.1954L9.79984 6.46284C9.72901 6.61141 9.69552 6.7768 9.70259 6.94305C9.70966 7.10931 9.75706 7.27084 9.84021 7.41206ZM10.9582 7.11562C10.9238 7.17638 10.8749 7.22651 10.8165 7.26105C10.758 7.29559 10.6921 7.31333 10.6251 7.3125C10.5586 7.31258 10.4931 7.29462 10.4349 7.26033C10.3767 7.22604 10.3278 7.17656 10.2928 7.11661C10.2578 7.05665 10.2379 6.9882 10.2349 6.91778C10.2319 6.84736 10.246 6.77731 10.2758 6.71428L10.6251 5.97262L10.9752 6.714C11.0056 6.77674 11.02 6.84677 11.017 6.9172C11.014 6.98762 10.9938 7.05601 10.9582 7.11562Z" fill="black"/>
<path d="M16.2031 7.3125H14.6094C14.5389 7.3125 14.4714 7.34213 14.4215 7.39488C14.3717 7.44762 14.3438 7.51916 14.3438 7.59375C14.3438 7.66834 14.3717 7.73988 14.4215 7.79262C14.4714 7.84537 14.5389 7.875 14.6094 7.875H16.2031C16.2736 7.875 16.3411 7.84537 16.391 7.79262C16.4408 7.73988 16.4688 7.66834 16.4688 7.59375C16.4688 7.51916 16.4408 7.44762 16.391 7.39488C16.3411 7.34213 16.2736 7.3125 16.2031 7.3125Z" fill="black"/>
<path d="M16.2031 0.5625H10.8906C10.8202 0.5625 10.7526 0.592132 10.7028 0.644876C10.653 0.697621 10.625 0.769158 10.625 0.84375V1.6875C10.6248 1.75876 10.6502 1.82743 10.696 1.87963C10.7418 1.93184 10.8046 1.96369 10.8718 1.96875L14.3438 2.23059V2.53125C14.3438 2.60584 14.3717 2.67738 14.4216 2.73012C14.4714 2.78287 14.5389 2.8125 14.6094 2.8125H16.2031C16.2736 2.8125 16.3411 2.78287 16.391 2.73012C16.4408 2.67738 16.4688 2.60584 16.4688 2.53125V0.84375C16.4688 0.769158 16.4408 0.697621 16.391 0.644876C16.3411 0.592132 16.2736 0.5625 16.2031 0.5625ZM15.9375 2.25H14.875V1.96875C14.8752 1.89749 14.8498 1.82882 14.804 1.77662C14.7582 1.72441 14.6954 1.69256 14.6282 1.6875L11.1563 1.42566V1.125H15.9375V2.25Z" fill="black"/>
</g>
<defs>
<clipPath id="clip0_1_2021">
<rect width="17" height="18" fill="white"/>
</clipPath>
</defs>
</svg>
