<svg width="18" height="17" viewBox="0 0 18 17" fill="none" xmlns="http://www.w3.org/2000/svg">
<g clip-path="url(#clip0_1_1925)">
<path d="M6.30003 4.53333H5.10003C4.60298 4.53333 4.20003 4.91389 4.20003 5.38333V6.23333H1.50003C1.05963 6.23229 0.683485 6.53316 0.612063 6.94358C0.540641 7.35401 0.795046 7.75275 1.21263 7.88488C1.34604 10.4479 3.58295 12.4625 6.30003 12.4667H7.20003V13.3167C7.20161 13.6756 7.44173 13.9949 7.80003 14.1145V15.8667C7.80003 16.4926 8.33729 17 9.00003 17C9.66277 17 10.2 16.4926 10.2 15.8667V14.1145C10.5583 13.9949 10.7985 13.6756 10.8 13.3167V12.4667H11.7C14.4171 12.4625 16.654 10.4479 16.7874 7.88488C17.205 7.75275 17.4594 7.35401 17.388 6.94358C17.3166 6.53316 16.9404 6.23229 16.5 6.23333H13.8V5.38333C13.8 4.91389 13.3971 4.53333 12.9 4.53333H11.7C11.203 4.53333 10.8 4.91389 10.8 5.38333V6.23333H9.90003V2.26667C9.89933 1.61387 9.60098 0.992976 9.08123 0.562641C8.56148 0.132305 7.87068 -0.0657862 7.18533 0.0189826C5.97355 0.188331 5.08187 1.17901 5.10003 2.3358V2.55C5.10003 2.86296 5.36866 3.11667 5.70003 3.11667H6.30003C6.6314 3.11667 6.90003 2.86296 6.90003 2.55V2.26667C6.89987 2.09606 6.9811 1.93446 7.12117 1.82673C7.26125 1.719 7.44527 1.67661 7.62213 1.71133C7.90792 1.77745 8.10665 2.02228 8.10003 2.3001V6.23333H7.20003V5.38333C7.20003 4.91389 6.79709 4.53333 6.30003 4.53333ZM4.80003 5.38333C4.80003 5.22685 4.93435 5.1 5.10003 5.1H6.30003C6.46572 5.1 6.60003 5.22685 6.60003 5.38333V6.23333H4.80003V5.38333ZM9.60003 15.8667C9.60003 16.1796 9.3314 16.4333 9.00003 16.4333C8.66866 16.4333 8.40003 16.1796 8.40003 15.8667V14.1667H9.60003V15.8667ZM10.2 13.3167C10.2 13.4731 10.0657 13.6 9.90003 13.6H8.10003C7.93435 13.6 7.80003 13.4731 7.80003 13.3167V12.4667H10.2V13.3167ZM11.7 11.9H6.30003C3.93238 11.8971 1.97086 10.1643 1.80993 7.93333H16.1901C16.0292 10.1643 14.0677 11.8971 11.7 11.9ZM16.8 7.08333C16.8 7.23981 16.6657 7.36667 16.5 7.36667H1.50003C1.33435 7.36667 1.20003 7.23981 1.20003 7.08333C1.20003 6.92685 1.33435 6.8 1.50003 6.8H16.5C16.6657 6.8 16.8 6.92685 16.8 7.08333ZM11.4 5.38333C11.4 5.22685 11.5343 5.1 11.7 5.1H12.9C13.0657 5.1 13.2 5.22685 13.2 5.38333V6.23333H11.4V5.38333ZM7.73673 1.15515C7.38396 1.08811 7.01796 1.17413 6.7396 1.38949C6.46123 1.60485 6.29989 1.92682 6.30003 2.26667V2.55H5.70003V2.3358C5.68148 1.46391 6.3492 0.713717 7.26183 0.581116C7.7761 0.517116 8.29465 0.66544 8.6849 0.988173C9.07516 1.31091 9.2993 1.77677 9.30003 2.26667V6.23333H8.70003V2.3001C8.70946 1.75022 8.30603 1.27072 7.73673 1.15515Z" fill="#333333"/>
</g>
<defs>
<clipPath id="clip0_1_1925">
<rect width="18" height="17" fill="white"/>
</clipPath>
</defs>
</svg>
