<svg width="17" height="17" viewBox="0 0 17 17" fill="none" xmlns="http://www.w3.org/2000/svg">
<path d="M11.4219 3.45379H9.25809V2.91948C9.45141 2.90676 9.63267 2.82107 9.7652 2.67976C9.89774 2.53845 9.97164 2.35207 9.97196 2.15834V1.72112C9.97164 1.52738 9.89774 1.34101 9.7652 1.1997C9.63267 1.05839 9.45141 0.972698 9.25809 0.959969V0.232422C9.25809 0.17078 9.23361 0.111662 9.19002 0.0680748C9.14643 0.0244872 9.08731 0 9.02567 0H7.97433C7.91269 0 7.85357 0.0244872 7.80998 0.0680748C7.76639 0.111662 7.74191 0.17078 7.74191 0.232422V0.959969C7.6228 0.967753 7.50719 1.00337 7.40435 1.06397C7.30152 1.12457 7.21434 1.20845 7.14983 1.30887H5.84375C5.78211 1.30887 5.72299 1.33335 5.6794 1.37694C5.63582 1.42053 5.61133 1.47965 5.61133 1.54129V2.33816C5.61133 2.39981 5.63582 2.45892 5.6794 2.50251C5.72299 2.5461 5.78211 2.57059 5.84375 2.57059H7.14983C7.21437 2.67098 7.30155 2.75485 7.40438 2.81544C7.50721 2.87603 7.62281 2.91167 7.74191 2.91948V3.45379H5.57812C5.23481 3.45418 4.90567 3.59073 4.6629 3.83349C4.42014 4.07625 4.28359 4.4054 4.2832 4.74871V11.987C4.28422 12.7527 4.58891 13.4868 5.13044 14.0282C5.67197 14.5696 6.40613 14.8742 7.17188 14.875H7.41532V15.9149C7.41532 16.2026 7.5296 16.4785 7.73302 16.6819C7.93643 16.8853 8.21233 16.9996 8.5 16.9996C8.78767 16.9996 9.06357 16.8853 9.26698 16.6819C9.4704 16.4785 9.58468 16.2026 9.58468 15.9149V14.875H9.82812C10.594 14.8742 11.3282 14.5695 11.8698 14.028C12.4113 13.4864 12.716 12.7522 12.7168 11.9863V4.74805C12.7162 4.40485 12.5796 4.07587 12.3369 3.83325C12.0941 3.59064 11.7651 3.45418 11.4219 3.45379ZM8.20675 2.92188H8.79325V3.41461H8.20675V2.92188ZM8.20675 0.464844H8.79325V0.957445H8.20675V0.464844ZM6.07617 1.77371H7.02804V2.10574H6.07617V1.77371ZM7.49288 2.15887V1.72112C7.49299 1.6419 7.52451 1.56595 7.58052 1.50993C7.63654 1.45391 7.71249 1.42239 7.79171 1.42229H9.20829C9.28751 1.42239 9.36346 1.45391 9.41948 1.50993C9.47549 1.56595 9.50701 1.6419 9.50712 1.72112V2.15834C9.50701 2.23756 9.47549 2.3135 9.41948 2.36952C9.36346 2.42554 9.28751 2.45706 9.20829 2.45716H7.79171C7.71249 2.45706 7.63654 2.42554 7.58052 2.36952C7.52451 2.3135 7.49299 2.23756 7.49288 2.15834V2.15887ZM9.11984 15.9159C9.11984 16.0802 9.05453 16.2379 8.93829 16.3541C8.82205 16.4704 8.66439 16.5357 8.5 16.5357C8.33561 16.5357 8.17795 16.4704 8.06171 16.3541C7.94547 16.2379 7.88016 16.0802 7.88016 15.9159V14.875H9.11984V15.9159ZM12.252 11.9867C12.2511 12.6293 11.9955 13.2452 11.5411 13.6996C11.0867 14.1539 10.4707 14.4094 9.82812 14.4102H7.17188C6.52926 14.4094 5.91318 14.1538 5.45879 13.6994C5.00439 13.245 4.74879 12.6289 4.74805 11.9863V4.74805C4.74847 4.52809 4.83608 4.31727 4.99168 4.16179C5.14727 4.00632 5.35817 3.91888 5.57812 3.91863H11.4219C11.6419 3.91888 11.8529 4.00641 12.0086 4.16203C12.1642 4.31765 12.2517 4.52864 12.252 4.74871V11.9867Z" fill="black"/>
<path d="M11.1562 4.78198H5.84375C5.78211 4.78198 5.72299 4.80647 5.6794 4.85006C5.63582 4.89364 5.61133 4.95276 5.61133 5.0144V10.9235C5.61171 11.1072 5.64477 11.2893 5.70895 11.4614C5.82056 11.76 6.02017 12.0176 6.28139 12.2003C6.54261 12.383 6.85313 12.4821 7.17188 12.4844H9.82812C10.1469 12.4822 10.4574 12.3833 10.7186 12.2006C10.9799 12.018 11.1795 11.7604 11.2911 11.4618C11.3552 11.2897 11.3883 11.1075 11.3887 10.9238V5.0144C11.3887 4.95276 11.3642 4.89364 11.3206 4.85006C11.277 4.80647 11.2179 4.78198 11.1562 4.78198ZM6.07617 5.24683H10.9238V10.9235C10.9235 10.9685 10.9205 11.0134 10.9147 11.058C10.1422 10.7725 9.32341 10.6332 8.5 10.6473C7.67659 10.6332 6.85776 10.7725 6.08534 11.058C6.07952 11.0134 6.07646 10.9685 6.07617 10.9235V5.24683ZM7.17188 12.0196C6.98513 12.0179 6.80182 11.9692 6.63893 11.8778C6.47605 11.7865 6.33885 11.6555 6.24006 11.497C6.9624 11.2275 7.72917 11.0969 8.5 11.1121C9.27081 11.0968 10.0376 11.2272 10.7599 11.4966C10.6612 11.6551 10.524 11.7862 10.3611 11.8776C10.1982 11.9691 10.0149 12.0179 9.82812 12.0196H7.17188Z" fill="black"/>
</svg>
