<svg width="17" height="17" viewBox="0 0 17 17" fill="none" xmlns="http://www.w3.org/2000/svg">
<g clip-path="url(#clip0_1_1932)">
<path d="M16.9516 7.65206C16.8318 7.31139 16.5097 7.08363 16.1486 7.08417H6.23277C6.0763 7.08417 5.94948 7.21099 5.94948 7.36746V8.21739H5.38285V4.25109H5.66615C6.13553 4.25109 6.51607 3.87058 6.51607 3.40117C6.51607 2.93175 6.13556 2.55124 5.66615 2.55124H5.38285V1.70132H5.66615C5.82262 1.70132 5.94944 1.57449 5.94944 1.41802V0.284762C5.94944 0.12829 5.82262 0.00146484 5.66615 0.00146484H0.283297C0.126825 0.00146484 0 0.12829 0 0.284762V1.41799C0 1.57446 0.126825 1.70128 0.283297 1.70128H0.566595V8.50069C0.566595 8.65716 0.69342 8.78398 0.849892 8.78398H1.13319C1.22386 10.6085 2.18142 11.3678 3.03135 12.0392C4.10793 12.8891 5.12216 13.6909 4.53004 16.66C4.49866 16.8133 4.5975 16.963 4.75078 16.9943C4.7723 16.9987 4.79421 17.0006 4.81615 16.9999H13.882C14.0385 16.9999 14.1653 16.873 14.1653 16.7166C14.1653 16.6657 14.1516 16.6158 14.1257 16.5721C13.3154 15.2236 13.3154 14.1272 13.3154 12.467C15.055 11.9004 16.31 10.447 16.4318 8.73581C16.8747 8.5801 17.1074 8.09485 16.9516 7.65206ZM5.66618 3.11784C5.82265 3.11784 5.94948 3.24466 5.94948 3.40113C5.94948 3.55761 5.82265 3.68443 5.66618 3.68443H5.38288V3.11784H5.66618ZM0.566628 1.13469V0.56806H5.38288V1.13469H0.566628ZM1.13322 1.70132H4.81622V8.21742H1.13322V1.70132ZM5.15622 16.4333C5.66618 13.3963 4.5131 12.467 3.3997 11.5944C2.5696 10.9457 1.79334 10.3309 1.69985 8.78402H5.66618C5.79367 10.4839 7.04306 11.9004 8.76559 12.467C8.76559 14.0649 8.76558 15.1443 8.03465 16.4333H5.15622ZM13.4033 16.4333H8.69474C9.32368 15.1811 9.34918 14.0706 9.34918 12.6257C9.72149 12.7071 10.1013 12.7489 10.4824 12.7503H11.6156C11.9967 12.7489 12.3766 12.7071 12.7488 12.6257C12.7489 14.0706 12.7716 15.1811 13.4033 16.4333ZM11.6157 12.1837H10.4824C8.24995 12.1837 6.41697 10.6822 6.24981 8.78402H15.8483C15.6811 10.6822 13.8481 12.1837 11.6157 12.1837ZM16.1486 8.21739H6.51611V7.65076H16.1486C16.3051 7.65076 16.4319 7.77759 16.4319 7.93406C16.4319 8.09053 16.3051 8.21739 16.1486 8.21739Z" fill="#333333"/>
</g>
<defs>
<clipPath id="clip0_1_1932">
<rect width="17" height="17" fill="white"/>
</clipPath>
</defs>
</svg>
