<svg width="18" height="17" viewBox="0 0 18 17" fill="none" xmlns="http://www.w3.org/2000/svg">
<g clip-path="url(#clip0_1_1938)">
<path d="M1.52493 7.08359H1.81523V10.2002C1.81565 10.513 2.08398 10.7664 2.41521 10.7668H2.83982L1.048 16.2666C0.991969 16.4386 1.02575 16.6253 1.13891 16.7699C1.25206 16.9145 1.43113 17 1.6216 17H16.4085C16.5988 17 16.778 16.9147 16.8912 16.7701C17.0042 16.6254 17.038 16.4387 16.9821 16.2667L15.1903 10.7668H15.6148C15.946 10.7664 16.2145 10.513 16.2147 10.2002V7.08359H16.5052C16.7415 7.08411 16.9564 6.95402 17.0548 6.75092C17.1605 6.54081 17.126 6.29166 16.9669 6.11424L15.4772 4.45569C15.2839 4.25258 14.9678 4.20239 14.7149 4.33455V4.15687C14.7158 3.88088 14.5774 3.62097 14.3422 3.45729L9.54499 0.166904C9.23189 -0.055006 8.80151 -0.0556545 8.48772 0.165088L3.68437 3.45988C3.45091 3.62356 3.31386 3.8823 3.31524 4.15687V4.33481C3.06256 4.20252 2.74685 4.25233 2.55349 4.45491L1.06146 6.11619C0.903532 6.29348 0.869887 6.54159 0.975353 6.75079C1.07354 6.95389 1.28845 7.08398 1.52493 7.08359ZM3.46767 10.7668H3.61515C3.94638 10.7664 4.21472 10.513 4.21513 10.2002V9.63354H4.72543C4.72529 9.93404 4.85163 10.2224 5.0767 10.4349C5.30164 10.6474 5.60692 10.7668 5.9251 10.7668H12.6304C12.879 10.7668 13.0804 10.9571 13.0804 11.1918C13.0804 11.4266 12.879 11.6168 12.6304 11.6168H5.18423C4.5215 11.6168 3.98428 12.1242 3.98428 12.7501C3.98428 13.376 4.5215 13.8834 5.18423 13.8834H13.1334C13.5476 13.8834 13.8834 14.2005 13.8834 14.5917C13.8834 14.9828 13.5476 15.3001 13.1334 15.3001H4.30508C3.74314 15.2979 3.2555 15.6662 3.13452 16.1846L3.07519 16.4334H1.6216L3.46767 10.7668ZM16.4085 16.4334H3.69013L3.7198 16.309C3.78036 16.0497 4.02411 15.8656 4.30508 15.8667H13.1334C13.879 15.8667 14.4833 15.2958 14.4833 14.5917C14.4833 13.8876 13.879 13.3168 13.1334 13.3168H5.18423C4.85287 13.3168 4.58426 13.0631 4.58426 12.7501C4.58426 12.4372 4.85287 12.1835 5.18423 12.1835H12.6304C13.2103 12.1835 13.6804 11.7395 13.6804 11.1918C13.6804 10.6441 13.2103 10.2002 12.6304 10.2002H5.9251C5.59373 10.2002 5.32513 9.9465 5.32513 9.63354H13.8148V10.2002C13.8153 10.513 14.0836 10.7664 14.4148 10.7668H14.5623L16.4085 16.4334ZM10.215 9.0669H7.81511V5.9503C7.81538 5.63748 8.08385 5.38405 8.41508 5.38366H9.61503C9.94625 5.38405 10.2146 5.63748 10.215 5.9503V9.0669ZM15.0189 4.82143L16.5092 6.48089L16.7379 6.2975L16.5052 6.51695H15.9148C15.7491 6.51695 15.6148 6.64379 15.6148 6.80033V10.2002H14.4148V6.80033C14.4148 6.64379 14.2805 6.51695 14.1149 6.51695H14.0834L13.5233 6.51746L13.5204 6.48089L15.0189 4.82143ZM4.04059 3.91563L8.84298 0.621747C8.94557 0.54808 9.08784 0.548729 9.18959 0.623563L13.9858 3.91317C14.0675 3.97037 14.1154 4.06089 14.1149 4.15687V4.94283L13.0611 6.11619C12.9031 6.29348 12.8695 6.54159 12.975 6.75079C13.0733 6.95389 13.2881 7.08398 13.5245 7.08359H13.8148V9.0669H10.815V5.9503C10.8143 5.32465 10.2775 4.81767 9.61503 4.81702H8.41508C7.75262 4.81767 7.21582 5.32465 7.21499 5.9503V9.0669H4.21513V7.08359H4.50543C4.74191 7.08411 4.95682 6.95402 5.05515 6.75092C5.16075 6.54081 5.12642 6.29166 4.96726 6.11424L3.91521 4.94296V4.15687C3.91425 4.06232 3.9608 3.97283 4.04059 3.91563ZM3.0193 4.82143L4.50955 6.48089L4.73834 6.2975L4.50543 6.51695H3.91521C3.74946 6.51695 3.61515 6.64379 3.61515 6.80033V10.2002H2.41521V6.80033C2.41521 6.64379 2.2809 6.51695 2.11515 6.51695H2.08384L1.52369 6.51746L1.52067 6.48089L3.0193 4.82143Z" fill="#333333"/>
<path d="M5.11532 4.81715C5.18137 4.81715 5.24551 4.79653 5.29783 4.75853L8.32172 2.56278C8.45314 2.46732 8.47772 2.28951 8.37679 2.16539C8.27586 2.04127 8.08745 2.01806 7.95616 2.11338L4.93213 4.30913C4.83023 4.38306 4.78959 4.51016 4.83092 4.62507C4.87239 4.74011 4.98678 4.81728 5.11532 4.81715Z" fill="#333333"/>
<path d="M9.31532 1.70039C9.31532 1.8568 9.18101 1.98378 9.0154 1.98378C8.84964 1.98378 8.71533 1.8568 8.71533 1.70039C8.71533 1.54397 8.84964 1.41699 9.0154 1.41699C9.18101 1.41699 9.31532 1.54397 9.31532 1.70039Z" fill="#333333"/>
</g>
<defs>
<clipPath id="clip0_1_1938">
<rect width="18" height="17" fill="white"/>
</clipPath>
</defs>
</svg>
