<svg width="17" height="18" viewBox="0 0 17 18" fill="none" xmlns="http://www.w3.org/2000/svg">
<path d="M14.9746 0H2.02539C1.88786 0 1.77637 0.11802 1.77637 0.263672V17.7363C1.77637 17.882 1.88786 18 2.02539 18H14.9746C15.1122 18 15.2236 17.882 15.2236 17.7363V0.263672C15.2236 0.11802 15.1122 0 14.9746 0ZM2.27441 1.58203H4.2666C4.67855 1.58203 5.01367 1.9369 5.01367 2.37305V2.72616C4.25146 2.84214 3.64713 3.48202 3.53759 4.28906H3.43652C3.299 4.28906 3.1875 4.40708 3.1875 4.55273C3.1875 4.69839 3.299 4.81641 3.43652 4.81641H7.08887C7.22639 4.81641 7.33789 4.69839 7.33789 4.55273C7.33789 4.40708 7.22639 4.28906 7.08887 4.28906H6.9878C6.87826 3.48202 6.27393 2.84214 5.51172 2.72616V2.37305C5.51172 1.64609 4.95318 1.05469 4.2666 1.05469H2.27441V0.527344H8.25098V16.418H2.27441V1.58203ZM5.2627 3.23438C5.864 3.23438 6.36706 3.68803 6.48274 4.28906H4.04261C4.15833 3.68803 4.66139 3.23438 5.2627 3.23438ZM14.7256 17.4727H2.27441V16.9453H14.7256V17.4727ZM14.7256 16.418H8.74902V0.527344H14.7256V16.418Z" fill="black"/>
<path d="M9.49609 6.62695C9.35853 6.62695 9.24707 6.74497 9.24707 6.89062V10.0547C9.24707 10.2003 9.35853 10.3184 9.49609 10.3184C9.63365 10.3184 9.74512 10.2003 9.74512 10.0547V6.89062C9.74512 6.74497 9.63365 6.62695 9.49609 6.62695Z" fill="black"/>
<path d="M7.50391 6.62695C7.36638 6.62695 7.25488 6.74497 7.25488 6.89062V10.0547C7.25488 10.2003 7.36638 10.3184 7.50391 10.3184C7.64143 10.3184 7.75293 10.2003 7.75293 10.0547V6.89062C7.75293 6.74497 7.64143 6.62695 7.50391 6.62695Z" fill="black"/>
<path d="M5.2627 5.34375C5.12517 5.34375 5.01367 5.46177 5.01367 5.60742V6.13477C5.01367 6.28042 5.12517 6.39844 5.2627 6.39844C5.40022 6.39844 5.51172 6.28042 5.51172 6.13477V5.60742C5.51172 5.46177 5.40022 5.34375 5.2627 5.34375Z" fill="black"/>
<path d="M4.2666 5.34375C4.12907 5.34375 4.01758 5.46177 4.01758 5.60742V6.13477C4.01758 6.28042 4.12907 6.39844 4.2666 6.39844C4.40413 6.39844 4.51562 6.28042 4.51562 6.13477V5.60742C4.51562 5.46177 4.40413 5.34375 4.2666 5.34375Z" fill="black"/>
<path d="M6.25879 5.34375C6.12126 5.34375 6.00977 5.46177 6.00977 5.60742V6.13477C6.00977 6.28042 6.12126 6.39844 6.25879 6.39844C6.39632 6.39844 6.50781 6.28042 6.50781 6.13477V5.60742C6.50781 5.46177 6.39632 5.34375 6.25879 5.34375Z" fill="black"/>
<path d="M5.2627 6.92578C5.12517 6.92578 5.01367 7.0438 5.01367 7.18945V7.7168C5.01367 7.86245 5.12517 7.98047 5.2627 7.98047C5.40022 7.98047 5.51172 7.86245 5.51172 7.7168V7.18945C5.51172 7.0438 5.40022 6.92578 5.2627 6.92578Z" fill="black"/>
<path d="M4.2666 6.92578C4.12907 6.92578 4.01758 7.0438 4.01758 7.18945V7.7168C4.01758 7.86245 4.12907 7.98047 4.2666 7.98047C4.40413 7.98047 4.51562 7.86245 4.51562 7.7168V7.18945C4.51562 7.0438 4.40413 6.92578 4.2666 6.92578Z" fill="black"/>
<path d="M6.25879 6.92578C6.12126 6.92578 6.00977 7.0438 6.00977 7.18945V7.7168C6.00977 7.86245 6.12126 7.98047 6.25879 7.98047C6.39632 7.98047 6.50781 7.86245 6.50781 7.7168V7.18945C6.50781 7.0438 6.39632 6.92578 6.25879 6.92578Z" fill="black"/>
<path d="M5.2627 8.50781C5.12517 8.50781 5.01367 8.62583 5.01367 8.77148V9.29883C5.01367 9.44448 5.12517 9.5625 5.2627 9.5625C5.40022 9.5625 5.51172 9.44448 5.51172 9.29883V8.77148C5.51172 8.62583 5.40022 8.50781 5.2627 8.50781Z" fill="black"/>
<path d="M4.2666 8.50781C4.12907 8.50781 4.01758 8.62583 4.01758 8.77148V9.29883C4.01758 9.44448 4.12907 9.5625 4.2666 9.5625C4.40413 9.5625 4.51562 9.44448 4.51562 9.29883V8.77148C4.51562 8.62583 4.40413 8.50781 4.2666 8.50781Z" fill="black"/>
<path d="M6.25879 8.50781C6.12126 8.50781 6.00977 8.62583 6.00977 8.77148V9.29883C6.00977 9.44448 6.12126 9.5625 6.25879 9.5625C6.39632 9.5625 6.50781 9.44448 6.50781 9.29883V8.77148C6.50781 8.62583 6.39632 8.50781 6.25879 8.50781Z" fill="black"/>
<path d="M5.2627 10.0898C5.12517 10.0898 5.01367 10.2079 5.01367 10.3535V10.8809C5.01367 11.0265 5.12517 11.1445 5.2627 11.1445C5.40022 11.1445 5.51172 11.0265 5.51172 10.8809V10.3535C5.51172 10.2079 5.40022 10.0898 5.2627 10.0898Z" fill="black"/>
<path d="M4.2666 10.0898C4.12907 10.0898 4.01758 10.2079 4.01758 10.3535V10.8809C4.01758 11.0265 4.12907 11.1445 4.2666 11.1445C4.40413 11.1445 4.51562 11.0265 4.51562 10.8809V10.3535C4.51562 10.2079 4.40413 10.0898 4.2666 10.0898Z" fill="black"/>
<path d="M6.25879 10.0898C6.12126 10.0898 6.00977 10.2079 6.00977 10.3535V10.8809C6.00977 11.0265 6.12126 11.1445 6.25879 11.1445C6.39632 11.1445 6.50781 11.0265 6.50781 10.8809V10.3535C6.50781 10.2079 6.39632 10.0898 6.25879 10.0898Z" fill="black"/>
<path d="M5.2627 11.6719C5.12517 11.6719 5.01367 11.7899 5.01367 11.9355V12.4629C5.01367 12.6085 5.12517 12.7266 5.2627 12.7266C5.40022 12.7266 5.51172 12.6085 5.51172 12.4629V11.9355C5.51172 11.7899 5.40022 11.6719 5.2627 11.6719Z" fill="black"/>
<path d="M4.2666 11.6719C4.12907 11.6719 4.01758 11.7899 4.01758 11.9355V12.4629C4.01758 12.6085 4.12907 12.7266 4.2666 12.7266C4.40413 12.7266 4.51562 12.6085 4.51562 12.4629V11.9355C4.51562 11.7899 4.40413 11.6719 4.2666 11.6719Z" fill="black"/>
<path d="M6.25879 11.6719C6.12126 11.6719 6.00977 11.7899 6.00977 11.9355V12.4629C6.00977 12.6085 6.12126 12.7266 6.25879 12.7266C6.39632 12.7266 6.50781 12.6085 6.50781 12.4629V11.9355C6.50781 11.7899 6.39632 11.6719 6.25879 11.6719Z" fill="black"/>
<path d="M5.2627 13.2539C5.12517 13.2539 5.01367 13.3719 5.01367 13.5176V14.0449C5.01367 14.1906 5.12517 14.3086 5.2627 14.3086C5.40022 14.3086 5.51172 14.1906 5.51172 14.0449V13.5176C5.51172 13.3719 5.40022 13.2539 5.2627 13.2539Z" fill="black"/>
<path d="M4.2666 13.2539C4.12907 13.2539 4.01758 13.3719 4.01758 13.5176V14.0449C4.01758 14.1906 4.12907 14.3086 4.2666 14.3086C4.40413 14.3086 4.51562 14.1906 4.51562 14.0449V13.5176C4.51562 13.3719 4.40413 13.2539 4.2666 13.2539Z" fill="black"/>
<path d="M6.25879 13.2539C6.12126 13.2539 6.00977 13.3719 6.00977 13.5176V14.0449C6.00977 14.1906 6.12126 14.3086 6.25879 14.3086C6.39632 14.3086 6.50781 14.1906 6.50781 14.0449V13.5176C6.50781 13.3719 6.39632 13.2539 6.25879 13.2539Z" fill="black"/>
<path d="M5.2627 14.8359C5.12517 14.8359 5.01367 14.954 5.01367 15.0996V15.627C5.01367 15.7726 5.12517 15.8906 5.2627 15.8906C5.40022 15.8906 5.51172 15.7726 5.51172 15.627V15.0996C5.51172 14.954 5.40022 14.8359 5.2627 14.8359Z" fill="black"/>
<path d="M4.2666 14.8359C4.12907 14.8359 4.01758 14.954 4.01758 15.0996V15.627C4.01758 15.7726 4.12907 15.8906 4.2666 15.8906C4.40413 15.8906 4.51562 15.7726 4.51562 15.627V15.0996C4.51562 14.954 4.40413 14.8359 4.2666 14.8359Z" fill="black"/>
<path d="M6.25879 14.8359C6.12126 14.8359 6.00977 14.954 6.00977 15.0996V15.627C6.00977 15.7726 6.12126 15.8906 6.25879 15.8906C6.39632 15.8906 6.50781 15.7726 6.50781 15.627V15.0996C6.50781 14.954 6.39632 14.8359 6.25879 14.8359Z" fill="black"/>
</svg>
