<svg width="17" height="17" viewBox="0 0 17 17" fill="none" xmlns="http://www.w3.org/2000/svg">
<path d="M13.3496 0.283912C10.1317 -0.0946372 6.86794 -0.0946372 3.65009 0.283912C3.50728 0.300613 3.3999 0.421605 3.3999 0.565275V14.1675C3.3999 14.3111 3.50728 14.4321 3.65009 14.4489C5.25918 14.6381 6.87959 14.7328 8.5 14.7328C10.1204 14.7328 11.7408 14.6382 13.3499 14.4489C13.4927 14.4321 13.6001 14.3112 13.6001 14.1675V0.565242C13.6001 0.421605 13.4927 0.300613 13.3496 0.283912ZM13.0334 13.9147C10.0238 14.2502 6.97618 14.2502 3.96658 13.9147V0.817984C6.97621 0.4825 10.0238 0.4825 13.0334 0.817984V13.9147Z" fill="#333333"/>
<path d="M8.50005 11.3333C7.87501 11.3333 7.3667 11.8416 7.3667 12.4666C7.3667 13.0917 7.87501 13.6 8.50005 13.6C9.1251 13.6 9.63341 13.0917 9.63341 12.4666C9.63341 11.8416 9.1251 11.3333 8.50005 11.3333ZM8.50005 13.0333C8.18755 13.0333 7.93338 12.7791 7.93338 12.4666C7.93338 12.1541 8.18755 11.8999 8.50005 11.8999C8.81256 11.8999 9.06673 12.1541 9.06673 12.4666C9.06673 12.7791 8.81256 13.0333 8.50005 13.0333Z" fill="#333333"/>
<path d="M9.91679 2.26538H7.0834C6.61477 2.26538 6.2334 2.64675 6.2334 3.11538V4.24873C6.2334 4.71736 6.61477 5.09873 7.0834 5.09873H9.91679C10.3854 5.09873 10.7668 4.71736 10.7668 4.24873V3.11541C10.7668 2.64675 10.3854 2.26538 9.91679 2.26538ZM10.2001 4.24873C10.2001 4.40486 10.0729 4.53206 9.91679 4.53206H7.0834C6.92728 4.53206 6.80004 4.40486 6.80004 4.24873V3.11541C6.80004 2.95929 6.92728 2.83209 7.0834 2.83209H9.91679C10.0729 2.83209 10.2001 2.95929 10.2001 3.11541V4.24873Z" fill="#333333"/>
<path d="M9.52014 3.45538C9.39489 3.36131 9.21726 3.38708 9.12346 3.51205L8.27345 4.64541C8.17966 4.77065 8.20489 4.94829 8.33013 5.04208C8.38113 5.08033 8.44093 5.09876 8.49987 5.09876C8.586 5.09876 8.6713 5.05965 8.72681 4.98544L9.57682 3.85209C9.67058 3.72681 9.64535 3.54914 9.52014 3.45538Z" fill="#333333"/>
<path d="M7.08321 15.2998H5.94986C5.79344 15.2998 5.6665 15.4267 5.6665 15.5831V16.7165C5.6665 16.8729 5.79344 16.9998 5.94986 16.9998H7.08321C7.2396 16.9998 7.36654 16.8729 7.36654 16.7165V15.5831C7.36654 15.4267 7.2396 15.2998 7.08321 15.2998ZM6.79986 16.4332H6.23318V15.8665H6.79986V16.4332Z" fill="#333333"/>
<path d="M11.05 15.2998H9.91662C9.76024 15.2998 9.6333 15.4267 9.6333 15.5831V16.7165C9.6333 16.8729 9.76024 16.9998 9.91662 16.9998H11.05C11.2064 16.9998 11.3333 16.8729 11.3333 16.7165V15.5831C11.3333 15.4267 11.2064 15.2998 11.05 15.2998ZM10.7667 16.4332H10.2V15.8665H10.7667V16.4332Z" fill="#333333"/>
<path d="M13.3167 10.2H3.68322C3.5268 10.2 3.3999 10.3269 3.3999 10.4833V14.1676C3.3999 14.3112 3.50728 14.4322 3.65009 14.4489C5.25918 14.6382 6.87959 14.7328 8.5 14.7328C10.1204 14.7328 11.7408 14.6382 13.3499 14.4489C13.4927 14.4322 13.6001 14.3112 13.6001 14.1676V10.4833C13.6001 10.3269 13.4731 10.2 13.3167 10.2ZM13.0334 13.9148C10.0238 14.2503 6.97618 14.2503 3.96658 13.9148V10.7666H13.0334V13.9148Z" fill="#333333"/>
<path d="M7.65581 14.1542C6.91375 14.1389 6.15639 14.1021 5.4047 14.0451C5.32595 14.0386 5.24858 14.0664 5.19077 14.1199C5.13297 14.1735 5.1001 14.2489 5.1001 14.3276V15.5834C5.1001 15.7397 5.22703 15.8667 5.38345 15.8667H7.65016C7.80655 15.8667 7.93349 15.7398 7.93322 15.5834V14.4376C7.93322 14.2834 7.80994 14.1573 7.65581 14.1542ZM7.36681 15.3H5.66677V14.6322C6.23488 14.6713 6.80438 14.6985 7.36681 14.7141V15.3Z" fill="#333333"/>
<path d="M11.8093 14.1198C11.7518 14.0662 11.6753 14.0391 11.5954 14.045C10.8434 14.1019 10.086 14.1388 9.34427 14.1541C9.19014 14.1572 9.06689 14.2833 9.06689 14.4374V15.5832C9.06689 15.7396 9.19383 15.8666 9.35022 15.8666H11.6169C11.7733 15.8666 11.9003 15.7396 11.9 15.5833V14.3275C11.8999 14.2487 11.8671 14.1734 11.8093 14.1198ZM11.3336 15.2999H9.63354V14.714C10.196 14.6984 10.7655 14.6712 11.3336 14.6321V15.2999Z" fill="#333333"/>
</svg>
