<svg width="17" height="17" viewBox="0 0 17 17" fill="none" xmlns="http://www.w3.org/2000/svg">
<g clip-path="url(#clip0_1_2111)">
<path d="M15.0078 0H1.99219C0.893695 0 0 0.893695 0 1.99219V15.0078C0 16.1063 0.893695 17 1.99219 17H15.0078C16.1063 17 17 16.1063 17 15.0078V1.99219C17 0.893695 16.1063 0 15.0078 0ZM16.0039 15.0078C16.0039 15.5571 15.5571 16.0039 15.0078 16.0039H1.99219C1.44294 16.0039 0.996094 15.5571 0.996094 15.0078V1.99219C0.996094 1.44294 1.44294 0.996094 1.99219 0.996094H15.0078C15.5571 0.996094 16.0039 1.44294 16.0039 1.99219V15.0078Z" fill="#333333"/>
<path d="M13.1614 11.5161H4.38725L3.83887 12.6129H13.7098L13.1614 11.5161Z" fill="#333333"/>
<path d="M13.1614 9.32275H4.38725L3.83887 10.4195H13.7098L13.1614 9.32275Z" fill="#333333"/>
<path d="M13.1614 7.12915H4.38725L3.83887 8.22592H13.7098L13.1614 7.12915Z" fill="#333333"/>
<path d="M13.1614 4.93555H4.38725L3.83887 6.03232H13.7098L13.1614 4.93555Z" fill="#333333"/>
<ellipse cx="14.8062" cy="2.19365" rx="0.548388" ry="0.548387" fill="#333333"/>
<ellipse cx="2.74175" cy="2.19365" rx="0.548387" ry="0.548387" fill="#333333"/>
<circle cx="14.8062" cy="14.2581" r="0.548388" fill="#333333"/>
<ellipse cx="2.74175" cy="14.2581" rx="0.548387" ry="0.548388" fill="#333333"/>
</g>
<defs>
<clipPath id="clip0_1_2111">
<rect width="17" height="17" fill="white"/>
</clipPath>
</defs>
</svg>
