<svg width="18" height="17" viewBox="0 0 18 17" fill="none" xmlns="http://www.w3.org/2000/svg">
<g clip-path="url(#clip0_1_1985)">
<path d="M17.6523 10.379C17.5496 10.3567 17.4393 10.3806 17.3566 10.4421C17.2941 10.4889 17.2494 10.5556 17.2318 10.6293C16.9629 11.7522 15.8818 12.5674 14.6616 12.5674H12.375V11.7373H14.6602C14.8975 11.7373 15.1277 11.6935 15.3443 11.6068C15.5538 11.5231 15.7416 11.4033 15.9029 11.2509C16.0643 11.0985 16.1912 10.9212 16.2798 10.7233C16.3716 10.5188 16.418 10.3013 16.418 10.0771C16.418 9.85303 16.3716 9.63555 16.2798 9.43102C16.1912 9.23313 16.0643 9.05582 15.9029 8.90342C15.7416 8.75068 15.5538 8.63115 15.3443 8.54748C15.132 8.46248 14.9066 8.41865 14.6742 8.41732V8.41699H12.375V7.58691H14.6602C15.3155 7.58691 15.9441 7.81568 16.4299 8.23105C16.4946 8.2865 16.5783 8.31705 16.6658 8.31705C16.765 8.31705 16.8599 8.27721 16.9263 8.20814C16.9896 8.14207 17.0216 8.0574 17.017 7.96875C17.0125 7.8801 16.9713 7.79842 16.9017 7.73898C16.2875 7.21271 15.4916 6.92285 14.6612 6.92285H13.7812V5.48034C14.2342 5.91763 14.861 6.17578 15.5391 6.17578C16.896 6.17578 18 5.13314 18 3.85156C18 2.56999 16.896 1.52734 15.5391 1.52734C14.842 1.52734 14.1989 1.79997 13.7435 2.25977C13.6207 1.83816 13.2114 1.52734 12.7266 1.52734H5.97656C5.159 1.52734 4.47001 2.05723 4.27437 2.77246H3.33984C1.49825 2.77246 0 4.18748 0 5.92676C0 6.76915 0.347484 7.56125 0.978363 8.15704C1.60928 8.75291 2.44793 9.08105 3.33984 9.08105H4.21875V10.5236C3.76583 10.0863 3.13903 9.82812 2.46094 9.82812C1.10398 9.82812 0 10.8708 0 12.1523C0 13.4339 1.10398 14.4766 2.46094 14.4766C3.13903 14.4766 3.76583 14.2184 4.21875 13.7811V15.1406C4.21875 15.3239 4.37625 15.4727 4.57031 15.4727H13.4297C13.6237 15.4727 13.7812 15.3239 13.7812 15.1406V13.2314H14.6602C15.049 13.2311 15.4301 13.1687 15.7925 13.0452C16.143 12.926 16.4682 12.753 16.759 12.5309C17.0473 12.3107 17.2934 12.0491 17.4902 11.7529C17.6906 11.4514 17.8348 11.1227 17.9177 10.7761C17.9385 10.6894 17.9223 10.6004 17.872 10.5254C17.8221 10.4504 17.7441 10.3982 17.6523 10.379ZM14.6602 9.08105C15.2406 9.08205 15.7138 9.52896 15.7148 10.0771C15.7138 10.6253 15.2406 11.0722 14.6602 11.0732H13.7812V9.08105H14.6602ZM13.0781 9.08105V11.0732H12.375V9.08105H13.0781ZM12.7266 2.19141C12.9203 2.19141 13.0781 2.34049 13.0781 2.52344V2.77246H12.375V2.52344C12.375 2.35467 12.5259 2.19141 12.7266 2.19141ZM12.375 4.2666V3.43652H15.4512C15.693 3.43686 15.8903 3.62313 15.8906 3.85156C15.8903 4.08 15.693 4.26627 15.4512 4.2666H12.375ZM12.375 6.92285V4.93066H13.0781V6.92285H12.375ZM15.5391 2.19141C16.5083 2.19141 17.2969 2.93615 17.2969 3.85156C17.2969 4.76697 16.5083 5.51172 15.5391 5.51172C15.0125 5.51172 14.5293 5.29391 14.2019 4.93066H15.4512C15.7563 4.93066 16.0432 4.81844 16.2591 4.61457C16.4746 4.4107 16.5938 4.13977 16.5938 3.85156C16.5938 3.56336 16.4746 3.29242 16.2591 3.08855C16.0432 2.88469 15.7563 2.77246 15.4512 2.77246H14.2019C14.5293 2.40922 15.0125 2.19141 15.5391 2.19141ZM3.33984 8.41699C2.63577 8.41699 1.97367 8.15791 1.47558 7.68749C0.977449 7.21706 0.703125 6.59178 0.703125 5.92676C0.703125 4.55364 1.88596 3.43652 3.33984 3.43652H4.21875V4.2666H3.33984C3.10254 4.2666 2.87227 4.31076 2.6557 4.39709C2.44617 4.48076 2.25844 4.60062 2.09707 4.75303C1.93535 4.90543 1.80879 5.08273 1.7202 5.28062C1.62844 5.48516 1.58203 5.70264 1.58203 5.92676C1.58203 6.15088 1.62844 6.36836 1.7202 6.57289C1.80879 6.77078 1.93535 6.94809 2.09707 7.10049C2.25844 7.25322 2.44617 7.37275 2.6557 7.45643C2.87227 7.54309 3.10254 7.58691 3.33984 7.58691H4.21875V8.41699H3.33984ZM4.21875 6.92285H3.33984C2.75941 6.92186 2.28621 6.47494 2.28516 5.92676C2.28621 5.37857 2.75941 4.93166 3.33984 4.93066H4.21875V6.92285ZM4.21875 11.7373V12.5674H2.54883C2.30695 12.5671 2.10973 12.3808 2.10938 12.1523C2.10973 11.9239 2.30695 11.7376 2.54883 11.7373H4.21875ZM2.46094 13.8125C1.49168 13.8125 0.703125 13.0678 0.703125 12.1523C0.703125 11.2369 1.49168 10.4922 2.46094 10.4922C2.98747 10.4922 3.47073 10.71 3.79811 11.0732H2.54883C2.24367 11.0732 1.95645 11.1855 1.74094 11.3893C1.52508 11.5932 1.40625 11.8641 1.40625 12.1523C1.40625 12.4405 1.52508 12.7115 1.74094 12.9154C1.95645 13.1192 2.24367 13.2314 2.54883 13.2314H3.79811C3.47073 13.5947 2.98747 13.8125 2.46094 13.8125ZM4.92188 3.1875C4.92188 2.63832 5.39508 2.19141 5.97656 2.19141H11.7316C11.6923 2.29666 11.6719 2.40855 11.6719 2.52344V14.8086H4.92188V3.1875ZM13.0781 14.8086H12.375V13.2314H13.0781V14.8086Z" fill="#333333"/>
<path d="M17.5103 9.55957C17.7044 9.55957 17.8618 9.41091 17.8618 9.22754C17.8618 9.04416 17.7044 8.89551 17.5103 8.89551C17.3161 8.89551 17.1587 9.04416 17.1587 9.22754C17.1587 9.41091 17.3161 9.55957 17.5103 9.55957Z" fill="#333333"/>
</g>
<defs>
<clipPath id="clip0_1_1985">
<rect width="18" height="17" fill="white"/>
</clipPath>
</defs>
</svg>
