<svg width="17" height="17" viewBox="0 0 17 17" fill="none" xmlns="http://www.w3.org/2000/svg">
<g clip-path="url(#clip0_1_1992)">
<path d="M16.4688 12.3513C16.6521 12.3513 16.8008 12.2027 16.8008 12.0193C16.8008 11.8359 16.6521 11.6873 16.4688 11.6873C16.2854 11.6873 16.1367 11.8359 16.1367 12.0193C16.1367 12.2027 16.2854 12.3513 16.4688 12.3513Z" fill="#333333"/>
<path d="M13.1484 11.6875C13.3318 11.6875 13.4805 11.5388 13.4805 11.3555C13.4805 11.1721 13.3318 11.0234 13.1484 11.0234C12.9651 11.0234 12.8164 11.1721 12.8164 11.3555C12.8164 11.5388 12.9651 11.6875 13.1484 11.6875Z" fill="#333333"/>
<path d="M7.17188 13.0156C7.35525 13.0156 7.50391 12.867 7.50391 12.6836C7.50391 12.5002 7.35525 12.3516 7.17188 12.3516C6.9885 12.3516 6.83984 12.5002 6.83984 12.6836C6.83984 12.867 6.9885 13.0156 7.17188 13.0156Z" fill="#333333"/>
<path d="M16.6046 16.3221C16.4387 16.3543 16.1845 16.3598 15.8946 16.0371C15.7005 15.821 15.4257 15.697 15.1405 15.697C14.8554 15.697 14.5806 15.8209 14.3864 16.0372C14.206 16.2382 14.0183 16.3359 13.8124 16.3359C13.6065 16.3359 13.4188 16.2382 13.2383 16.0371C13.0443 15.821 12.7695 15.697 12.4843 15.697C12.1992 15.697 11.9243 15.8209 11.7301 16.0372C11.5498 16.2382 11.3621 16.3359 11.1562 16.3359C10.9503 16.3359 10.7626 16.2382 10.5821 16.0371C10.388 15.821 10.1132 15.697 9.82807 15.697C9.54292 15.697 9.2681 15.8209 9.0739 16.0372C8.89357 16.2382 8.70584 16.3359 8.49995 16.3359C8.29406 16.3359 8.10633 16.2382 7.92587 16.0371C7.7318 15.821 7.45698 15.697 7.17183 15.697C6.88669 15.697 6.61187 15.8209 6.41766 16.0372C6.28429 16.1859 6.03457 16.3359 5.77731 16.3359C5.47115 16.3359 5.25071 16.127 5.17003 16.0371C4.97596 15.821 4.70114 15.697 4.41599 15.697C4.13084 15.697 3.85602 15.8209 3.66182 16.0372C3.48149 16.2382 3.29376 16.3359 3.08787 16.3359C2.78171 16.3359 2.56127 16.127 2.48059 16.0371C2.28652 15.821 2.00562 15.697 1.70995 15.697C1.41428 15.697 1.13338 15.8209 0.939178 16.0372C0.858628 16.127 0.638194 16.3359 0.332029 16.3359C0.148683 16.3359 0 16.4846 0 16.6679C0 16.8513 0.148683 17 0.332029 17C0.735976 17 1.13743 16.8107 1.4334 16.4807C1.5017 16.4047 1.60251 16.361 1.70995 16.361C1.8174 16.361 1.9182 16.4046 1.98637 16.4806C2.28247 16.8107 2.68393 17 3.08787 17C3.48196 17 3.85137 16.8204 4.15604 16.4807C4.22534 16.4036 4.31764 16.361 4.41599 16.361C4.51434 16.361 4.60664 16.4035 4.6758 16.4806C4.97191 16.8106 5.37336 17 5.77731 17C6.18986 17 6.62465 16.801 6.91189 16.4807C6.98118 16.4036 7.07349 16.361 7.17183 16.361C7.27018 16.361 7.36248 16.4035 7.43165 16.4806C7.73645 16.8203 8.10587 17 8.49995 17C8.89404 17 9.26345 16.8204 9.56812 16.4807C9.63742 16.4036 9.72972 16.361 9.82807 16.361C9.92642 16.361 10.0187 16.4035 10.0879 16.4806C10.3927 16.8203 10.7621 17 11.1562 17C11.5503 17 11.9197 16.8204 12.2244 16.4807C12.2937 16.4036 12.386 16.361 12.4843 16.361C12.5827 16.361 12.675 16.4035 12.7441 16.4806C13.0489 16.8203 13.4183 17 13.8124 17C14.2065 17 14.5759 16.8204 14.8806 16.4807C14.9499 16.4036 15.0422 16.361 15.1405 16.361C15.2389 16.361 15.3312 16.4035 15.4005 16.4807C15.7586 16.8793 16.2138 17.0745 16.7312 16.9739C16.9112 16.939 17.0288 16.7647 16.9938 16.5847C16.9589 16.4048 16.7846 16.2872 16.6046 16.3221Z" fill="#333333"/>
<path d="M15.8047 7.70312H14.4765C14.3508 7.70312 14.2358 7.77418 14.1796 7.88667C14.1234 7.99916 14.1355 8.13374 14.2109 8.23438L15.0076 9.29674C15.195 9.5463 15.493 9.69531 15.8047 9.69531C16.3539 9.69531 16.8008 9.24847 16.8008 8.69922C16.8008 8.14997 16.3539 7.70312 15.8047 7.70312ZM15.8047 9.03125C15.6992 9.03125 15.6022 8.98267 15.5387 8.89814L15.1406 8.36719H15.8047C15.9877 8.36719 16.1367 8.51614 16.1367 8.69922C16.1367 8.8823 15.9877 9.03125 15.8047 9.03125Z" fill="#333333"/>
<path d="M0.332031 7.50391C0.515407 7.50391 0.664062 7.35525 0.664062 7.17188C0.664062 6.9885 0.515407 6.83984 0.332031 6.83984C0.148655 6.83984 0 6.9885 0 7.17188C0 7.35525 0.148655 7.50391 0.332031 7.50391Z" fill="#333333"/>
<path d="M16.6079 14.3141C16.435 14.3464 16.2753 14.3164 16.1239 14.2233C16.1328 14.1532 16.1376 14.0825 16.1376 14.0116C16.1376 13.2099 15.5663 12.5392 14.8095 12.3849V12.0195C14.8095 9.27325 12.5753 7.03902 9.82904 7.03902H9.49701V4.71482C9.49701 4.53144 9.34833 4.38279 9.16498 4.38279H8.50093C8.06806 4.38279 7.69878 4.66033 7.56175 5.04685H4.69189C4.55482 4.6604 4.18577 4.38279 3.75291 4.38279H3.42088V1.99218H4.41697C4.60031 1.99218 4.749 1.84353 4.749 1.66015V0.332029C4.749 0.14865 4.60031 0 4.41697 0H0.333006C0.149659 0 0.000976562 0.14865 0.000976562 0.332029V5.6777C0.000976562 5.86108 0.149659 6.00973 0.333006 6.00973C0.516352 6.00973 0.665035 5.86108 0.665035 5.6777V1.99218H2.75682V14.2424C2.62441 14.1741 2.52885 14.0808 2.48167 14.0283C2.2876 13.812 2.00667 13.6879 1.71093 13.6879C1.41519 13.6879 1.13426 13.812 0.940321 14.0282C0.89304 14.0808 0.797581 14.1744 0.665035 14.2428V8.66597C0.665035 8.48259 0.516352 8.33394 0.333006 8.33394C0.149659 8.33394 0.000976562 8.48259 0.000976562 8.66597V14.6588C0.000976562 14.8421 0.149659 14.9908 0.333006 14.9908C0.736687 14.9908 1.13811 14.8017 1.43448 14.4718C1.50281 14.3956 1.60355 14.352 1.71093 14.352C1.81831 14.352 1.91908 14.3956 1.98751 14.4719C2.28374 14.8017 2.68517 14.9908 3.08885 14.9908C3.4827 14.9908 3.85205 14.8114 4.15712 14.4718C4.22645 14.3945 4.31872 14.352 4.41697 14.352C4.51521 14.352 4.60748 14.3945 4.67694 14.4719C4.97318 14.8017 5.3746 14.9908 5.77829 14.9908C6.1906 14.9908 6.62533 14.792 6.91296 14.4718C6.98229 14.3945 7.07456 14.352 7.17281 14.352C7.27106 14.352 7.36333 14.3945 7.43279 14.4719C7.73772 14.8114 8.10707 14.9908 8.50093 14.9908C8.92377 14.9908 9.28724 14.7869 9.5692 14.4718C9.63852 14.3945 9.7308 14.352 9.82904 14.352C9.92729 14.352 10.0196 14.3945 10.089 14.4719C10.394 14.8114 10.7633 14.9908 11.1572 14.9908C11.5837 14.9908 11.9398 14.7884 12.2254 14.4718C12.2948 14.3945 12.387 14.352 12.4853 14.352C12.5835 14.352 12.6758 14.3945 12.7458 14.4725C12.8089 14.5425 12.8711 14.6026 12.9344 14.6551C12.9372 14.6575 12.9401 14.6599 12.943 14.6622C13.2058 14.8801 13.4986 14.9908 13.8134 14.9908C14.2072 14.9908 14.5766 14.8114 14.8817 14.4718C14.951 14.3945 15.0433 14.352 15.1415 14.352C15.2398 14.352 15.332 14.3945 15.4015 14.4719C15.6828 14.7851 16.0472 14.9909 16.4748 14.9909C16.5588 14.9909 16.6439 14.9829 16.7298 14.9669C16.9101 14.9332 17.0289 14.7598 16.9952 14.5795C16.9616 14.3993 16.7882 14.2805 16.6079 14.3141ZM4.749 5.7109H7.50484V8.03511C7.50484 8.21849 7.65352 8.36714 7.83687 8.36714C8.02021 8.36714 8.1689 8.21849 8.1689 8.03511V5.37888C8.1689 5.19579 8.31785 5.04685 8.50093 5.04685H8.83296V9.69526H8.50093C8.31785 9.69526 8.1689 9.54631 8.1689 9.36323C8.1689 9.17985 8.02021 9.0312 7.83687 9.0312H4.749V5.7109ZM3.75291 5.04685C3.93599 5.04685 4.08494 5.19579 4.08494 5.37888V9.36323C4.08494 9.54631 3.93599 9.69526 3.75291 9.69526H3.42088V5.04685H3.75291ZM0.665035 1.32812V0.664059H4.08494V1.32812C3.79185 1.32812 1.08087 1.32812 0.665035 1.32812ZM8.1689 13.3476C8.1689 13.7054 8.28375 14.0462 8.48851 14.3264C8.28756 14.3225 8.10365 14.225 7.92695 14.0283C7.73288 13.812 7.45802 13.6879 7.17281 13.6879C6.8876 13.6879 6.61274 13.812 6.4188 14.0282C6.28529 14.1768 6.03548 14.3268 5.77829 14.3268C5.47222 14.3268 5.25162 14.118 5.1711 14.0283C4.97703 13.812 4.70218 13.6879 4.41697 13.6879C4.13175 13.6879 3.8569 13.812 3.66296 14.0282C3.58397 14.1162 3.50359 14.1843 3.42088 14.2331V10.3593H3.75291C4.18574 10.3593 4.55482 10.0817 4.69189 9.69526H7.56175C7.69878 10.0818 8.06806 10.3593 8.50093 10.3593H9.16498C9.34833 10.3593 9.49701 10.2107 9.49701 10.0273V9.75237C9.88346 9.88943 10.1611 10.2585 10.1611 10.6913V11.7209C10.0523 11.6988 9.94097 11.6874 9.82904 11.6874C8.91364 11.6874 8.1689 12.4322 8.1689 13.3476ZM15.1415 13.6879C14.8563 13.6879 14.5814 13.812 14.3875 14.0282C14.207 14.2291 14.0192 14.3268 13.8134 14.3268C13.6976 14.3268 13.5882 14.2955 13.4814 14.232V12.6835C13.4814 12.5001 13.3327 12.3515 13.1493 12.3515C12.966 12.3515 12.8173 12.5001 12.8173 12.6835V13.7455C12.7112 13.708 12.5991 13.6879 12.4853 13.6879C12.3714 13.6879 12.2593 13.708 12.1532 13.7455V10.6913C12.1532 10.508 12.0046 10.3593 11.8212 10.3593C11.6379 10.3593 11.4892 10.508 11.4892 10.6913V14.2321C11.3827 14.2954 11.2732 14.3267 11.1572 14.3267C10.9513 14.3267 10.7635 14.2291 10.5832 14.0283C10.3891 13.812 10.1143 13.6879 9.82904 13.6879C9.5505 13.6879 9.28206 13.8065 9.08862 14.0138C8.92572 13.833 8.83296 13.5971 8.83296 13.3476C8.83296 12.7983 9.2798 12.3515 9.82904 12.3515C10.0042 12.3515 10.1764 12.3975 10.3269 12.4845C10.4297 12.544 10.5563 12.544 10.659 12.4847C10.7618 12.4254 10.8251 12.3158 10.8251 12.1971V10.6913C10.8251 9.88963 10.2539 9.21886 9.49701 9.0646V7.70308H9.82904C12.2091 7.70308 14.1454 9.63941 14.1454 12.0195V12.6835C14.1454 12.8669 14.2941 13.0156 14.4775 13.0156C14.9297 13.0156 15.3123 13.3186 15.4334 13.7323C15.3393 13.7033 15.2411 13.6879 15.1415 13.6879Z" fill="#333333"/>
</g>
<defs>
<clipPath id="clip0_1_1992">
<rect width="17" height="17" fill="white"/>
</clipPath>
</defs>
</svg>
