<svg width="30" height="30" viewBox="0 0 30 30" fill="none" xmlns="http://www.w3.org/2000/svg">
<path d="M13.5938 17.8125C13.4694 17.8125 13.3502 17.8619 13.2623 17.9498C13.1744 18.0377 13.125 18.1569 13.125 18.2812V22.0312C13.125 22.1556 13.1744 22.2748 13.2623 22.3627C13.3502 22.4506 13.4694 22.5 13.5938 22.5C13.7181 22.5 13.8373 22.4506 13.9252 22.3627C14.0131 22.2748 14.0625 22.1556 14.0625 22.0312V18.2812C14.0625 18.1569 14.0131 18.0377 13.9252 17.9498C13.8373 17.8619 13.7181 17.8125 13.5938 17.8125Z" fill="#333333"/>
<path d="M16.4062 22.5C16.5306 22.5 16.6498 22.4506 16.7377 22.3627C16.8256 22.2748 16.875 22.1556 16.875 22.0312V18.2812C16.875 18.1569 16.8256 18.0377 16.7377 17.9498C16.6498 17.8619 16.5306 17.8125 16.4062 17.8125C16.2819 17.8125 16.1627 17.8619 16.0748 17.9498C15.9869 18.0377 15.9375 18.1569 15.9375 18.2812V22.0312C15.9375 22.1556 15.9869 22.2748 16.0748 22.3627C16.1627 22.4506 16.2819 22.5 16.4062 22.5Z" fill="#333333"/>
<path d="M24.8438 14.5312H18.2812V13.125C18.2812 13.0007 18.2319 12.8815 18.144 12.7935C18.056 12.7056 17.9368 12.6562 17.8125 12.6562H16.4062C16.2819 12.6562 16.1627 12.7056 16.0748 12.7935C15.9869 12.8815 15.9375 13.0007 15.9375 13.125V14.5312H15.4688V10.7812C15.4688 10.5326 15.5675 10.2942 15.7433 10.1183C15.9192 9.94252 16.1576 9.84375 16.4062 9.84375C16.6549 9.84375 16.8933 9.94252 17.0692 10.1183C17.245 10.2942 17.3438 10.5326 17.3438 10.7812V11.25C17.3438 11.3743 17.3931 11.4935 17.481 11.5815C17.569 11.6694 17.6882 11.7188 17.8125 11.7188C17.9368 11.7188 18.056 11.6694 18.144 11.5815C18.2319 11.4935 18.2812 11.3743 18.2812 11.25V10.7812C18.2812 10.284 18.0837 9.80706 17.7321 9.45543C17.3804 9.10379 16.9035 8.90625 16.4062 8.90625C15.909 8.90625 15.4321 9.10379 15.0804 9.45543C14.7288 9.80706 14.5312 10.284 14.5312 10.7812V14.5312H14.0625V13.125C14.0625 13.0007 14.0131 12.8815 13.9252 12.7935C13.8373 12.7056 13.7181 12.6562 13.5938 12.6562H12.1875C12.0632 12.6562 11.944 12.7056 11.856 12.7935C11.7681 12.8815 11.7188 13.0007 11.7188 13.125V14.5312H5.15625C5.03193 14.5312 4.9127 14.5806 4.82479 14.6685C4.73689 14.7565 4.6875 14.8757 4.6875 15V16.4062C4.6875 16.5306 4.73689 16.6498 4.82479 16.7377C4.9127 16.8256 5.03193 16.875 5.15625 16.875H6.09375V29.0625C6.09375 29.1868 6.14314 29.306 6.23104 29.394C6.31895 29.4819 6.43818 29.5312 6.5625 29.5312H8.4375C8.54203 29.5312 8.64355 29.4963 8.72594 29.4319C8.80832 29.3676 8.86684 29.2776 8.89219 29.1762L9.27246 27.6562H20.7275L21.1078 29.1762C21.1332 29.2776 21.1917 29.3676 21.2741 29.4319C21.3564 29.4963 21.458 29.5312 21.5625 29.5312H23.4375C23.5618 29.5312 23.681 29.4819 23.769 29.394C23.8569 29.306 23.9062 29.1868 23.9062 29.0625V16.875H24.8438C24.9681 16.875 25.0873 16.8256 25.1752 16.7377C25.2631 16.6498 25.3125 16.5306 25.3125 16.4062V15C25.3125 14.8757 25.2631 14.7565 25.1752 14.6685C25.0873 14.5806 24.9681 14.5312 24.8438 14.5312ZM16.875 13.5938H17.3438V14.5312H16.875V13.5938ZM12.6562 13.5938H13.125V14.5312H12.6562V13.5938ZM8.07129 28.5938H7.03125V27.6562H8.30566L8.07129 28.5938ZM14.5312 26.7188H7.03125V16.875H14.5312V26.7188ZM22.9688 28.5938H21.9287L21.6943 27.6562H22.9688V28.5938ZM22.9688 26.7188H15.4688V16.875H22.9688V26.7188ZM24.375 15.9375H5.625V15.4688H24.375V15.9375Z" fill="#333333"/>
<path d="M24.375 0.46875H5.625C5.50068 0.46875 5.38145 0.518136 5.29354 0.606044C5.20564 0.693951 5.15625 0.81318 5.15625 0.9375V5.625C5.15625 5.74932 5.20564 5.86855 5.29354 5.95646C5.38145 6.04436 5.50068 6.09375 5.625 6.09375H24.375C24.4993 6.09375 24.6185 6.04436 24.7065 5.95646C24.7944 5.86855 24.8438 5.74932 24.8438 5.625V0.9375C24.8438 0.81318 24.7944 0.693951 24.7065 0.606044C24.6185 0.518136 24.4993 0.46875 24.375 0.46875ZM14.5312 5.15625H6.09375V1.40625H14.5312V5.15625ZM23.9062 5.15625H15.4688V1.40625H23.9062V5.15625Z" fill="#333333"/>
<path d="M16.4062 4.21875C16.5306 4.21875 16.6498 4.16936 16.7377 4.08146C16.8256 3.99355 16.875 3.87432 16.875 3.75V2.8125C16.875 2.68818 16.8256 2.56895 16.7377 2.48104C16.6498 2.39314 16.5306 2.34375 16.4062 2.34375C16.2819 2.34375 16.1627 2.39314 16.0748 2.48104C15.9869 2.56895 15.9375 2.68818 15.9375 2.8125V3.75C15.9375 3.87432 15.9869 3.99355 16.0748 4.08146C16.1627 4.16936 16.2819 4.21875 16.4062 4.21875Z" fill="#333333"/>
<path d="M13.5938 2.34375C13.4694 2.34375 13.3502 2.39314 13.2623 2.48104C13.1744 2.56895 13.125 2.68818 13.125 2.8125V3.75C13.125 3.87432 13.1744 3.99355 13.2623 4.08146C13.3502 4.16936 13.4694 4.21875 13.5938 4.21875C13.7181 4.21875 13.8373 4.16936 13.9252 4.08146C14.0131 3.99355 14.0625 3.87432 14.0625 3.75V2.8125C14.0625 2.68818 14.0131 2.56895 13.9252 2.48104C13.8373 2.39314 13.7181 2.34375 13.5938 2.34375Z" fill="#333333"/>
</svg>
