<svg width="25" height="25" viewBox="0 0 25 25" fill="none" xmlns="http://www.w3.org/2000/svg">
<g clip-path="url(#clip0_1_5794)">
<path d="M23.8281 8.98537V7.42287C23.8281 6.99201 23.4641 6.64162 23.0168 6.64162H22.9773C23.0187 6.38498 23.0469 6.12521 23.0469 5.86037C23.0469 3.70646 21.6449 1.95412 19.9219 1.95412C19.3645 1.95412 18.8289 2.13615 18.3551 2.47951C17.8957 2.14748 17.3645 1.95412 16.7969 1.95412C15.0738 1.95412 13.6719 3.70646 13.6719 5.86037C13.6719 6.12521 13.7 6.38498 13.7414 6.64162H12.8906V3.51662C12.8906 2.61975 12.5031 1.76467 11.8273 1.17014C11.1523 0.576777 10.2504 0.301387 9.35547 0.418183C7.80742 0.617012 6.64062 1.99006 6.64062 3.61193V4.29787C6.64062 4.72873 6.99102 5.07912 7.42188 5.07912H8.20312C8.63398 5.07912 8.98438 4.72873 8.98438 4.29787V3.51662C8.98438 3.28264 9.08867 3.06311 9.26953 2.9135C9.45312 2.76232 9.68555 2.7049 9.92461 2.75061C10.2793 2.81975 10.5469 3.16896 10.5469 3.56271V7.24318C10.1316 6.87053 9.58516 6.64162 8.98438 6.64162C8.83047 6.64162 8.67773 6.65685 8.52617 6.68693C8.02344 5.92912 7.17773 5.46975 6.25 5.46975C5.32227 5.46975 4.47656 5.92912 3.97383 6.68693C3.82227 6.65685 3.66953 6.64162 3.51562 6.64162C3.49102 6.64162 3.46719 6.64475 3.44258 6.64514C3.48711 6.5217 3.51562 6.39006 3.51562 6.251C3.51562 5.6049 2.98984 5.07912 2.34375 5.07912C1.69766 5.07912 1.17188 5.6049 1.17188 6.251C1.17188 6.72795 1.45898 7.13732 1.86875 7.32014C1.43906 7.74514 1.17188 8.33459 1.17188 8.98537C0.741016 8.98537 0.390625 9.33576 0.390625 9.76662V11.3291C0.390625 11.76 0.741016 12.1104 1.17188 12.1104V23.8291C1.17188 24.26 1.52227 24.6104 1.95312 24.6104H2.73438C3.16523 24.6104 3.51562 24.26 3.51562 23.8291V22.2666H21.4844V23.8291C21.4844 24.26 21.8348 24.6104 22.2656 24.6104H23.0469C23.4777 24.6104 23.8281 24.26 23.8281 23.8291V12.1104C24.259 12.1104 24.6094 11.76 24.6094 11.3291V9.76662C24.6094 9.33576 24.259 8.98537 23.8281 8.98537ZM2.34375 5.86037C2.55938 5.86037 2.73438 6.03576 2.73438 6.251C2.73438 6.46623 2.55938 6.64162 2.34375 6.64162C2.12812 6.64162 1.95312 6.46623 1.95312 6.251C1.95312 6.03576 2.12812 5.86037 2.34375 5.86037ZM22.2656 5.86037C22.2656 6.12678 22.2316 6.38654 22.182 6.64162H21.3879C21.4492 6.39162 21.4844 6.12912 21.4844 5.86037C21.4844 4.59006 20.7687 3.51662 19.9219 3.51662C19.7391 3.51662 19.5574 3.57248 19.3844 3.67248C19.2563 3.43654 19.1062 3.2217 18.941 3.02639C19.2473 2.83615 19.5805 2.73537 19.9219 2.73537C21.2145 2.73537 22.2656 4.13732 22.2656 5.86037ZM19.6945 4.4049C19.7863 4.33107 19.8676 4.29787 19.9219 4.29787C20.1902 4.29787 20.7031 4.90646 20.7031 5.86037C20.7031 6.13576 20.6598 6.40139 20.5777 6.64162H19.8523C19.8937 6.38498 19.9219 6.12521 19.9219 5.86037C19.9219 5.34553 19.8398 4.85529 19.6945 4.4049ZM14.4531 5.86037C14.4531 4.13732 15.5043 2.73537 16.7969 2.73537C18.0895 2.73537 19.1406 4.13732 19.1406 5.86037C19.1406 6.12678 19.1066 6.38654 19.057 6.64162H18.2629C18.3242 6.39162 18.3594 6.12912 18.3594 5.86037C18.3594 4.59006 17.6437 3.51662 16.7969 3.51662C15.95 3.51662 15.2344 4.59006 15.2344 5.86037C15.2344 6.12912 15.2695 6.39162 15.3309 6.64162H14.5367C14.4871 6.38654 14.4531 6.12678 14.4531 5.86037ZM16.141 6.64162C16.059 6.40139 16.0156 6.13576 16.0156 5.86037C16.0156 4.90646 16.5285 4.29787 16.7969 4.29787C17.0652 4.29787 17.5781 4.90646 17.5781 5.86037C17.5781 6.13576 17.5348 6.40139 17.4527 6.64162H16.141ZM23.0469 7.42287V8.98537H12.8906V7.42287H23.0469ZM11.3281 7.42287H12.1094V8.98537H11.3281V7.42287ZM10.0734 1.9842C9.60859 1.89357 9.13398 2.01311 8.77266 2.31076C8.41055 2.6092 8.20312 3.04865 8.20312 3.51662V4.29787H7.42188V3.61193C7.42188 2.38186 8.2957 1.34162 9.45508 1.19279C10.1355 1.10412 10.798 1.3049 11.3117 1.75686C11.8187 2.20295 12.1094 2.84436 12.1094 3.51662V6.64162H11.3281V3.56271C11.3281 2.78928 10.8004 2.12521 10.0734 1.9842ZM3.51562 7.42287C3.68984 7.42287 3.86406 7.45256 4.03281 7.51076L4.3543 7.6217L4.50859 7.31818C4.84258 6.65998 5.50977 6.251 6.25 6.251C6.99023 6.251 7.65742 6.65998 7.99141 7.31818L8.1457 7.6217L8.46719 7.51076C8.63594 7.45256 8.81016 7.42287 8.98438 7.42287C9.84609 7.42287 10.5469 8.12365 10.5469 8.98537H1.95312C1.95312 8.12365 2.65391 7.42287 3.51562 7.42287ZM1.95312 23.8291V12.1104H2.73438V23.8291H1.95312ZM3.51562 15.4522C3.99805 15.8115 4.59062 16.0166 5.20547 16.0166H5.85938V16.4072C5.85938 16.9158 6.18711 17.3455 6.64062 17.5072V19.9229H3.51562V15.4522ZM8.59375 16.7979H7.03125C6.81562 16.7979 6.64062 16.6225 6.64062 16.4072V16.0166H8.98438V16.4072C8.98438 16.6225 8.80937 16.7979 8.59375 16.7979ZM7.42188 17.5791H8.20312V19.9229H7.42188V17.5791ZM8.98438 17.5072C9.43789 17.3455 9.76562 16.9158 9.76562 16.4072V15.9936C11.5207 15.7983 12.8906 14.3072 12.8906 12.501V12.1104H21.4844V19.9229H8.98438V17.5072ZM12.1094 12.501C12.1094 14.0088 10.8824 15.2354 9.375 15.2354H5.20547C4.52891 15.2354 3.89258 14.8901 3.51562 14.3322V12.1104H12.1094V12.501ZM3.51562 21.4854V20.7041H21.4844V21.4854H3.51562ZM23.0469 23.8291H22.2656V12.1104H23.0469V23.8291ZM1.17188 11.3291V9.76662H10.5469H12.8906H23.8281L23.8285 11.3291H1.17188Z" fill="#333333"/>
</g>
<defs>
<clipPath id="clip0_1_5794">
<rect width="25" height="25" fill="white"/>
</clipPath>
</defs>
</svg>
