<svg width="27" height="28" viewBox="0 0 27 28" fill="none" xmlns="http://www.w3.org/2000/svg">
<path d="M22.5004 0H4.50039C3.75486 0 3.15039 0.626855 3.15039 1.4V26.6C3.15039 27.3731 3.75486 28 4.50039 28H22.5004C23.2459 28 23.8504 27.3731 23.8504 26.6V1.4C23.8504 0.626855 23.2459 0 22.5004 0ZM22.9504 26.6C22.9504 26.8577 22.7489 27.0667 22.5004 27.0667H4.50039C4.25188 27.0667 4.05039 26.8577 4.05039 26.6V1.4C4.05039 1.14229 4.25188 0.933333 4.50039 0.933333H22.5004C22.7489 0.933333 22.9504 1.14229 22.9504 1.4V26.6Z" fill="#333333"/>
<path d="M21.5992 1.8667H5.39922C5.15071 1.8667 4.94922 2.07565 4.94922 2.33337V25.6667C4.94922 25.9244 5.15071 26.1334 5.39922 26.1334H21.5992C21.8477 26.1334 22.0492 25.9244 22.0492 25.6667V2.33337C22.0492 2.07565 21.8477 1.8667 21.5992 1.8667ZM21.1492 25.2H5.84922V2.80003H21.1492V25.2Z" fill="#333333"/>
<path d="M7.18416 8.08685C7.30348 8.08685 7.41795 8.03763 7.50233 7.95013L10.6848 4.64974C10.8017 4.53261 10.8488 4.35921 10.8075 4.19606C10.7664 4.03291 10.6435 3.9053 10.486 3.86269C10.3287 3.81985 10.1615 3.86862 10.0485 3.98984L6.866 7.29023C6.73746 7.42376 6.69901 7.62428 6.76866 7.7986C6.8381 7.97314 7.00223 8.08685 7.18416 8.08685Z" fill="#333333"/>
<path d="M16.3153 24.2834C16.491 24.4655 16.7758 24.4655 16.9516 24.2834L20.1341 20.983C20.3046 20.8 20.3022 20.5088 20.1286 20.3288C19.955 20.1488 19.6742 20.1463 19.4978 20.3231L16.3153 23.6235C16.1397 23.8058 16.1397 24.1011 16.3153 24.2834Z" fill="#333333"/>
<path d="M8.68245 18.9965C8.85823 19.1786 9.143 19.1786 9.31878 18.9965L18.3188 9.66319C18.4893 9.47999 18.4869 9.18901 18.3133 9.00899C18.1397 8.82898 17.8591 8.82647 17.6825 9.0033L8.68245 18.3366C8.50689 18.5189 8.50689 18.8142 8.68245 18.9965Z" fill="#333333"/>
</svg>
