<svg width="30" height="30" viewBox="0 0 30 30" fill="none" xmlns="http://www.w3.org/2000/svg">
<g clip-path="url(#clip0_1_5764)">
<path d="M20.1074 21.7608C20.1074 21.5181 19.9107 21.3213 19.668 21.3213C19.2618 21.3213 7.48522 21.3213 7.07031 21.3213C6.98957 21.3213 6.92383 21.2556 6.92383 21.1748V18.6837C6.92383 17.0783 7.39369 15.5275 8.28256 14.199C8.4175 13.9972 8.36342 13.7243 8.16168 13.5894C7.96 13.4545 7.68701 13.5085 7.55207 13.7102C6.56605 15.1839 6.04492 16.9037 6.04492 18.6837V21.1748C6.04492 21.7402 6.50494 22.2002 7.07031 22.2002H11.4655C11.823 23.8449 13.2776 25.0414 14.9993 25.0414C16.7211 25.0414 18.1757 23.8449 18.5331 22.2002H19.668C19.9107 22.2002 20.1074 22.0035 20.1074 21.7608ZM14.9993 24.1625C13.7623 24.1625 12.7069 23.3472 12.3712 22.2002H17.6274C17.2918 23.3472 16.2364 24.1625 14.9993 24.1625Z" fill="#333333"/>
<path d="M21.0221 12.0572C21.022 12.0572 21.0219 12.0571 21.0218 12.057C20.0136 11.1404 18.8232 10.4757 17.5407 10.0968V8.94656C17.5407 8.1092 16.8595 7.42799 16.0222 7.42799H15.439V0.439453C15.439 0.196758 15.2423 0 14.9996 0C14.7569 0 14.5601 0.196758 14.5601 0.439453V7.42799H13.977C13.1396 7.42799 12.4584 8.1092 12.4584 8.94656V10.0966C11.1656 10.4785 9.96679 11.1507 8.95318 12.0791C8.77423 12.243 8.76199 12.521 8.92593 12.7C9.08988 12.879 9.36785 12.8912 9.54685 12.7273C12.6291 9.9041 17.3505 9.90756 20.4296 12.7065C20.4299 12.7068 20.4302 12.707 20.4305 12.7073C22.1112 14.2355 23.0751 16.4139 23.0751 18.6839V21.175C23.0751 21.2558 23.0093 21.3215 22.9286 21.3215H21.719C21.4763 21.3215 21.2795 21.5183 21.2795 21.761C21.2795 22.0037 21.4763 22.2004 21.719 22.2004H22.9286C23.494 22.2004 23.954 21.7404 23.954 21.175V18.6839C23.954 16.167 22.8853 13.7516 21.0221 12.0572ZM16.6618 9.88389C15.6076 9.68596 14.4748 9.67031 13.3373 9.88389V8.94656C13.3373 8.59383 13.6243 8.30689 13.977 8.30689H16.0222C16.3749 8.30689 16.6618 8.59383 16.6618 8.94656V9.88389Z" fill="#333333"/>
<path d="M15 26.4817C14.7573 26.4817 14.5605 26.6784 14.5605 26.9211V29.5605C14.5605 29.8032 14.7573 30 15 30C15.2427 30 15.4395 29.8032 15.4395 29.5605V26.9211C15.4395 26.6784 15.2427 26.4817 15 26.4817Z" fill="#333333"/>
<path d="M20.0492 24.8593C19.8777 24.6876 19.5994 24.6875 19.4277 24.859C19.256 25.0306 19.2558 25.3088 19.4274 25.4805L21.2918 27.3469C21.4632 27.5184 21.7415 27.5188 21.9134 27.3472C22.085 27.1756 22.0852 26.8974 21.9136 26.7257L20.0492 24.8593Z" fill="#333333"/>
<path d="M9.95003 24.8593L8.08558 26.7257C7.91408 26.8974 7.91419 27.1756 8.08587 27.3472C8.25755 27.5186 8.5357 27.5186 8.70738 27.3469L10.5718 25.4805C10.7433 25.3088 10.7432 25.0306 10.5715 24.859C10.3999 24.6875 10.1216 24.6876 9.95003 24.8593Z" fill="#333333"/>
</g>
<defs>
<clipPath id="clip0_1_5764">
<rect width="30" height="30" fill="white"/>
</clipPath>
</defs>
</svg>
