<svg width="30" height="30" viewBox="0 0 30 30" fill="none" xmlns="http://www.w3.org/2000/svg">
<g clip-path="url(#clip0_1_5892)">
<path d="M29.5312 10.7808H26.6217C26.6737 10.6341 26.708 10.478 26.708 10.313V6.09467C26.708 5.31944 26.077 4.68842 25.3017 4.68842H24.833V3.28217H25.5759L25.9064 3.61267C25.9978 3.70399 26.1177 3.75 26.2379 3.75C26.3578 3.75 26.4777 3.70399 26.5693 3.61267C26.7524 3.42934 26.7524 3.13316 26.5693 2.94983L26.1019 2.48245C26.0587 2.43896 26.0067 2.40463 25.949 2.38083C25.8918 2.3568 25.8309 2.34467 25.77 2.34467H24.3736C24.3704 2.34467 24.3674 2.34283 24.3642 2.34283C24.361 2.34283 24.3581 2.34467 24.3549 2.34467H22.9669C22.9635 2.34467 22.9607 2.34283 22.9575 2.34283C22.9543 2.34283 22.9514 2.34467 22.9482 2.34467H22.0196C21.7603 2.34467 21.5508 2.55432 21.5508 2.81342C21.5508 3.07274 21.7603 3.28217 22.0196 3.28217H22.4888V4.68842H22.0196C21.2441 4.68842 20.6133 5.31944 20.6133 6.09467V10.313C20.6133 10.478 20.647 10.6341 20.6996 10.7808H18.1874C18.2401 10.6336 18.2742 10.4766 18.2742 10.3111V7.50137C18.2742 6.72615 17.6434 6.09512 16.8679 6.09512V4.22012C16.8679 3.96103 16.6585 3.75137 16.3992 3.75137H13.5862C13.3271 3.75137 13.1174 3.96103 13.1174 4.22012V6.09512C12.3422 6.09558 11.7117 6.72615 11.7117 7.50137V10.3111C11.7117 10.4766 11.7455 10.6336 11.7984 10.7808H9.28917C9.34181 10.6336 9.37592 10.4771 9.37592 10.3111V5.62454C9.37592 5.56366 9.36378 5.50255 9.33975 5.44556C9.31595 5.38788 9.28162 5.33569 9.23813 5.29266L7.97012 4.02466V3.00613L8.57666 3.61267C8.66776 3.70399 8.78769 3.75 8.90762 3.75C9.02756 3.75 9.14772 3.70399 9.23904 3.61267C9.42238 3.42934 9.42238 3.13316 9.23904 2.94983L8.63297 2.34375H9.84467C10.104 2.34375 10.3134 2.13432 10.3134 1.875V0.46875C10.3134 0.209427 10.104 0 9.84467 0H3.75137C3.49228 0 3.28262 0.209427 3.28262 0.46875C3.28262 0.728073 3.49228 0.9375 3.75137 0.9375H4.22012V4.0242L2.95166 5.29266C2.90817 5.33569 2.87384 5.38788 2.85004 5.44556C2.826 5.50255 2.81387 5.56366 2.81387 5.62454V10.3111C2.81387 10.4766 2.84775 10.6336 2.90062 10.7808H0.46875C0.209427 10.7808 0 10.9902 0 11.2495V12.6558C0 12.9149 0.209427 13.1245 0.46875 13.1245V29.5312C0.46875 29.7906 0.678177 30 0.9375 30H29.0625C29.3218 30 29.5312 29.7906 29.5312 29.5312V13.1245C29.7906 13.1245 30 12.9149 30 12.6558V11.2495C30 10.9902 29.7906 10.7808 29.5312 10.7808ZM8.90717 0.9375H9.37592V1.40625H8.90717V0.9375ZM23.4267 3.28217H23.8955V4.68842H23.4267V3.28217ZM21.5513 6.09467C21.5513 5.83603 21.7612 5.62592 22.02 5.62592H25.3017C25.5604 5.62592 25.7705 5.83603 25.7705 6.09467V10.313C25.7705 10.5698 25.5629 10.778 25.3063 10.7808H22.0152C21.7589 10.778 21.5513 10.5698 21.5513 10.313V6.09467ZM14.0545 4.68887H15.9299V6.09512H14.0545V4.68887ZM12.6487 7.50137C12.6487 7.24274 12.8588 7.03262 13.1174 7.03262H16.8674C17.1263 7.03262 17.3362 7.24274 17.3362 7.50137V10.3111C17.3362 10.5702 17.1259 10.7808 16.8665 10.7808H13.1184C12.8593 10.7808 12.6487 10.5702 12.6487 10.3111V7.50137ZM5.15762 0.9375H7.96967V1.49345C7.77191 1.56372 7.59224 1.67244 7.44713 1.81732C7.44667 1.81824 7.44553 1.81824 7.44507 1.8187C7.44507 1.81915 7.44461 1.81915 7.44461 1.81961C7.29836 1.96541 7.18964 2.14554 7.11891 2.34375H5.15762V0.9375ZM5.15762 3.28125H7.03217V3.74954H5.15762V3.28125ZM3.75137 5.81863L4.88297 4.68704H7.30637L8.43796 5.81863V10.3111C8.43796 10.5693 8.22853 10.779 7.97012 10.779C7.96692 10.779 7.96417 10.7808 7.96074 10.7808H4.22104C3.96194 10.7808 3.75137 10.5702 3.75137 10.3111V5.81863ZM14.5237 29.0625H1.40625V13.1245H14.5237V29.0625ZM28.5938 29.0625H15.4612V13.1245H28.5938V29.0625ZM29.0625 12.187H0.9375V11.7183H22.0107C22.0139 11.7183 22.0168 11.7192 22.02 11.7192H25.3017C25.3049 11.7192 25.3079 11.7183 25.3111 11.7183H29.0625V12.187Z" fill="#333333"/>
<path d="M13.125 22.9679C13.3843 22.9679 13.5938 22.7582 13.5938 22.4991V19.688C13.5938 19.4289 13.3843 19.2192 13.125 19.2192C12.8657 19.2192 12.6562 19.4289 12.6562 19.688V22.4991C12.6562 22.7582 12.8657 22.9679 13.125 22.9679Z" fill="#333333"/>
<path d="M16.875 22.9679C17.1343 22.9679 17.3438 22.7582 17.3438 22.4991V19.688C17.3438 19.4289 17.1343 19.2192 16.875 19.2192C16.6157 19.2192 16.4062 19.4289 16.4062 19.688V22.4991C16.4062 22.7582 16.6157 22.9679 16.875 22.9679Z" fill="#333333"/>
<path d="M23.6543 9.37598C24.3007 9.37598 24.8262 8.85046 24.8262 8.2041C24.8262 7.55774 24.3007 7.03223 23.6543 7.03223C23.0079 7.03223 22.4824 7.55774 22.4824 8.2041C22.4824 8.85046 23.0079 9.37598 23.6543 9.37598ZM23.6543 7.96973C23.7832 7.96973 23.8887 8.07524 23.8887 8.2041C23.8887 8.33296 23.7832 8.43848 23.6543 8.43848C23.5254 8.43848 23.4199 8.33296 23.4199 8.2041C23.4199 8.07524 23.5254 7.96973 23.6543 7.96973Z" fill="#333333"/>
</g>
<defs>
<clipPath id="clip0_1_5892">
<rect width="30" height="30" fill="white"/>
</clipPath>
</defs>
</svg>
