<svg width="30" height="30" viewBox="0 0 30 30" fill="none" xmlns="http://www.w3.org/2000/svg">
<path d="M13.5927 13.593C13.4448 13.593 13.303 13.6518 13.1985 13.7563C13.0939 13.8609 13.0352 14.0027 13.0352 14.1505V18.6108C13.0352 18.7586 13.0939 18.9004 13.1985 19.005C13.303 19.1096 13.4448 19.1683 13.5927 19.1683C13.7406 19.1683 13.8824 19.1096 13.9869 19.005C14.0915 18.9004 14.1502 18.7586 14.1502 18.6108V14.1505C14.1502 14.0027 14.0915 13.8609 13.9869 13.7563C13.8824 13.6518 13.7406 13.593 13.5927 13.593Z" fill="#333333"/>
<path d="M16.9384 19.1683C17.0863 19.1683 17.2281 19.1096 17.3326 19.005C17.4372 18.9004 17.4959 18.7586 17.4959 18.6108V14.1505C17.4959 14.0027 17.4372 13.8609 17.3326 13.7563C17.2281 13.6518 17.0863 13.593 16.9384 13.593C16.7905 13.593 16.6487 13.6518 16.5442 13.7563C16.4396 13.8609 16.3809 14.0027 16.3809 14.1505V18.6108C16.3809 18.7586 16.4396 18.9004 16.5442 19.005C16.6487 19.1096 16.7905 19.1683 16.9384 19.1683Z" fill="#333333"/>
<path d="M26.9737 9.69034H19.1683V8.01776C19.1683 7.86989 19.1096 7.72808 19.005 7.62352C18.9005 7.51897 18.7587 7.46023 18.6108 7.46023H16.9382C16.7903 7.46023 16.6485 7.51897 16.544 7.62352C16.4394 7.72808 16.3807 7.86989 16.3807 8.01776V9.69034H15.8232V5.23011C15.8232 4.93438 15.9406 4.65076 16.1497 4.44165C16.3589 4.23254 16.6425 4.11506 16.9382 4.11506C17.2339 4.11506 17.5176 4.23254 17.7267 4.44165C17.9358 4.65076 18.0533 4.93438 18.0533 5.23011V5.78764C18.0533 5.93551 18.112 6.07732 18.2166 6.18187C18.3211 6.28643 18.4629 6.34517 18.6108 6.34517C18.7587 6.34517 18.9005 6.28643 19.005 6.18187C19.1096 6.07732 19.1683 5.93551 19.1683 5.78764V5.23011C19.1683 4.63865 18.9334 4.07141 18.5151 3.65319C18.0969 3.23496 17.5297 3 16.9382 3C16.3467 3 15.7795 3.23496 15.3613 3.65319C14.9431 4.07141 14.7081 4.63865 14.7081 5.23011V9.69034H14.1506V8.01776C14.1506 7.86989 14.0918 7.72808 13.9873 7.62352C13.8827 7.51897 13.7409 7.46023 13.593 7.46023H11.9205C11.7726 7.46023 11.6308 7.51897 11.5262 7.62352C11.4217 7.72808 11.3629 7.86989 11.3629 8.01776V9.69034H3.55753C3.40966 9.69034 3.26785 9.74908 3.1633 9.85364C3.05874 9.95819 3 10.1 3 10.2479V11.9205C3 12.0683 3.05874 12.2101 3.1633 12.3147C3.26785 12.4192 3.40966 12.478 3.55753 12.478H4.67259V26.9737C4.67259 27.1216 4.73132 27.2634 4.83588 27.368C4.94044 27.4725 5.08225 27.5313 5.23011 27.5313H7.46023C7.58455 27.5312 7.70531 27.4897 7.80329 27.4131C7.90128 27.3366 7.97088 27.2295 8.00103 27.1089L8.45332 25.3011H22.0779L22.5302 27.1089C22.5604 27.2295 22.63 27.3366 22.728 27.4131C22.8259 27.4897 22.9467 27.5312 23.071 27.5313H25.3011C25.449 27.5313 25.5908 27.4725 25.6954 27.368C25.7999 27.2634 25.8587 27.1216 25.8587 26.9737V12.478H26.9737C27.1216 12.478 27.2634 12.4192 27.368 12.3147C27.4725 12.2101 27.5313 12.0683 27.5313 11.9205V10.2479C27.5313 10.1 27.4725 9.95819 27.368 9.85364C27.2634 9.74908 27.1216 9.69034 26.9737 9.69034ZM17.4957 8.57528H18.0533V9.69034H17.4957V8.57528ZM12.478 8.57528H13.0355V9.69034H12.478V8.57528ZM7.02466 26.4162H5.78764V25.3011H7.30342L7.02466 26.4162ZM14.7081 24.1861H5.78764V12.478H14.7081V24.1861ZM24.7436 26.4162H23.5066L23.2278 25.3011H24.7436V26.4162ZM24.7436 24.1861H15.8232V12.478H24.7436V24.1861ZM26.4162 11.3629H4.11506V10.8054H26.4162V11.3629Z" fill="#333333"/>
</svg>
