<svg width="30" height="30" viewBox="0 0 30 30" fill="none" xmlns="http://www.w3.org/2000/svg">
<path d="M28.1535 0H8.49305C8.25035 0 8.05359 0.196758 8.05359 0.439453C8.05359 0.682148 8.25035 0.878906 8.49305 0.878906H28.0672V2.57613H1.93359V0.878906H6.73523C6.97793 0.878906 7.17469 0.682148 7.17469 0.439453C7.17469 0.196758 6.97793 0 6.73523 0H1.84729C1.41029 0 1.05469 0.355547 1.05469 0.792539V2.66244C1.05469 3.0801 1.37971 3.42258 1.78998 3.45211V28.7385C1.78998 29.4341 2.35588 30 3.0515 30H21.8015C22.0442 30 22.241 29.8032 22.241 29.5605C22.241 29.3179 22.0442 29.1211 21.8015 29.1211H17.547V21.8793H27.3319V28.7385C27.3319 28.9495 27.1603 29.1211 26.9493 29.1211H23.5593C23.3166 29.1211 23.1199 29.3179 23.1199 29.5605C23.1199 29.8032 23.3166 30 23.5593 30H26.9493C27.6449 30 28.2108 29.4341 28.2108 28.7385V3.45211C28.6211 3.42258 28.9461 3.0801 28.9461 2.66244V0.792539C28.9461 0.355547 28.5905 0 28.1535 0V0ZM19.5744 17.51V15.8601H25.3045V17.51C25.3045 18.2476 24.7044 18.8477 23.9667 18.8477H20.9121C20.1745 18.8477 19.5744 18.2476 19.5744 17.51ZM25.3751 14.9812H19.5038C19.0581 14.9812 18.6955 15.3438 18.6955 15.7895V17.51C18.6955 18.0926 18.9219 18.6232 19.2908 19.0192H17.5471V11.6278H27.3319V19.0192H25.5882C25.9571 18.6232 26.1834 18.0926 26.1834 17.51V15.7895C26.1834 15.3438 25.8208 14.9812 25.3751 14.9812ZM27.3319 9.64664V10.7488H17.547V9.64664H27.3319ZM19.9483 8.76773L20.4606 5.51303H21.0679L21.5803 8.76773H19.9483ZM24.0734 8.76773L24.5857 5.51303H25.1929L25.7053 8.76773H24.0734ZM27.3319 8.76773H26.595L26.06 5.36959C25.9929 4.94344 25.6312 4.63412 25.1998 4.63412H24.5788C24.1474 4.63412 23.7856 4.94344 23.7186 5.36959L23.1837 8.76773H22.4699L21.935 5.36959C21.8679 4.94344 21.5061 4.63412 21.0747 4.63412H20.4538C20.0224 4.63412 19.6605 4.94344 19.5935 5.36959L19.0586 8.76773H17.5471V3.45504H27.3319V8.76773H27.3319ZM2.66895 28.7385V3.45504H4.1366V29.1211H3.05156C2.84057 29.1211 2.66895 28.9495 2.66895 28.7385ZM5.01551 29.1211V3.45504H16.6682V29.1211H5.01551ZM17.547 21.0004V19.8981H27.3319V21.0004H17.547Z" fill="#333333"/>
<path d="M14.4727 13.0894C14.23 13.0894 14.0332 13.2861 14.0332 13.5288V17.8754C14.0332 18.1181 14.23 18.3149 14.4727 18.3149C14.7154 18.3149 14.9121 18.1181 14.9121 17.8754V13.5288C14.9121 13.2861 14.7154 13.0894 14.4727 13.0894Z" fill="#333333"/>
</svg>
