<svg width="30" height="30" viewBox="0 0 30 30" fill="none" xmlns="http://www.w3.org/2000/svg">
<path d="M24.3309 1.11328H5.66992C5.56114 1.11328 5.45682 1.15649 5.3799 1.23341C5.30298 1.31033 5.25977 1.41466 5.25977 1.52344V27.0703C5.25977 27.1791 5.30298 27.2834 5.3799 27.3603C5.45682 27.4373 5.56114 27.4805 5.66992 27.4805H7.50039L7.83859 28.5956C7.86414 28.6798 7.9161 28.7536 7.98679 28.806C8.05749 28.8584 8.14316 28.8867 8.23117 28.8867H10.2984C10.4071 28.8867 10.5115 28.8435 10.5884 28.7666C10.6653 28.6897 10.7085 28.5853 10.7085 28.4766V27.4805H19.2918V28.4766C19.2918 28.5853 19.335 28.6897 19.4119 28.7666C19.4888 28.8435 19.5932 28.8867 19.702 28.8867H21.7691C21.8571 28.8867 21.9428 28.8584 22.0135 28.806C22.0842 28.7536 22.1362 28.6798 22.1617 28.5956L22.5004 27.4805H24.3313C24.4401 27.4805 24.5444 27.4373 24.6214 27.3603C24.6983 27.2834 24.7415 27.1791 24.7415 27.0703V1.52344C24.7415 1.46954 24.7309 1.41616 24.7102 1.36637C24.6896 1.31658 24.6593 1.27134 24.6212 1.23325C24.583 1.19516 24.5378 1.16495 24.488 1.14437C24.4381 1.12378 24.3848 1.11322 24.3309 1.11328ZM23.9207 7.16016H15.4105V1.93359H23.9207V7.16016ZM6.08008 1.93359H14.5902V7.16016H6.08008V1.93359ZM6.08008 7.98047H14.5902V26.6602H6.08008V7.98047ZM9.88867 28.0664H8.53586L8.3582 27.4805H9.88867V28.0664ZM21.4649 28.0664H20.1121V27.4805H21.6426L21.4649 28.0664ZM15.4105 26.6602V7.98047H23.9207V26.6602H15.4105Z" fill="#333333"/>
<path d="M12.8906 3.43359C12.7819 3.43366 12.6776 3.47689 12.6007 3.55379C12.5238 3.6307 12.4805 3.73499 12.4805 3.84375V5.25C12.4805 5.30386 12.4911 5.3572 12.5117 5.40696C12.5323 5.45672 12.5625 5.50194 12.6006 5.54002C12.6387 5.57811 12.6839 5.60832 12.7337 5.62893C12.7834 5.64955 12.8368 5.66015 12.8906 5.66015C12.9445 5.66015 12.9978 5.64955 13.0476 5.62893C13.0973 5.60832 13.1426 5.57811 13.1806 5.54002C13.2187 5.50194 13.2489 5.45672 13.2696 5.40696C13.2902 5.3572 13.3008 5.30386 13.3008 5.25V3.84375C13.3007 3.73499 13.2575 3.6307 13.1806 3.55379C13.1037 3.47689 12.9994 3.43366 12.8906 3.43359Z" fill="#333333"/>
<path d="M17.1094 5.66015C17.2182 5.66015 17.3225 5.61694 17.3994 5.54002C17.4763 5.4631 17.5195 5.35878 17.5195 5.25V3.84375C17.5195 3.73497 17.4763 3.63064 17.3994 3.55373C17.3225 3.47681 17.2182 3.43359 17.1094 3.43359C17.0006 3.43359 16.8963 3.47681 16.8194 3.55373C16.7424 3.63064 16.6992 3.73497 16.6992 3.84375V5.25C16.6992 5.35878 16.7424 5.4631 16.8194 5.54002C16.8963 5.61694 17.0006 5.66015 17.1094 5.66015Z" fill="#333333"/>
<path d="M12.8906 18.7564C12.9994 18.7564 13.1037 18.7132 13.1806 18.6363C13.2576 18.5593 13.3008 18.455 13.3008 18.3462V14.4685C13.3008 14.3597 13.2576 14.2554 13.1806 14.1785C13.1037 14.1016 12.9994 14.0583 12.8906 14.0583C12.7818 14.0583 12.6775 14.1016 12.6006 14.1785C12.5237 14.2554 12.4805 14.3597 12.4805 14.4685V18.3462C12.4805 18.455 12.5237 18.5593 12.6006 18.6363C12.6775 18.7132 12.7818 18.7564 12.8906 18.7564Z" fill="#333333"/>
<path d="M17.1094 14.0583C17.0006 14.0584 16.8963 14.1016 16.8194 14.1786C16.7425 14.2555 16.6993 14.3597 16.6992 14.4685V18.3462C16.6992 18.455 16.7424 18.5593 16.8194 18.6363C16.8963 18.7132 17.0006 18.7564 17.1094 18.7564C17.2182 18.7564 17.3225 18.7132 17.3994 18.6363C17.4763 18.5593 17.5195 18.455 17.5195 18.3462V14.4685C17.5195 14.3597 17.4762 14.2555 17.3993 14.1786C17.3224 14.1016 17.2181 14.0584 17.1094 14.0583Z" fill="#333333"/>
</svg>
