<svg width="31" height="31" viewBox="0 0 31 31" fill="none" xmlns="http://www.w3.org/2000/svg">
<g clip-path="url(#clip0_1_5870)">
<path d="M28.3556 8.48869C28.6064 8.48869 28.8097 8.28545 28.8097 8.03462V2.95979C28.8097 1.32775 27.4818 0 25.8499 0H5.15114C3.51916 0 2.19141 1.32775 2.19141 2.95979V28.0401C2.19141 29.6722 3.51916 31 5.1512 31H25.8499C27.482 31 28.8097 29.6722 28.8097 28.0401V9.96968C28.8097 9.71885 28.6064 9.51561 28.3557 9.51561C28.1049 9.51561 27.9016 9.71885 27.9016 9.96968V23.1172H23.8632C23.6124 23.1172 23.4091 23.3204 23.4091 23.5712C23.4091 23.822 23.6124 24.0253 23.8632 24.0253H27.9016V28.0194H3.09954V24.0253H7.13795C7.38872 24.0253 7.59202 23.822 7.59202 23.5712C7.59202 23.3204 7.38872 23.1172 7.13795 23.1172H3.09954V6.64203H5.35268C5.60345 6.64203 5.80675 6.43879 5.80675 6.18796C5.80675 5.93714 5.60345 5.7339 5.35268 5.7339H3.09954V2.95979C3.09954 1.8285 4.0199 0.908134 5.15114 0.908134H25.8499C26.9812 0.908134 27.9015 1.8285 27.9015 2.95979V5.7339H7.28773C7.03697 5.7339 6.83367 5.93714 6.83367 6.18796C6.83367 6.43879 7.03697 6.64203 7.28773 6.64203H27.9015V8.03462C27.9015 8.28545 28.1048 8.48869 28.3556 8.48869ZM25.8499 30.0919H5.15114C4.33751 30.0919 3.63298 29.6158 3.30151 28.9275H27.6995C27.368 29.6158 26.6635 30.0919 25.8499 30.0919Z" fill="#333333"/>
<path d="M17.0155 3.36565C17.0155 2.51328 16.322 1.81982 15.4697 1.81982C14.6173 1.81982 13.9238 2.51328 13.9238 3.36565C13.9238 4.21802 14.6173 4.91148 15.4697 4.91148C16.322 4.91148 17.0155 4.21802 17.0155 3.36565ZM14.8319 3.36565C14.8319 3.01402 15.118 2.72796 15.4696 2.72796C15.8212 2.72796 16.1073 3.01408 16.1073 3.36565C16.1073 3.71722 15.8212 4.00334 15.4696 4.00334C15.118 4.00334 14.8319 3.71722 14.8319 3.36565Z" fill="#333333"/>
<path d="M12.7967 3.36565C12.7967 2.51328 12.1033 1.81982 11.2509 1.81982C10.3985 1.81982 9.70508 2.51328 9.70508 3.36565C9.70508 4.21802 10.3985 4.91148 11.2509 4.91148C12.1033 4.91148 12.7967 4.21802 12.7967 3.36565ZM10.6132 3.36565C10.6132 3.01402 10.8992 2.72796 11.2508 2.72796C11.6025 2.72796 11.8885 3.01408 11.8885 3.36565C11.8885 3.71722 11.6025 4.00334 11.2508 4.00334C10.8992 4.00334 10.6132 3.71722 10.6132 3.36565Z" fill="#333333"/>
<path d="M8.57804 3.36565C8.57804 2.51328 7.88459 1.81982 7.03221 1.81982C6.17984 1.81982 5.48633 2.51328 5.48633 3.36565C5.48633 4.21802 6.17978 4.91148 7.03215 4.91148C7.88453 4.91148 8.57804 4.21802 8.57804 3.36565ZM6.39446 3.36565C6.39446 3.01402 6.68052 2.72796 7.03215 2.72796C7.38378 2.72796 7.66984 3.01408 7.66984 3.36565C7.66984 3.71722 7.38378 4.00334 7.03215 4.00334C6.68052 4.00334 6.39446 3.71722 6.39446 3.36565Z" fill="#333333"/>
<path d="M21.2362 3.36565C21.2362 2.51328 20.5427 1.81982 19.6904 1.81982C18.838 1.81982 18.1445 2.51328 18.1445 3.36565C18.1445 4.21802 18.838 4.91148 19.6904 4.91148C20.5427 4.91148 21.2362 4.21802 21.2362 3.36565ZM19.0526 3.36565C19.0526 3.01402 19.3387 2.72796 19.6903 2.72796C20.0419 2.72796 20.328 3.01408 20.328 3.36565C20.328 3.71722 20.0419 4.00334 19.6903 4.00334C19.3387 4.00334 19.0526 3.71722 19.0526 3.36565Z" fill="#333333"/>
<path d="M25.4549 3.36565C25.4549 2.51328 24.7615 1.81982 23.9091 1.81982C23.0567 1.81982 22.3633 2.51328 22.3633 3.36565C22.3633 4.21802 23.0567 4.91148 23.9091 4.91148C24.7615 4.91148 25.4549 4.21802 25.4549 3.36565ZM23.2714 3.36565C23.2714 3.01402 23.5574 2.72796 23.909 2.72796C24.2607 2.72796 24.5467 3.01408 24.5467 3.36565C24.5467 3.71722 24.2607 4.00334 23.909 4.00334C23.5574 4.00334 23.2714 3.71722 23.2714 3.36565Z" fill="#333333"/>
<path d="M6.71069 17.6589C6.4615 17.6872 6.28242 17.9121 6.31069 18.1613C6.83886 22.819 10.7768 26.3314 15.4705 26.3314C20.5542 26.3314 24.6901 22.1955 24.6901 17.1118C24.6901 12.028 20.5542 7.89209 15.4706 7.89209C13.1799 7.89209 10.9837 8.73793 9.28665 10.2737C7.60188 11.7984 6.54239 13.8771 6.30336 16.1271C6.27685 16.3764 6.4575 16.6001 6.70694 16.6266C6.95601 16.653 7.17996 16.4724 7.20641 16.223C7.42188 14.1954 8.37706 12.3217 9.896 10.9471C11.4258 9.56263 13.4055 8.80022 15.4706 8.80022C20.0535 8.80022 23.782 12.5287 23.782 17.1117C23.782 21.6947 20.0535 25.4233 15.4706 25.4233C11.2391 25.4233 7.68918 22.2573 7.21307 18.059C7.1848 17.8098 6.95976 17.6309 6.71069 17.6589Z" fill="#333333"/>
<path d="M15.1833 9.71398C11.346 9.8597 8.22246 12.9795 8.07226 16.8165C7.99277 18.8481 8.72527 20.7743 10.1349 22.2402C11.5457 23.7072 13.4403 24.5152 15.4699 24.5152C18.1682 24.5152 20.6551 23.0419 21.9603 20.6704C22.0739 20.4639 22.0888 20.22 22.001 20.0011C21.9133 19.7822 21.734 19.616 21.5091 19.5451L20.9429 19.3668C20.8231 19.3291 20.7425 19.2193 20.7425 19.0937V15.1299C20.7425 15.0043 20.8231 14.8945 20.9429 14.8567L21.5091 14.6784C21.7339 14.6077 21.9131 14.4415 22.0008 14.2227C22.0886 14.0035 22.0737 13.7591 21.9597 13.5522C20.5973 11.0777 18.0009 9.60682 15.1833 9.71398ZM21.0896 20.3652C19.9256 22.3688 17.7863 23.6071 15.4698 23.6071C13.6896 23.6071 12.0274 22.8981 10.7895 21.6108C9.81224 20.5945 9.20628 19.3262 9.02919 17.9593L11.838 16.8003C13.025 16.3107 14.3388 16.2946 15.5374 16.7552L16.426 17.0967C17.5101 17.5134 18.704 17.5983 19.8343 17.3464V19.0937C19.8343 19.6177 20.1702 20.0755 20.6699 20.233H20.67L21.0896 20.3652ZM20.67 13.9907C20.1702 14.1482 19.8344 14.606 19.8344 15.13V16.4119C18.8203 16.6822 17.733 16.6261 16.7518 16.2489L15.8632 15.9074C14.4469 15.3632 12.8944 15.3821 11.4917 15.9608L8.97579 16.999C8.97664 16.95 8.97779 16.9011 8.97973 16.852C9.11147 13.4861 11.8515 10.7492 15.2178 10.6214C15.3023 10.6182 15.3862 10.6166 15.4702 10.6166C17.794 10.6166 19.9178 11.8392 21.0897 13.8585L20.67 13.9907Z" fill="#333333"/>
<path d="M21.7637 15.8474V18.4376C21.7637 18.6884 21.967 18.8916 22.2177 18.8916C22.4685 18.8916 22.6718 18.6884 22.6718 18.4376V15.8474C22.6718 15.5966 22.4685 15.3933 22.2177 15.3933C21.967 15.3933 21.7637 15.5966 21.7637 15.8474Z" fill="#333333"/>
<path d="M26.8632 9.60398V8.40053C26.8632 7.94252 26.4905 7.56982 26.0325 7.56982H23.9674C23.5094 7.56982 23.1367 7.94246 23.1367 8.40053V9.60398C23.1367 10.062 23.5094 10.4347 23.9674 10.4347H26.0325C26.4905 10.4347 26.8632 10.062 26.8632 9.60398ZM25.955 9.52655H24.0448V8.47802H25.955V9.52655Z" fill="#333333"/>
</g>
<defs>
<clipPath id="clip0_1_5870">
<rect width="31" height="31" fill="white"/>
</clipPath>
</defs>
</svg>
