<svg width="31" height="31" viewBox="0 0 31 31" fill="none" xmlns="http://www.w3.org/2000/svg">
<path d="M27.125 15.9844C27.125 15.6012 27.0114 15.2266 26.7985 14.908C26.5856 14.5893 26.283 14.341 25.929 14.1944C25.5749 14.0477 25.1854 14.0093 24.8095 14.0841C24.4337 14.1589 24.0884 14.3434 23.8175 14.6144C23.5465 14.8853 23.362 15.2306 23.2872 15.6064C23.2125 15.9822 23.2508 16.3718 23.3975 16.7258C23.5441 17.0799 23.7925 17.3825 24.1111 17.5954C24.4297 17.8082 24.8043 17.9219 25.1875 17.9219C25.7012 17.9213 26.1937 17.717 26.5569 17.3538C26.9201 16.9905 27.1244 16.4981 27.125 15.9844ZM24.2188 15.9844C24.2188 15.7928 24.2756 15.6055 24.382 15.4462C24.4885 15.2869 24.6398 15.1627 24.8168 15.0894C24.9938 15.016 25.1886 14.9969 25.3765 15.0342C25.5644 15.0716 25.737 15.1639 25.8725 15.2994C26.008 15.4349 26.1003 15.6075 26.1376 15.7954C26.175 15.9833 26.1558 16.1781 26.0825 16.3551C26.0092 16.5321 25.885 16.6834 25.7257 16.7899C25.5664 16.8963 25.3791 16.9531 25.1875 16.9531C24.9307 16.9528 24.6844 16.8507 24.5028 16.6691C24.3212 16.4874 24.2191 16.2412 24.2188 15.9844Z" fill="#333333"/>
<path d="M27.125 3.39062C26.5502 3.39062 25.9883 3.56107 25.5104 3.88042C25.0324 4.19976 24.6599 4.65365 24.44 5.1847C24.22 5.71575 24.1625 6.3001 24.2746 6.86386C24.3867 7.42761 24.6635 7.94546 25.07 8.3519C25.4764 8.75835 25.9943 9.03514 26.558 9.14728C27.1218 9.25942 27.7061 9.20187 28.2372 8.9819C28.7682 8.76193 29.2221 8.38943 29.5415 7.9115C29.8608 7.43357 30.0312 6.87168 30.0312 6.29687C30.0304 5.52636 29.7239 4.78766 29.1791 4.24282C28.6342 3.69798 27.8955 3.39151 27.125 3.39062ZM27.125 8.23437C26.7418 8.23437 26.3672 8.12074 26.0486 7.90785C25.73 7.69495 25.4816 7.39235 25.335 7.03832C25.1883 6.68429 25.15 6.29472 25.2247 5.91889C25.2995 5.54305 25.484 5.19782 25.755 4.92686C26.0259 4.65589 26.3712 4.47136 26.747 4.3966C27.1229 4.32184 27.5124 4.36021 27.8665 4.50686C28.2205 4.6535 28.5231 4.90184 28.736 5.22046C28.9489 5.53908 29.0625 5.91367 29.0625 6.29687C29.0619 6.81055 28.8576 7.30303 28.4944 7.66626C28.1312 8.02948 27.6387 8.2338 27.125 8.23437Z" fill="#333333"/>
<path d="M20.3438 13.0781C20.8228 13.0781 21.291 12.9361 21.6893 12.67C22.0876 12.4038 22.398 12.0256 22.5813 11.5831C22.7646 11.1405 22.8125 10.6536 22.7191 10.1838C22.6256 9.71397 22.395 9.28243 22.0563 8.94373C21.7176 8.60502 21.286 8.37436 20.8162 8.28091C20.3464 8.18746 19.8595 8.23542 19.4169 8.41873C18.9744 8.60204 18.5962 8.91245 18.33 9.31073C18.0639 9.709 17.9219 10.1772 17.9219 10.6563C17.9226 11.2984 18.178 11.9139 18.632 12.368C19.0861 12.822 19.7017 13.0774 20.3438 13.0781ZM20.3438 9.20313C20.6312 9.20313 20.9121 9.28835 21.1511 9.44802C21.39 9.60769 21.5763 9.83464 21.6863 10.1002C21.7962 10.3657 21.825 10.6579 21.769 10.9397C21.7129 11.2216 21.5745 11.4805 21.3713 11.6838C21.168 11.887 20.9091 12.0254 20.6272 12.0815C20.3454 12.1375 20.0532 12.1087 19.7877 11.9988C19.5221 11.8888 19.2952 11.7025 19.1355 11.4636C18.9759 11.2246 18.8906 10.9437 18.8906 10.6563C18.8911 10.271 19.0443 9.90165 19.3167 9.62923C19.5891 9.35682 19.9585 9.20357 20.3438 9.20313Z" fill="#333333"/>
<path d="M13.5625 14.0469H7.75C7.62154 14.0469 7.49833 14.0979 7.4075 14.1887C7.31666 14.2796 7.26562 14.4028 7.26562 14.5312V17.4375C7.26562 17.566 7.31666 17.6892 7.4075 17.78C7.49833 17.8708 7.62154 17.9219 7.75 17.9219H13.5625C13.691 17.9219 13.8142 17.8708 13.905 17.78C13.9958 17.6892 14.0469 17.566 14.0469 17.4375V14.5312C14.0469 14.4028 13.9958 14.2796 13.905 14.1887C13.8142 14.0979 13.691 14.0469 13.5625 14.0469ZM13.0781 16.9531H8.23438V15.0156H13.0781V16.9531Z" fill="#333333"/>
<path d="M29.5469 26.6406H25.9858C26.688 26.0749 27.1974 25.3052 27.4437 24.4377C27.69 23.5702 27.6611 22.6477 27.3609 21.7973C27.0607 20.947 26.5041 20.2107 25.7678 19.6901C25.0315 19.1695 24.1518 18.8902 23.25 18.8906C22.7608 18.8906 22.2909 18.9962 21.7935 19.108C21.2096 19.2393 20.6056 19.375 19.8594 19.375C19.1132 19.375 18.5092 19.2393 17.9253 19.108C17.4278 18.9962 16.958 18.8906 16.4688 18.8906V11.625C16.468 10.9829 16.2126 10.3673 15.7586 9.91327C15.3046 9.45924 14.689 9.20385 14.0469 9.20312H13.5625V7.75C13.5625 7.62154 13.5115 7.49833 13.4206 7.4075C13.3298 7.31666 13.2066 7.26562 13.0781 7.26562H12.1094V4.35938H14.0469V5.8125C14.0469 5.94096 14.0979 6.06417 14.1887 6.155C14.2796 6.24584 14.4028 6.29688 14.5312 6.29688H16.4688C16.5972 6.29688 16.7204 6.24584 16.8113 6.155C16.9021 6.06417 16.9531 5.94096 16.9531 5.8125V3.875C16.9524 3.2329 16.697 2.61731 16.243 2.16327C15.7889 1.70924 15.1733 1.45385 14.5312 1.45312H8.71875C8.33349 1.45356 7.96413 1.60679 7.69171 1.87921C7.41929 2.15163 7.26606 2.52099 7.26562 2.90625V3.875C7.26562 4.00346 7.31666 4.12667 7.4075 4.2175C7.49833 4.30834 7.62154 4.35938 7.75 4.35938H9.20312V7.26562H8.23438C8.10591 7.26562 7.98271 7.31666 7.89187 7.4075C7.80103 7.49833 7.75 7.62154 7.75 7.75V9.20312H7.26562C6.62353 9.20385 6.00793 9.45924 5.5539 9.91327C5.09986 10.3673 4.84447 10.9829 4.84375 11.625V25.1875C4.8432 25.7118 5.01373 26.222 5.32946 26.6406H1.45312C1.32466 26.6406 1.20146 26.6917 1.11062 26.7825C1.01978 26.8733 0.96875 26.9965 0.96875 27.125C0.969471 27.7671 1.22486 28.3827 1.6789 28.8367C2.13293 29.2908 2.74853 29.5462 3.39062 29.5469H27.6094C28.2515 29.5462 28.8671 29.2908 29.3211 28.8367C29.7751 28.3827 30.0305 27.7671 30.0312 27.125C30.0312 26.9965 29.9802 26.8733 29.8894 26.7825C29.7985 26.6917 29.6753 26.6406 29.5469 26.6406ZM17.7129 20.0531C18.3188 20.1894 19.0057 20.3438 19.8594 20.3438C20.7131 20.3438 21.3999 20.1894 22.0059 20.0531C22.4689 19.9492 22.8686 19.8594 23.25 19.8594C24.1493 19.8594 25.0117 20.2166 25.6475 20.8525C26.2834 21.4883 26.6406 22.3507 26.6406 23.25C26.6406 24.1493 26.2834 25.0117 25.6475 25.6475C25.0117 26.2834 24.1493 26.6406 23.25 26.6406H16.4688C15.5695 26.6406 14.7071 26.2834 14.0712 25.6475C13.4354 25.0117 13.0781 24.1493 13.0781 23.25C13.0781 22.3507 13.4354 21.4883 14.0712 20.8525C14.7071 20.2166 15.5695 19.8594 16.4688 19.8594C16.8502 19.8594 17.2498 19.9492 17.7129 20.0531ZM12.1094 23.25C12.1096 23.4118 12.1188 23.5735 12.1369 23.7344H5.8125V13.0781H15.5V19.0005C14.5376 19.221 13.6784 19.7613 13.0626 20.5331C12.4468 21.3049 12.1108 22.2626 12.1094 23.25ZM8.23438 2.90625C8.23452 2.77783 8.2856 2.65471 8.3764 2.5639C8.46721 2.4731 8.59033 2.42202 8.71875 2.42188H14.5312C14.9165 2.42231 15.2859 2.57554 15.5583 2.84796C15.8307 3.12038 15.9839 3.48974 15.9844 3.875V5.32812H15.0156V3.875C15.0156 3.74654 14.9646 3.62333 14.8738 3.5325C14.7829 3.44166 14.6597 3.39062 14.5312 3.39062H8.23438V2.90625ZM10.1719 4.35938H11.1406V7.26562H10.1719V4.35938ZM8.71875 8.23438H12.5938V9.20312H8.71875V8.23438ZM7.26562 10.1719H14.0469C14.4321 10.1723 14.8015 10.3255 15.0739 10.598C15.3463 10.8704 15.4996 11.2397 15.5 11.625V12.1094H5.8125V11.625C5.81293 11.2397 5.96617 10.8704 6.23859 10.598C6.51101 10.3255 6.88036 10.1723 7.26562 10.1719ZM5.8125 25.1875V24.7031H12.3593C12.6298 25.4632 13.1052 26.1338 13.7329 26.6406H7.26562C6.88036 26.6402 6.51101 26.487 6.23859 26.2145C5.96617 25.9421 5.81293 25.5728 5.8125 25.1875ZM27.6094 28.5781H3.39062C3.0902 28.5778 2.79724 28.4845 2.55194 28.311C2.30663 28.1376 2.121 27.8925 2.02051 27.6094H28.9795C28.879 27.8925 28.6934 28.1376 28.4481 28.311C28.2028 28.4845 27.9098 28.5778 27.6094 28.5781Z" fill="#333333"/>
<path d="M15.9844 21.3125C15.9844 21.441 16.0354 21.5642 16.1262 21.655C16.2171 21.7458 16.3403 21.7969 16.4688 21.7969C16.8502 21.7969 17.2498 21.8867 17.7129 21.9906C18.3188 22.1269 19.0057 22.2812 19.8594 22.2812C20.7131 22.2812 21.3999 22.1269 22.0059 21.9906C22.4689 21.8867 22.8686 21.7969 23.25 21.7969C23.3785 21.7969 23.5017 21.7458 23.5925 21.655C23.6833 21.5642 23.7344 21.441 23.7344 21.3125C23.7344 21.184 23.6833 21.0608 23.5925 20.97C23.5017 20.8792 23.3785 20.8281 23.25 20.8281C22.7608 20.8281 22.2909 20.9337 21.7935 21.0455C21.2096 21.1768 20.6056 21.3125 19.8594 21.3125C19.1132 21.3125 18.5092 21.1768 17.9253 21.0455C17.4278 20.9337 16.958 20.8281 16.4688 20.8281C16.3403 20.8281 16.2171 20.8792 16.1262 20.97C16.0354 21.0608 15.9844 21.184 15.9844 21.3125Z" fill="#333333"/>
</svg>
