<svg width="31" height="31" viewBox="0 0 31 31" fill="none" xmlns="http://www.w3.org/2000/svg">
<path d="M27.6094 5.8125H3.39062C2.74853 5.81322 2.13293 6.06861 1.6789 6.52265C1.22486 6.97668 0.969471 7.59228 0.96875 8.23438V12.1094C0.96875 12.2378 1.01978 12.361 1.11062 12.4519C1.20146 12.5427 1.32466 12.5938 1.45312 12.5938H2.90625V14.0469C2.90625 14.1753 2.95728 14.2985 3.04812 14.3894C3.13896 14.4802 3.26216 14.5312 3.39062 14.5312H9.05981L7.75484 23.6659C7.74503 23.7346 7.7501 23.8046 7.7697 23.8712C7.7893 23.9377 7.82297 23.9993 7.86844 24.0518C7.91392 24.1042 7.97012 24.1462 8.03326 24.175C8.09639 24.2038 8.16498 24.2188 8.23438 24.2188H9.6875V24.7031C9.6875 24.8316 9.73853 24.9548 9.82937 25.0456C9.92021 25.1365 10.0434 25.1875 10.1719 25.1875H14.0469C14.1753 25.1875 14.2985 25.1365 14.3894 25.0456C14.4802 24.9548 14.5312 24.8316 14.5312 24.7031V24.2188H15.9844C16.0538 24.2188 16.1224 24.2038 16.1855 24.175C16.2486 24.1462 16.3048 24.1042 16.3503 24.0518C16.3958 23.9993 16.4295 23.9377 16.4491 23.8712C16.4687 23.8046 16.4737 23.7346 16.4639 23.6659L15.1589 14.5312H27.6094C27.7378 14.5312 27.861 14.4802 27.9519 14.3894C28.0427 14.2985 28.0938 14.1753 28.0938 14.0469V12.5938H29.5469C29.6753 12.5938 29.7985 12.5427 29.8894 12.4519C29.9802 12.361 30.0312 12.2378 30.0312 12.1094V8.23438C30.0305 7.59228 29.7751 6.97668 29.3211 6.52265C28.8671 6.06861 28.2515 5.81322 27.6094 5.8125ZM14.4804 23.25L13.5595 14.9622C13.5535 14.8982 13.5348 14.836 13.5045 14.7793C13.4742 14.7226 13.4329 14.6725 13.383 14.6319C13.3332 14.5913 13.2757 14.5611 13.2141 14.5429C13.1524 14.5248 13.0877 14.5191 13.0238 14.5262C12.9599 14.5333 12.8981 14.553 12.8419 14.5843C12.7857 14.6155 12.7363 14.6576 12.6966 14.7082C12.6568 14.7587 12.6275 14.8166 12.6104 14.8786C12.5933 14.9406 12.5887 15.0053 12.5968 15.0691L13.5625 23.7613V24.2188H10.6562V23.7613L11.622 15.0691C11.6302 15.0053 11.6256 14.9406 11.6085 14.8786C11.5913 14.8166 11.5621 14.7587 11.5223 14.7082C11.4826 14.6576 11.4332 14.6155 11.377 14.5843C11.3208 14.553 11.2589 14.5333 11.195 14.5262C11.1312 14.5191 11.0665 14.5248 11.0048 14.5429C10.9431 14.5611 10.8857 14.5913 10.8358 14.6319C10.786 14.6725 10.7447 14.7226 10.7144 14.7793C10.6841 14.836 10.6654 14.8982 10.6593 14.9622L9.73836 23.25H8.79286L10.4141 11.9039C10.4649 11.5583 10.638 11.2423 10.9019 11.0134C11.1658 10.7845 11.503 10.6578 11.8523 10.6562H12.3665C12.7158 10.6577 13.0531 10.7844 13.3171 11.0133C13.581 11.2422 13.7541 11.5582 13.805 11.9039L15.4259 23.25H14.4804ZM27.125 13.5625H15.0205L14.7641 11.7669C14.6792 11.1908 14.3907 10.6642 13.9508 10.2827C13.5109 9.90116 12.9488 9.68999 12.3665 9.6875H11.8523C11.27 9.68998 10.7079 9.90114 10.268 10.2827C9.82803 10.6642 9.53947 11.1908 9.45464 11.7669L9.19822 13.5625H3.875V9.20312C3.87514 9.07471 3.92622 8.95159 4.01703 8.86078C4.10784 8.76997 4.23096 8.71889 4.35938 8.71875H26.6406C26.769 8.71889 26.8922 8.76997 26.983 8.86078C27.0738 8.95159 27.1249 9.07471 27.125 9.20312V13.5625ZM29.0625 11.625H28.0938V9.20312C28.0933 8.81787 27.9401 8.44852 27.6676 8.17611C27.3952 7.90369 27.0259 7.75045 26.6406 7.75H4.35938C3.97412 7.75045 3.60477 7.90369 3.33236 8.17611C3.05994 8.44852 2.9067 8.81787 2.90625 9.20312V11.625H1.9375V8.23438C1.93795 7.84912 2.09119 7.47977 2.36361 7.20736C2.63602 6.93494 3.00537 6.7817 3.39062 6.78125H27.6094C27.9946 6.7817 28.364 6.93494 28.6364 7.20736C28.9088 7.47977 29.0621 7.84912 29.0625 8.23438V11.625Z" fill="#333333"/>
<path d="M6.29688 9.6875C6.00947 9.6875 5.72853 9.77272 5.48956 9.9324C5.2506 10.0921 5.06435 10.319 4.95436 10.5845C4.84438 10.8501 4.8156 11.1422 4.87167 11.4241C4.92774 11.706 5.06614 11.9649 5.26936 12.1681C5.47258 12.3714 5.73151 12.5098 6.01338 12.5658C6.29526 12.6219 6.58744 12.5931 6.85296 12.4831C7.11849 12.3732 7.34543 12.1869 7.5051 11.9479C7.66478 11.709 7.75 11.428 7.75 11.1406C7.74957 10.7554 7.59633 10.386 7.32391 10.1136C7.05149 9.84117 6.68214 9.68793 6.29688 9.6875ZM6.29688 11.625C6.20108 11.625 6.10743 11.5966 6.02777 11.5434C5.94812 11.4901 5.88603 11.4145 5.84937 11.326C5.81271 11.2375 5.80312 11.1401 5.82181 11.0461C5.8405 10.9522 5.88663 10.8659 5.95437 10.7981C6.02211 10.7304 6.10842 10.6842 6.20238 10.6656C6.29634 10.6469 6.39373 10.6565 6.48224 10.6931C6.57075 10.7298 6.64639 10.7919 6.69962 10.8715C6.75284 10.9512 6.78125 11.0448 6.78125 11.1406C6.78111 11.269 6.73003 11.3922 6.63922 11.483C6.54841 11.5738 6.4253 11.6249 6.29688 11.625Z" fill="#333333"/>
<path d="M18.8906 9.6875C18.6032 9.6875 18.3223 9.77272 18.0833 9.9324C17.8443 10.0921 17.6581 10.319 17.5481 10.5845C17.4381 10.8501 17.4094 11.1422 17.4654 11.4241C17.5215 11.706 17.6599 11.9649 17.8631 12.1681C18.0663 12.3714 18.3253 12.5098 18.6071 12.5658C18.889 12.6219 19.1812 12.5931 19.4467 12.4831C19.7122 12.3732 19.9392 12.1869 20.0989 11.9479C20.2585 11.709 20.3438 11.428 20.3438 11.1406C20.3433 10.7554 20.1901 10.386 19.9177 10.1136C19.6452 9.84117 19.2759 9.68793 18.8906 9.6875ZM18.8906 11.625C18.7948 11.625 18.7012 11.5966 18.6215 11.5434C18.5419 11.4901 18.4798 11.4145 18.4431 11.326C18.4065 11.2375 18.3969 11.1401 18.4156 11.0461C18.4342 10.9522 18.4804 10.8659 18.5481 10.7981C18.6159 10.7304 18.7022 10.6842 18.7961 10.6656C18.8901 10.6469 18.9875 10.6565 19.076 10.6931C19.1645 10.7298 19.2401 10.7919 19.2934 10.8715C19.3466 10.9512 19.375 11.0448 19.375 11.1406C19.3749 11.269 19.3238 11.3922 19.233 11.483C19.1422 11.5738 19.019 11.6249 18.8906 11.625Z" fill="#333333"/>
<path d="M24.7031 9.6875C24.4157 9.6875 24.1348 9.77272 23.8958 9.9324C23.6568 10.0921 23.4706 10.319 23.3606 10.5845C23.2506 10.8501 23.2219 11.1422 23.2779 11.4241C23.334 11.706 23.4724 11.9649 23.6756 12.1681C23.8788 12.3714 24.1378 12.5098 24.4196 12.5658C24.7015 12.6219 24.9937 12.5931 25.2592 12.4831C25.5247 12.3732 25.7517 12.1869 25.9114 11.9479C26.071 11.709 26.1563 11.428 26.1563 11.1406C26.1558 10.7554 26.0026 10.386 25.7302 10.1136C25.4577 9.84117 25.0884 9.68793 24.7031 9.6875ZM24.7031 11.625C24.6073 11.625 24.5137 11.5966 24.434 11.5434C24.3544 11.4901 24.2923 11.4145 24.2556 11.326C24.219 11.2375 24.2094 11.1401 24.2281 11.0461C24.2467 10.9522 24.2929 10.8659 24.3606 10.7981C24.4284 10.7304 24.5147 10.6842 24.6086 10.6656C24.7026 10.6469 24.8 10.6565 24.8885 10.6931C24.977 10.7298 25.0526 10.7919 25.1059 10.8715C25.1591 10.9512 25.1875 11.0448 25.1875 11.1406C25.1874 11.269 25.1363 11.3922 25.0455 11.483C24.9547 11.5738 24.8315 11.6249 24.7031 11.625Z" fill="#333333"/>
</svg>
