<svg width="30" height="30" viewBox="0 0 30 30" fill="none" xmlns="http://www.w3.org/2000/svg">
<path d="M26.25 0.9375H23.4375C20.082 0.941222 16.865 2.27584 14.4923 4.64854C12.1196 7.02124 10.785 10.2382 10.7812 13.5938V15.9375C10.7773 16.1574 10.8251 16.3751 10.9208 16.5731C11.0166 16.771 11.1576 16.9437 11.3325 17.077C11.6134 17.2853 11.9546 17.3961 12.3042 17.3925C12.4615 17.3924 12.618 17.3713 12.7697 17.3297L13.125 17.2406V17.3438C13.1149 17.5365 13.0393 17.72 12.9108 17.8641C12.6705 17.9939 12.4738 18.1916 12.3452 18.4325C12.2166 18.6734 12.1617 18.9469 12.1875 19.2188C12.1883 19.3796 12.2202 19.5387 12.2812 19.6875H8.90625C8.36292 19.6866 7.83099 19.8433 7.37496 20.1387C6.91894 20.4341 6.55841 20.8554 6.3371 21.3516C6.11579 21.8478 6.0432 22.3976 6.12814 22.9343C6.21308 23.4709 6.45189 23.9714 6.81562 24.375H3.75C3.62568 24.375 3.50645 24.4244 3.41854 24.5123C3.33064 24.6002 3.28125 24.7194 3.28125 24.8438V28.5938C3.28125 28.7181 3.33064 28.8373 3.41854 28.9252C3.50645 29.0131 3.62568 29.0625 3.75 29.0625H19.2188C20.2029 29.046 21.1471 28.6704 21.8738 28.0064L26.0981 24.2517C26.2788 24.0904 26.4246 23.8938 26.5266 23.674C26.6285 23.4543 26.6845 23.2161 26.6911 22.9739C26.6954 22.7371 26.6512 22.502 26.5613 22.2829C26.4714 22.0638 26.3378 21.8654 26.1684 21.6998C25.8174 21.3888 25.3663 21.2143 24.8973 21.2079C24.4283 21.2015 23.9727 21.3638 23.6133 21.6652L21.2541 23.5533C20.8993 23.9495 20.4337 24.2301 19.9177 24.3586C20.3732 23.8467 20.6249 23.1853 20.625 22.5C20.625 21.338 20.1994 20.4558 19.4794 20.01C19.6207 19.7706 19.6928 19.4967 19.6875 19.2188C19.6576 18.847 19.493 18.4989 19.2245 18.24C18.9561 17.981 18.6023 17.829 18.2297 17.8125H16.4062C16.2819 17.8125 16.1627 17.7631 16.0748 17.6752C15.9869 17.5873 15.9375 17.4681 15.9375 17.3438V16.5375L16.5441 16.3856C16.9173 16.2397 17.2379 15.9847 17.4641 15.654C17.6904 15.3232 17.8118 14.932 17.8125 14.5312V14.0625H26.25C26.3743 14.0625 26.4935 14.0131 26.5815 13.9252C26.6694 13.8373 26.7188 13.7181 26.7188 13.5938V1.40625C26.7188 1.28193 26.6694 1.1627 26.5815 1.07479C26.4935 0.986886 26.3743 0.9375 26.25 0.9375ZM21.8555 24.2723L24.2147 22.3842C24.3939 22.2314 24.6208 22.1456 24.8563 22.1417C25.0918 22.1377 25.3214 22.2159 25.5056 22.3627C25.5851 22.439 25.6482 22.5309 25.6908 22.6325C25.7334 22.7342 25.7548 22.8435 25.7536 22.9537C25.7496 23.0681 25.7225 23.1805 25.6737 23.2841C25.625 23.3876 25.5557 23.4802 25.47 23.5561L21.2452 27.3113C20.6916 27.8207 19.9709 28.1102 19.2188 28.125H4.21875V25.3125H8.90625C9.03056 25.3125 9.14977 25.2631 9.23766 25.1752L11.1127 23.3002C11.6564 22.7564 11.9859 22.5 12.6562 22.5H15.9375C16.1861 22.5 16.4246 22.5988 16.6004 22.7746C16.7762 22.9504 16.875 23.1889 16.875 23.4375V24.375H12.1875C12.0632 24.375 11.944 24.4244 11.856 24.5123C11.7681 24.6002 11.7188 24.7194 11.7188 24.8438C11.7188 24.9681 11.7681 25.0873 11.856 25.1752C11.944 25.2631 12.0632 25.3125 12.1875 25.3125H19.6875C20.6672 25.3125 21.2517 24.8006 21.8555 24.2723ZM16.4062 18.75H18.2297C18.3539 18.7656 18.4704 18.8189 18.5634 18.9027C18.6565 18.9865 18.7216 19.0968 18.75 19.2188C18.75 19.5427 18.6052 19.6875 18.2812 19.6875C18.1569 19.6875 18.0377 19.7369 17.9498 19.8248C17.8619 19.9127 17.8125 20.0319 17.8125 20.1562C17.8125 20.2806 17.8619 20.3998 17.9498 20.4877C18.0377 20.5756 18.1569 20.625 18.2812 20.625C19.5506 20.625 19.6875 21.9375 19.6875 22.5C19.6875 22.9973 19.49 23.4742 19.1383 23.8258C18.7867 24.1775 18.3098 24.375 17.8125 24.375V23.4375C17.8125 22.9402 17.615 22.4633 17.2633 22.1117C16.9117 21.76 16.4348 21.5625 15.9375 21.5625H12.6562C11.6081 21.5625 11.0587 22.0284 10.4498 22.6373L8.73 24.3572C8.2497 24.3141 7.80461 24.0871 7.48769 23.7236C7.17078 23.3602 7.00654 22.8883 7.02929 22.4066C7.05204 21.9249 7.26001 21.4706 7.60977 21.1386C7.95953 20.8067 8.42402 20.6226 8.90625 20.625H13.5938C13.7181 20.625 13.8373 20.5756 13.9252 20.4877C14.0131 20.3998 14.0625 20.2806 14.0625 20.1562C14.0625 20.0319 14.0131 19.9127 13.9252 19.8248C13.8373 19.7369 13.7181 19.6875 13.5938 19.6875C13.4752 19.6711 13.3652 19.6165 13.2806 19.5319C13.196 19.4473 13.1414 19.3373 13.125 19.2188C13.125 18.8081 13.2591 18.7397 13.3373 18.6994C13.5592 18.5492 13.7411 18.3474 13.8675 18.1112C13.9938 17.875 14.0607 17.6116 14.0625 17.3438V17.0062L15 16.7719V17.3438C15 17.7167 15.1482 18.0744 15.4119 18.3381C15.6756 18.6018 16.0333 18.75 16.4062 18.75ZM16.875 14.5312C16.8714 14.7295 16.814 14.9231 16.7089 15.0913C16.6038 15.2595 16.455 15.396 16.2783 15.4861L12.533 16.4236C12.4278 16.4572 12.3163 16.4665 12.207 16.4507C12.0977 16.4349 11.9935 16.3946 11.902 16.3327C11.8418 16.2865 11.7936 16.2265 11.7617 16.1577C11.7298 16.0888 11.715 16.0133 11.7188 15.9375V14.0625H16.875V14.5312ZM25.7812 13.125H22.0312V11.7188H25.7812V13.125ZM25.7812 10.7812H21.5625C21.4382 10.7812 21.319 10.8306 21.231 10.9185C21.1431 11.0065 21.0938 11.1257 21.0938 11.25V13.125H11.7281C11.8528 10.1018 13.1405 7.2436 15.3224 5.14728C17.5043 3.05096 20.4117 1.8786 23.4375 1.875H25.7812V10.7812Z" fill="#333333"/>
<path d="M13.125 11.7188C13.125 11.8431 13.1744 11.9623 13.2623 12.0502C13.3502 12.1381 13.4694 12.1875 13.5938 12.1875C13.7181 12.1875 13.8373 12.1381 13.9252 12.0502C14.0131 11.9623 14.0625 11.8431 14.0625 11.7188C14.0625 7.94953 18.105 3.75 23.9062 3.75H24.375C24.4993 3.75 24.6185 3.70061 24.7065 3.61271C24.7944 3.5248 24.8438 3.40557 24.8438 3.28125C24.8438 3.15693 24.7944 3.0377 24.7065 2.94979C24.6185 2.86189 24.4993 2.8125 24.375 2.8125H23.9062C18.8067 2.8125 13.125 6.46875 13.125 11.7188Z" fill="#333333"/>
</svg>
