<svg width="30" height="30" viewBox="0 0 30 30" fill="none" xmlns="http://www.w3.org/2000/svg">
<g clip-path="url(#clip0_1_5722)">
<path d="M29.0918 27.1797H22.7197V26.1157C23.8067 26.0845 24.7513 25.3037 24.9803 24.2352L26.0434 19.2739C26.6442 19.1124 27.0879 18.5632 27.0879 17.9121C27.0879 17.1345 26.4553 16.5019 25.6778 16.5019H25.1466V2.86623C25.1465 1.28578 23.8607 0 22.2803 0C20.8368 0 19.6397 1.07285 19.443 2.46293C18.4481 2.63666 17.6636 3.42955 17.5032 4.42887C16.9245 4.60459 16.502 5.14301 16.502 5.77834C16.502 6.55588 17.1346 7.18846 17.9122 7.18846H21.795C22.5726 7.18846 23.2051 6.55588 23.2051 5.77834C23.2051 5.14295 22.7827 4.60459 22.204 4.42887C22.0471 3.45229 21.2946 2.67217 20.3319 2.47506C20.514 1.56598 21.3183 0.878906 22.2803 0.878906C23.3761 0.878906 24.2676 1.77041 24.2676 2.86623V16.502H16.3694C16.2806 16.0225 16.0472 15.583 15.6894 15.2349C15.2409 14.7986 14.654 14.5605 14.0301 14.5605C14.0272 14.5605 14.0245 14.5605 14.0216 14.5605H9.17578C8.01316 14.5605 7.04314 15.3984 6.83631 16.5019H4.32229C3.54469 16.5019 2.91217 17.1345 2.91217 17.9121C2.91217 18.5632 3.35584 19.1124 3.95666 19.2739L5.01984 24.2352C5.24883 25.3036 6.19336 26.0845 7.28033 26.1157V27.1797H0.908203C0.407402 27.1797 0 27.5871 0 28.0879V29.0918C0 29.5926 0.407402 30 0.908203 30H2.47266C2.71541 30 2.91211 29.8032 2.91211 29.5605C2.91211 29.3179 2.71541 29.1211 2.47266 29.1211H0.908203C0.89209 29.1211 0.878906 29.108 0.878906 29.0918V28.0879C0.878906 28.0717 0.89209 28.0586 0.908203 28.0586H29.0918C29.1079 28.0586 29.1211 28.0717 29.1211 28.0879V29.0918C29.1211 29.108 29.1079 29.1211 29.0918 29.1211H4.23047C3.98771 29.1211 3.79102 29.3179 3.79102 29.5605C3.79102 29.8032 3.98771 30 4.23047 30H29.0918C29.5926 30 30 29.5926 30 29.0918V28.0879C30 27.5871 29.5926 27.1797 29.0918 27.1797ZM21.7949 6.30955H17.9121C17.6191 6.30955 17.3808 6.07125 17.3808 5.77834C17.3808 5.48543 17.6191 5.24707 17.9121 5.24707H21.7949C22.0879 5.24707 22.3262 5.48537 22.3262 5.77834C22.3262 6.07125 22.0879 6.30955 21.7949 6.30955ZM21.2897 4.36816H18.4173C18.6057 3.75375 19.1782 3.30568 19.8535 3.30568C20.5288 3.30568 21.1014 3.75375 21.2897 4.36816ZM26.209 17.9121C26.209 18.205 25.9707 18.4433 25.6778 18.4433H12.5273V17.3808H25.6778C25.9706 17.3808 26.209 17.6192 26.209 17.9121ZM4.86586 19.3223H6.79488V20.3848H5.09355L4.86586 19.3223ZM7.67385 20.3848V19.3223H11.6484V20.3848H7.67385ZM7.67385 21.2637H11.6484V22.2803C11.6484 22.3056 11.6278 22.3262 11.6026 22.3262H7.71973C7.69441 22.3262 7.67385 22.3055 7.67385 22.2803V21.2637ZM13.9867 15.44C13.9997 15.4397 14.0125 15.4395 14.0253 15.4395H14.0293H14.0312C14.4243 15.4399 14.794 15.59 15.0765 15.8648C15.2612 16.0445 15.3935 16.2628 15.4662 16.5019H12.6035C12.7979 15.9022 13.3443 15.4577 13.9867 15.44ZM9.17578 15.4395H12.2014C11.8711 15.843 11.6666 16.3551 11.6501 16.9093C11.6493 16.9199 11.6484 16.9305 11.6484 16.9414C11.6484 16.9455 11.649 16.9496 11.6491 16.9538C11.649 16.9631 11.6484 16.9724 11.6484 16.9818V18.4433H7.67385V16.9414C7.67385 16.1132 8.34762 15.4395 9.17578 15.4395ZM4.32229 17.3808H6.79494V18.4433H4.32229C4.02938 18.4433 3.79107 18.205 3.79107 17.9121C3.79102 17.6192 4.02938 17.3808 4.32229 17.3808ZM5.87918 24.051L5.28187 21.2637H6.79488V22.2803C6.79488 22.7902 7.20973 23.2051 7.71967 23.2051H11.6025C12.1124 23.2051 12.5273 22.7902 12.5273 22.2803V21.2637H18.9745C19.2173 21.2637 19.414 21.0669 19.414 20.8242C19.414 20.5815 19.2173 20.3848 18.9745 20.3848H12.5273V19.3223H25.1341L24.9064 20.3848H20.7324C20.4896 20.3848 20.2929 20.5815 20.2929 20.8242C20.2929 21.0669 20.4896 21.2637 20.7324 21.2637H24.7181L24.1209 24.051C23.9734 24.739 23.3557 25.2383 22.6522 25.2383H7.34777C6.6443 25.2383 6.0266 24.739 5.87918 24.051ZM19.5104 26.1172L19.776 27.1796H10.224L10.4896 26.1172H19.5104ZM8.15918 27.1797V26.1172H9.58365L9.31799 27.1797H8.15918ZM20.682 27.1797L20.4164 26.1172H21.8409V27.1797H20.682Z" fill="#333333"/>
<path d="M18.3516 9.66109V8.69043C18.3516 8.44773 18.1549 8.25098 17.9121 8.25098C17.6694 8.25098 17.4727 8.44773 17.4727 8.69043V9.66109C17.4727 9.90379 17.6694 10.1005 17.9121 10.1005C18.1549 10.1005 18.3516 9.90385 18.3516 9.66109Z" fill="#333333"/>
<path d="M20.293 9.66109V8.69043C20.293 8.44773 20.0963 8.25098 19.8535 8.25098C19.6108 8.25098 19.4141 8.44773 19.4141 8.69043V9.66109C19.4141 9.90379 19.6108 10.1005 19.8535 10.1005C20.0963 10.1005 20.293 9.90385 20.293 9.66109Z" fill="#333333"/>
<path d="M22.2344 9.66109V8.69043C22.2344 8.44773 22.0377 8.25098 21.7949 8.25098C21.5522 8.25098 21.3555 8.44773 21.3555 8.69043V9.66109C21.3555 9.90379 21.5522 10.1005 21.7949 10.1005C22.0377 10.1005 22.2344 9.90385 22.2344 9.66109Z" fill="#333333"/>
<path d="M3.82031 10.586H12.5899C13.0907 10.586 13.4981 10.1786 13.4981 9.67777V8.67389C13.4981 8.17309 13.0907 7.76568 12.5899 7.76568H11.5566V3.82033C11.5566 3.31953 11.1492 2.91213 10.6484 2.91213H9.64453C9.14373 2.91213 8.73633 3.31953 8.73633 3.82033V7.76563H7.67385V2.84961C7.67385 2.34881 7.26645 1.94141 6.76564 1.94141H5.7617C5.2609 1.94141 4.8535 2.34881 4.8535 2.84961V7.76563H3.82031C3.31951 7.76563 2.91211 8.17303 2.91211 8.67383V9.67772C2.91211 10.1785 3.31951 10.586 3.82031 10.586ZM9.64453 3.79104H10.6485C10.6646 3.79104 10.6778 3.80416 10.6778 3.82033V4.85352H9.61523V3.82033C9.61523 3.80416 9.62836 3.79104 9.64453 3.79104ZM9.61523 5.73248H10.6778V7.76568H9.61523V5.73248ZM5.7617 2.82031H6.76564C6.78176 2.82031 6.79494 2.83344 6.79494 2.84961V3.88279H5.7324V2.84961C5.7324 2.83344 5.74559 2.82031 5.7617 2.82031ZM5.7324 4.76176H6.79494V7.76568H5.7324V4.76176ZM3.79102 8.67383C3.79102 8.65766 3.8042 8.64453 3.82031 8.64453H12.5899C12.606 8.64453 12.6192 8.65766 12.6192 8.67383V9.67772C12.6192 9.69389 12.606 9.70701 12.5899 9.70701H3.82031C3.8042 9.70701 3.79102 9.69389 3.79102 9.67772V8.67383Z" fill="#333333"/>
</g>
<defs>
<clipPath id="clip0_1_5722">
<rect width="30" height="30" fill="white"/>
</clipPath>
</defs>
</svg>
