<svg width="27" height="27" viewBox="0 0 27 27" fill="none" xmlns="http://www.w3.org/2000/svg">
<path d="M22.8384 3.39134C22.8384 1.16488 18.1407 0 13.5002 0C8.85976 0 4.16211 1.16488 4.16211 3.39134C4.16211 3.46682 5.90149 24.1969 5.90149 24.1969C5.91738 24.8198 6.36763 25.6813 8.37527 26.3201C9.75306 26.7585 11.5732 27 13.5003 27C15.4274 27 17.2475 26.7585 18.6253 26.3201C20.6329 25.6813 21.0832 24.8198 21.0991 24.1969C21.099 24.1969 22.8384 3.46682 22.8384 3.39134ZM5.73458 7.4406C7.3938 8.44892 10.4594 8.96887 13.5002 8.96887C16.541 8.96887 19.6067 8.44892 21.2659 7.4406L19.9971 22.5989C19.6506 22.3895 19.2023 22.1874 18.6253 22.0037C17.2475 21.5653 15.4273 21.3238 13.5002 21.3238C11.5731 21.3238 9.753 21.5653 8.37521 22.0037C7.79812 22.1874 7.34984 22.3894 7.00339 22.5989L5.73458 7.4406ZM13.5002 6.78268C16.4402 6.78268 19.4026 6.31488 21.1794 5.406C21.2549 5.5034 21.2935 5.59495 21.2935 5.67727C21.2935 6.37651 18.5428 7.73749 13.5002 7.73749C8.45765 7.73749 5.70694 6.37651 5.70694 5.67727C5.70694 5.59495 5.74554 5.50334 5.82108 5.406C7.59778 6.31488 10.5602 6.78268 13.5002 6.78268ZM7.07924 4.61625C8.36659 4.08688 10.5377 3.61711 13.5002 3.61711C16.4628 3.61711 18.6338 4.08688 19.9212 4.61625C19.7849 4.66686 19.6385 4.71729 19.4813 4.76734C17.8925 5.27289 15.7684 5.5513 13.5002 5.5513C11.232 5.5513 9.10794 5.27289 7.51922 4.76734C7.36197 4.71729 7.21556 4.6668 7.07924 4.61625ZM7.51922 2.01534C9.10794 1.50979 11.2321 1.23138 13.5002 1.23138C15.7684 1.23138 17.8925 1.50979 19.4813 2.01534C21.1593 2.54932 21.607 3.13146 21.607 3.39134C21.607 3.50912 21.5144 3.69321 21.2576 3.90889C19.5964 2.9039 16.5359 2.38567 13.5002 2.38567C10.4645 2.38567 7.40396 2.9039 5.74283 3.90889C5.48603 3.69315 5.39343 3.50906 5.39343 3.39134C5.39349 3.13152 5.84122 2.54932 7.51922 2.01534ZM18.2518 25.1467C16.9915 25.5478 15.3041 25.7687 13.5002 25.7687C11.6964 25.7687 10.0089 25.5478 8.74862 25.1467C7.42908 24.7268 7.13207 24.284 7.13207 24.162C7.13207 24.04 7.42908 23.5971 8.74862 23.1772C10.0089 22.7761 11.6964 22.5552 13.5002 22.5552C15.304 22.5552 16.9915 22.7761 18.2518 23.1772C19.5714 23.5971 19.8684 24.04 19.8684 24.162C19.8684 24.284 19.5714 24.7268 18.2518 25.1467Z" fill="#333333"/>
</svg>
