<svg width="31" height="31" viewBox="0 0 31 31" fill="none" xmlns="http://www.w3.org/2000/svg">
<g clip-path="url(#clip0_1_5648)">
<path d="M29.224 6.98396H27.6203C27.401 5.3541 26.8814 3.85266 26.1025 2.64136C25.0072 0.938236 23.5303 0.000244141 21.9439 0.000244141H18.6104C18.3595 0.000244141 18.1562 0.2035 18.1562 0.454346C18.1562 0.705191 18.3595 0.908447 18.6104 0.908447H21.9439C23.2106 0.908447 24.4162 1.69834 25.3385 3.13258C26.3008 4.62899 26.8307 6.62746 26.8307 8.75992V18.1512C26.6234 18.1933 26.4675 18.3765 26.4675 18.5962C26.4675 18.8158 26.6234 18.9991 26.8307 19.0411V24.9644C26.8307 25.2152 27.034 25.4185 27.2848 25.4185C27.5357 25.4185 27.7389 25.2152 27.7389 24.9644V10.5361H29.224C30.2033 10.5361 31 9.73933 31 8.75998C31 7.7807 30.2033 6.98396 29.224 6.98396ZM29.224 9.62786H27.7389V8.75998C27.7389 8.46833 27.7295 8.17879 27.7111 7.89216H29.224C29.7025 7.89216 30.0918 8.28154 30.0918 8.76004C30.0918 9.23855 29.7025 9.62786 29.224 9.62786Z" fill="#333333"/>
<path d="M27.2848 26.3873C27.034 26.3873 26.8307 26.5906 26.8307 26.8414V29.7666L25.5795 28.8792C25.272 28.6611 24.8584 28.661 24.5506 28.8792L22.8453 30.0886L21.1399 28.8792C20.8322 28.6611 20.4186 28.661 20.1109 28.8792L18.4056 30.0887L16.7 28.8792C16.3923 28.661 15.9789 28.661 15.671 28.8792L14.4195 29.7666V19.0419C14.6268 18.9999 14.7828 18.8166 14.7828 18.597C14.7828 18.3773 14.6268 18.194 14.4195 18.152V8.76072C14.4195 6.45618 13.8383 4.28322 12.783 2.64209C12.3212 1.92382 11.7912 1.34227 11.2139 0.90918H16.7342C16.985 0.90918 17.1883 0.705924 17.1883 0.455078C17.1883 0.204232 16.985 0.000976562 16.7342 0.000976562H8.62442C5.84919 0.000976562 3.49537 2.91897 2.94785 6.9847H1.77602C0.796736 6.9847 0 7.78143 0 8.76072C0 9.74006 0.796736 10.5368 1.77602 10.5368H2.94857C3.21032 12.4718 3.89849 14.2223 4.90284 15.4914C4.99245 15.6046 5.12517 15.6637 5.25922 15.6637C5.35791 15.6637 5.45727 15.6318 5.54071 15.5657C5.73736 15.4101 5.7706 15.1245 5.615 14.9278C4.73107 13.8108 4.11664 12.2632 3.86525 10.5369H5.94704C6.41531 12.0846 7.4466 13.0705 8.62442 13.0705C9.44653 13.0705 10.2048 12.5954 10.7595 11.7327C11.3096 10.8774 11.5579 9.78995 11.5579 8.76078C11.5579 7.73402 11.3103 6.64545 10.7595 5.7889C10.2048 4.92616 9.44659 4.45105 8.62442 4.45105C7.44593 4.45105 6.41518 5.43669 5.94698 6.9847H3.86556C4.10817 5.32099 4.69051 3.81464 5.52593 2.70827C6.40199 1.54813 7.50242 0.90918 8.62448 0.90918C9.89124 0.90918 11.0968 1.69907 12.0191 3.13331C12.9814 4.62973 13.5113 6.6282 13.5113 8.76066C13.5113 10.8931 12.9814 12.8917 12.0191 14.3881C11.0968 15.8223 9.89118 16.6122 8.62448 16.6122C8.056 16.6122 7.4974 16.4529 6.96392 16.1388C6.74795 16.0117 6.46956 16.0836 6.34217 16.2997C6.2149 16.5157 6.28695 16.7941 6.50304 16.9214C7.17795 17.3188 7.89174 17.5205 8.62442 17.5205H13.5112V29.8028C13.5112 30.1368 13.6956 30.4396 13.9923 30.593C14.2889 30.7463 14.6427 30.7216 14.9151 30.5284L16.1854 29.6277L17.8911 30.8371C18.1988 31.0552 18.6124 31.0554 18.9201 30.8371L20.6253 29.6277L22.3307 30.8371C22.4846 30.9462 22.6649 31.0007 22.8452 31.0007C23.0255 31.0007 23.2058 30.9462 23.3597 30.8371L25.065 29.6277L26.3348 30.5283C26.6073 30.7214 26.9609 30.7464 27.2577 30.5929C27.5545 30.4395 27.7388 30.1367 27.7388 29.8027V26.8413C27.739 26.5906 27.5356 26.3873 27.2848 26.3873ZM0.908203 8.76072C0.908203 8.28222 1.29752 7.8929 1.77602 7.8929H10.5795C10.6268 8.18274 10.6496 8.48148 10.6496 8.76072C10.6496 9.04032 10.6268 9.33858 10.5795 9.6286H1.77602C1.29752 9.6286 0.908203 9.23922 0.908203 8.76072ZM8.62442 12.1622C7.93116 12.1622 7.27447 11.5261 6.90501 10.5367H10.3409C9.97922 11.5038 9.33797 12.1622 8.62442 12.1622ZM8.62442 5.35925C9.33797 5.35925 9.97922 6.0177 10.3409 6.9847H6.90501C7.27441 5.99512 7.93067 5.35925 8.62442 5.35925ZM11.2139 16.6123C11.7911 16.1791 12.321 15.5976 12.783 14.8793C13.0591 14.4498 13.3019 13.9832 13.5112 13.488V16.6123H11.2139Z" fill="#333333"/>
<path d="M16.2803 18.1421C16.0294 18.1421 15.8262 18.3453 15.8262 18.5962C15.8262 18.847 16.0294 19.0503 16.2803 19.0503H16.9898C17.2406 19.0503 17.4439 18.847 17.4439 18.5962C17.4439 18.3453 17.2406 18.1421 16.9898 18.1421H16.2803Z" fill="#333333"/>
<path d="M22.31 19.0503C22.5609 19.0503 22.7641 18.847 22.7641 18.5962C22.7641 18.3453 22.5609 18.1421 22.31 18.1421H21.6006C21.3497 18.1421 21.1465 18.3453 21.1465 18.5962C21.1465 18.847 21.3497 19.0503 21.6006 19.0503H22.31Z" fill="#333333"/>
<path d="M24.9702 19.0503C25.2211 19.0503 25.4243 18.847 25.4243 18.5962C25.4243 18.3453 25.2211 18.1421 24.9702 18.1421H24.2607C24.0099 18.1421 23.8066 18.3453 23.8066 18.5962C23.8066 18.847 24.0099 19.0503 24.2607 19.0503H24.9702Z" fill="#333333"/>
<path d="M19.6499 19.0503C19.9008 19.0503 20.104 18.847 20.104 18.5962C20.104 18.3453 19.9008 18.1421 19.6499 18.1421H18.9404C18.6896 18.1421 18.4863 18.3453 18.4863 18.5962C18.4863 18.847 18.6896 19.0503 18.9404 19.0503H19.6499Z" fill="#333333"/>
</g>
<defs>
<clipPath id="clip0_1_5648">
<rect width="31" height="31" fill="white"/>
</clipPath>
</defs>
</svg>
