<svg width="31" height="31" viewBox="0 0 31 31" fill="none" xmlns="http://www.w3.org/2000/svg">
<g clip-path="url(#clip0_1_5645)">
<path d="M30.5564 24.2769C30.553 24.2768 30.5496 24.2768 30.5462 24.2768C30.3001 24.2768 30.0978 24.4735 30.0924 24.7208C30.0609 26.1416 29.49 27.4776 28.4847 28.4829C27.4472 29.5204 26.0677 30.0919 24.6003 30.0919C23.1329 30.0919 21.7534 29.5204 20.7157 28.4829L16.0453 23.8125C15.9706 23.7377 15.9697 23.6159 16.0453 23.5403L18.7088 20.8768L19.8179 21.9859L17.8953 23.9086C17.7179 24.086 17.7179 24.3735 17.8953 24.5508C18.0727 24.7281 18.3601 24.7281 18.5375 24.5508L21.224 21.8642L22.1995 22.8398L19.6407 25.3986C19.4634 25.5759 19.4634 25.8635 19.6407 26.0408C19.8181 26.2181 20.1056 26.2181 20.2829 26.0408L22.8417 23.482L23.743 24.3833L21.1842 26.9421C21.0068 27.1194 21.0068 27.407 21.1842 27.5842C21.3616 27.7616 21.649 27.7616 21.8264 27.5842L24.3852 25.0255L25.0229 25.6632L24.589 28.4637C24.5506 28.7115 24.7204 28.9436 24.9682 28.9819C24.9918 28.9856 25.0151 28.9873 25.0383 28.9873C25.2584 28.9873 25.4517 28.827 25.4864 28.6027L25.8186 26.4589L27.3309 27.9712C27.5082 28.1485 27.7957 28.1485 27.9731 27.9712C28.1504 27.7939 28.1504 27.5063 27.9731 27.329L26.4609 25.8168L28.6045 25.4848C28.8524 25.4464 29.0221 25.2144 28.9837 24.9665C28.9454 24.7187 28.7136 24.5488 28.4655 24.5872L25.665 25.021L25.0273 24.3833L27.5861 21.8244C27.7634 21.6471 27.7634 21.3595 27.5861 21.1823C27.4087 21.0049 27.1212 21.0049 26.9439 21.1823L24.3851 23.741L23.4838 22.8398L26.0426 20.2809C26.2199 20.1036 26.2199 19.816 26.0426 19.6388C25.8652 19.4614 25.5777 19.4614 25.4004 19.6388L22.8417 22.1975L21.8662 21.222L24.5527 18.5355C24.73 18.3582 24.73 18.0706 24.5527 17.8933C24.3753 17.716 24.0878 17.716 23.9105 17.8933L21.9878 19.816L20.8787 18.7069L23.5422 16.0434C23.6173 15.9683 23.739 15.9682 23.8143 16.0434L28.4848 20.7138C29.079 21.3081 29.5187 22.0089 29.7914 22.7968C29.8734 23.0337 30.1318 23.1593 30.369 23.0773C30.606 22.9954 30.7316 22.7367 30.6497 22.4997C30.3316 21.5808 29.8193 20.7638 29.127 20.0715L24.4565 15.4011C24.0264 14.971 23.3302 14.9709 22.9 15.4011L20.2365 18.0646L11.6061 9.43431C11.8935 9.04215 11.8566 8.49561 11.5068 8.14589L4.05715 0.696216C3.1291 -0.232012 1.62641 -0.232133 0.698124 0.696216C-0.230043 1.62438 -0.230164 3.12683 0.698124 4.05518L2.18107 5.53813C2.35847 5.71546 2.64594 5.71546 2.82328 5.53813C3.00062 5.36079 3.00062 5.07325 2.82328 4.89598L1.34033 3.41297C0.766965 2.8396 0.766965 1.91179 1.34033 1.33837C1.91352 0.765178 2.84163 0.764936 3.41494 1.33837L10.8646 8.7881C10.8983 8.82171 10.8983 8.87596 10.8646 8.90968L8.91153 10.8627C8.87859 10.8956 8.82422 10.8969 8.79001 10.8626L4.32173 6.39442C4.14427 6.21703 3.8568 6.21715 3.67952 6.39442C3.50218 6.57176 3.50218 6.8593 3.67952 7.03657L8.14768 11.5047C8.49739 11.8546 9.04406 11.8916 9.43628 11.6041L18.0667 20.2345L15.4031 22.8981C14.9729 23.3281 14.973 24.0242 15.4031 24.4545L20.0736 29.125C21.2827 30.3341 22.8903 31 24.6003 31C26.3104 31 27.918 30.3341 29.127 29.125C30.2985 27.9535 30.9638 26.3966 31.0004 24.7408C31.0059 24.4901 30.8071 24.2824 30.5564 24.2769ZM20.2365 19.349L21.3456 20.4582L20.4602 21.3437L19.351 20.2345L20.2365 19.349ZM10.0876 10.9711C10.5817 10.477 10.3692 10.6895 10.9731 10.0856L19.5943 18.7068L18.7088 19.5923L10.0876 10.9711Z" fill="#333333"/>
</g>
<defs>
<clipPath id="clip0_1_5645">
<rect width="31" height="31" fill="white"/>
</clipPath>
</defs>
</svg>
