<svg width="24" height="24" viewBox="0 0 24 24" fill="none" xmlns="http://www.w3.org/2000/svg">
<path d="M21.7794 6.37746H20.3372C20.1344 6.37746 19.9541 6.44507 19.7963 6.55775C19.1428 2.77183 15.8527 0 12.0217 0C8.1907 0 4.90056 2.77183 4.20196 6.55775C4.04422 6.44507 3.86394 6.37746 3.66112 6.37746H2.21887C1.97098 6.4 1.74563 6.49014 1.56534 6.67042C1.38506 6.8507 1.29492 7.07606 1.29492 7.32394C1.29492 7.57183 1.38506 7.79718 1.56534 7.97747C1.74563 8.15775 1.97098 8.24789 2.21887 8.24789H2.60196C2.78225 12.8451 6.25267 16.631 10.8048 17.2169V21.5662H8.39351C7.24422 21.5662 6.32027 22.4901 6.32027 23.6394C6.32027 23.8423 6.47802 24 6.68084 24H17.2949C17.4977 24 17.6555 23.8423 17.6555 23.6394C17.6555 22.4901 16.7315 21.5662 15.5822 21.5662H13.1484V17.1944C17.7231 16.631 21.216 12.8225 21.3963 8.22535H21.7794C22.0273 8.22535 22.2527 8.13521 22.433 7.95493C22.6132 7.77465 22.7034 7.5493 22.7034 7.30141C22.7034 6.80563 22.2977 6.37746 21.7794 6.37746ZM6.95126 2.86197C9.76816 0 14.2977 0 17.1146 2.86197C18.4442 4.23662 19.2104 6.10704 19.2104 8.06761C19.2104 10.0056 18.4668 11.8761 17.1146 13.2507C14.2977 16.1127 9.76816 16.1352 6.95126 13.2507C4.13436 10.3662 4.13436 5.72394 6.95126 2.86197ZM2.26394 7.5493C2.19633 7.5493 2.12872 7.52676 2.10619 7.48169C2.06112 7.43662 2.03858 7.39155 2.03858 7.32394C2.03858 7.25634 2.06112 7.21127 2.10619 7.1662C2.15126 7.12113 2.19633 7.09859 2.26394 7.09859H3.70619C3.8414 7.09859 3.93154 7.18873 3.93154 7.32394C3.93154 7.39155 3.90901 7.43662 3.86394 7.48169C3.81887 7.52676 3.7738 7.5493 3.70619 7.5493H2.26394ZM15.5822 22.2873C16.2132 22.3099 16.7541 22.7155 16.9118 23.3239H7.08647C7.24422 22.7155 7.78506 22.2873 8.41605 22.2873H12.8104H15.5822ZM11.5259 17.2394C11.6837 17.262 11.8414 17.262 11.9991 17.262C12.1569 17.262 12.2921 17.262 12.4499 17.262L12.4724 21.5437H11.5259V17.2394ZM12.4724 16.4732C7.67239 16.7211 3.59351 13.0479 3.34563 8.24789H3.70619C3.86394 8.24789 3.99915 8.20282 4.13436 8.13521C4.13436 12.4845 7.67239 16.0225 12.0217 16.0225C16.371 16.0225 19.909 12.4845 19.909 8.13521C20.0442 8.20282 20.1794 8.24789 20.3372 8.24789H20.6977C20.4724 12.6873 16.9118 16.2479 12.4724 16.4732ZM21.9372 7.48169C21.8921 7.52676 21.847 7.5493 21.7794 7.5493H20.3372C20.2696 7.5493 20.2245 7.50423 20.1794 7.48169C20.1344 7.43662 20.1118 7.39155 20.1118 7.32394C20.1118 7.25634 20.1344 7.21127 20.1794 7.1662C20.2245 7.12113 20.2921 7.09859 20.3372 7.09859H21.7794C21.9146 7.09859 22.0048 7.18873 22.0048 7.32394C22.0048 7.39155 21.9822 7.43662 21.9372 7.48169Z" fill="#333333"/>
</svg>
