<svg width="31" height="31" viewBox="0 0 31 31" fill="none" xmlns="http://www.w3.org/2000/svg">
<path d="M6.37445 28.8416C6.45146 28.9603 6.57692 29.0393 6.71738 29.0581L13.983 30.0269C14.0043 30.0298 14.0256 30.0312 14.0469 30.0312C14.1637 30.0312 14.2775 29.9891 14.3662 29.9111C14.4713 29.8196 14.5313 29.6864 14.5313 29.5469V28.5781H16.4688V29.5469C16.4688 29.6864 16.5289 29.8196 16.634 29.9111C16.7226 29.9891 16.8365 30.0312 16.9532 30.0312C16.9745 30.0312 16.9958 30.0298 17.0171 30.0269L24.2828 29.0581C24.4232 29.0393 24.5487 28.9603 24.6257 28.8416C24.7022 28.7225 24.7235 28.5757 24.6833 28.4401L20.028 12.7817C21.4593 11.4947 22.2813 9.68314 22.2813 7.75C22.2813 4.01063 19.2394 0.96875 15.5001 0.96875C11.7607 0.96875 8.71882 4.01063 8.71882 7.75C8.71882 9.68314 9.54081 11.4947 10.9721 12.7812L6.31681 28.4396C6.2766 28.5757 6.29792 28.7225 6.37445 28.8416ZM12.4858 10.1719C11.9312 9.48406 11.6251 8.63447 11.6251 7.75C11.6251 5.61342 13.3635 3.875 15.5001 3.875C17.6367 3.875 19.3751 5.61342 19.3751 7.75C19.3751 8.63447 19.0689 9.48406 18.5143 10.1719H17.9219H13.5626H12.4858ZM13.9767 11.1406H17.4942L19.3107 25.6719H11.7064L13.9767 11.1406ZM17.4376 26.6406H18.8069L17.4376 28.2381V26.6406ZM13.5626 26.6406V28.2381L12.1932 26.6406H13.5626ZM14.5313 27.6094V26.6406H16.4688V27.6094H14.5313ZM18.1462 28.8988L20.2213 26.4779C20.2218 26.4774 20.2222 26.4774 20.2227 26.4764C20.2232 26.4759 20.2232 26.475 20.2237 26.4745L20.2266 26.4706L20.2256 26.4701C20.3143 26.3665 20.3564 26.2308 20.3395 26.0957L18.4707 11.1406H18.5294L23.593 28.1727L18.1462 28.8988ZM9.68757 7.75C9.68757 4.54489 12.295 1.9375 15.5001 1.9375C18.7052 1.9375 21.3126 4.54489 21.3126 7.75C21.3126 9.24963 20.7371 10.6659 19.7185 11.7403L19.4579 10.8645C19.4366 10.7924 19.3978 10.7299 19.361 10.6659C19.998 9.827 20.3438 8.80788 20.3438 7.75C20.3438 5.07916 18.1709 2.90625 15.5001 2.90625C12.8292 2.90625 10.6563 5.07916 10.6563 7.75C10.6563 8.80788 11.0022 9.827 11.6386 10.6659C11.6018 10.7294 11.5636 10.7924 11.5418 10.8645L11.2812 11.7403C10.263 10.6659 9.68757 9.24963 9.68757 7.75ZM12.4708 11.1406H12.9963L10.6616 26.0817C10.6399 26.2216 10.6801 26.364 10.7726 26.4716C10.7731 26.4721 10.7735 26.4721 10.774 26.4725L12.8539 28.8993L7.40713 28.1732L12.4708 11.1406Z" fill="#333333"/>
</svg>
