<svg width="28" height="28" viewBox="0 0 28 28" fill="none" xmlns="http://www.w3.org/2000/svg">
<g clip-path="url(#clip0_1_5729)">
<path d="M27.985 16.3837C27.9239 16.0008 27.6757 15.6737 27.3235 15.5117C27.4539 15.1782 27.5247 14.8243 27.5326 14.4664C27.5314 13.5397 26.9819 12.7016 26.1326 12.3309V2.33328C26.1326 1.04467 25.0879 0 23.7993 0C22.5107 0 21.466 1.04467 21.466 2.33328V2.34402C20.2037 2.39593 19.1905 3.40444 19.1328 4.66657C19.1328 4.92428 19.3417 5.13322 19.5994 5.13322H23.7993C24.057 5.13322 24.266 4.92428 24.266 4.66657C24.2288 3.58048 23.4607 2.65755 22.3994 2.42381V2.33328C22.3994 1.56009 23.0261 0.933313 23.7993 0.933313C24.5725 0.933313 25.1993 1.56009 25.1993 2.33328V12.1331C24.9903 12.1332 24.7824 12.1625 24.5814 12.2199C23.9875 10.1131 21.7982 8.88672 19.6914 9.4806C18.5641 9.79839 17.635 10.5986 17.1537 11.6664C16.9766 11.673 16.8004 11.6941 16.6268 11.7294C16.1549 10.5386 14.807 9.95583 13.6162 10.4277C13.3185 10.5457 13.0485 10.7241 12.8231 10.9515C11.2749 9.40926 8.76965 9.41404 7.22735 10.9622C7.11745 11.0725 7.01414 11.1893 6.91801 11.3118C5.38423 10.8953 3.7735 11.6441 3.10309 13.0851C1.83338 12.9105 0.662536 13.7984 0.488065 15.0682C0.472898 15.178 0.465723 15.2888 0.466482 15.3997V15.6386C-0.0469575 16.0214 -0.152772 16.748 0.23012 17.2615C0.4113 17.5044 0.680386 17.6668 0.979804 17.7138L1.27566 20.5287C1.57135 22.8049 3.01921 24.7681 5.10645 25.723L4.91979 26.4622C4.75418 27.1254 5.15749 27.7972 5.82061 27.9628C6.32804 28.0895 6.86038 27.8836 7.15041 27.4483L7.7692 26.5201C8.14602 26.5707 8.52576 26.5972 8.90597 26.5994H19.0936C19.4738 26.5972 19.8535 26.5707 20.2303 26.5201L20.8496 27.4487C21.2287 28.0175 21.9971 28.1711 22.5658 27.792C23.0018 27.5014 23.2075 26.9676 23.0793 26.4594L22.8926 25.7212C24.9801 24.767 26.4286 22.8046 26.7253 20.5287L27.0211 17.7138C27.6546 17.6127 28.0861 17.0172 27.985 16.3837ZM22.5037 3.46428C22.8182 3.62861 23.075 3.88532 23.2393 4.19991H20.1593C20.6036 3.34943 21.6532 3.02003 22.5037 3.46428ZM2.79977 13.9997C2.95061 14.0023 3.1 14.0294 3.24216 14.08C3.48634 14.1624 3.7511 14.0313 3.83359 13.7871C3.83481 13.7835 3.83598 13.7798 3.83714 13.7762C4.21671 12.5464 5.52143 11.857 6.7513 12.2367C6.81033 12.2549 6.86861 12.2755 6.92595 12.2983C7.13227 12.3799 7.36764 12.305 7.48874 12.1191C8.39469 10.7146 10.2677 10.3104 11.6723 11.2164C11.9819 11.4162 12.2526 11.6708 12.4708 11.9679C12.6244 12.1748 12.9167 12.218 13.1236 12.0644C13.1761 12.0254 13.2198 11.9758 13.2519 11.9189C13.6219 11.2467 14.4668 11.0018 15.1389 11.3718C15.5173 11.5801 15.7773 11.9525 15.8424 12.3795C15.8826 12.634 16.1215 12.8079 16.376 12.7677C16.406 12.7629 16.4354 12.7553 16.4639 12.7449C16.7207 12.6495 16.9923 12.6004 17.2661 12.5997C17.3128 12.5997 17.3595 12.6035 17.4337 12.6091C17.6423 12.6199 17.8336 12.4938 17.9059 12.2978C18.4579 10.718 20.1859 9.88478 21.7657 10.4367C22.8556 10.8175 23.6344 11.7845 23.7741 12.9306C23.8053 13.1864 24.0381 13.3685 24.2939 13.3373C24.3595 13.3293 24.4227 13.3074 24.4792 13.2731C24.6955 13.139 24.9448 13.0674 25.1993 13.0664C25.9725 13.0664 26.5993 13.6932 26.5993 14.4664C26.5936 14.7928 26.509 15.113 26.3529 15.3997H1.3998C1.3998 14.6265 2.02657 13.9997 2.79977 13.9997ZM6.37389 26.9303C6.31754 27.0152 6.2224 27.0662 6.1205 27.0661C5.95168 27.0654 5.81536 26.9281 5.81595 26.7593C5.816 26.7353 5.81892 26.7114 5.82464 26.6881L5.9735 26.095C6.23203 26.1883 6.49616 26.2714 6.76682 26.339L6.37389 26.9303ZM22.1194 26.949H22.118C22.0611 27.0236 21.9724 27.0671 21.8786 27.0661C21.7769 27.0663 21.6819 27.0155 21.6256 26.9308L21.2327 26.339C21.5043 26.2714 21.7684 26.1874 22.026 26.095L22.1744 26.6872C22.1983 26.7782 22.1779 26.8752 22.1194 26.949ZM25.7971 20.4312C25.4826 23.4159 22.601 25.6661 19.0936 25.6661H8.90551C5.39811 25.6661 2.51651 23.4159 2.20198 20.4312L1.91778 17.733H26.0813L25.7971 20.4312ZM26.8326 16.7996H1.16647C1.03761 16.7996 0.933139 16.6952 0.933139 16.5663C0.933139 16.4375 1.03761 16.333 1.16647 16.333H26.8326C26.9615 16.333 27.0659 16.4375 27.0659 16.5663C27.0659 16.6952 26.9615 16.7996 26.8326 16.7996Z" fill="#333333"/>
<path d="M20.9999 5.59985C20.7421 5.59985 20.5332 5.8088 20.5332 6.06651V6.99982C20.5332 7.25754 20.7421 7.46648 20.9999 7.46648C21.2576 7.46648 21.4665 7.25754 21.4665 6.99982V6.06651C21.4665 5.8088 21.2576 5.59985 20.9999 5.59985Z" fill="#333333"/>
<path d="M22.4667 5.59985C22.2089 5.59985 22 5.8088 22 6.06651V6.99982C22 7.25754 22.2089 7.46648 22.4667 7.46648C22.7244 7.46648 22.9333 7.25754 22.9333 6.99982V6.06651C22.9333 5.8088 22.7244 5.59985 22.4667 5.59985Z" fill="#333333"/>
<path d="M9.40687 7.13386C9.71378 7.65724 10.3789 8 11.1153 8C12.1545 8 13 7.3271 13 6.5C13 5.6729 12.1545 5 11.1153 5C10.3789 5 9.71378 5.34276 9.40687 5.86614H8.75187C8.61242 5.86614 8.49937 5.9561 8.49937 6.06707C8.49937 6.17803 8.61242 6.26799 8.75187 6.26799H11.1153C11.2761 6.26799 11.4069 6.37208 11.4069 6.5C11.4069 6.56191 11.3766 6.6201 11.3216 6.66388C11.2664 6.70781 11.1931 6.73198 11.1153 6.73198H2.88503C2.72427 6.73198 2.59347 6.6279 2.59347 6.49997C2.59347 6.43803 2.62387 6.37966 2.67875 6.33583C2.73376 6.29208 2.80702 6.26797 2.88503 6.26797H7.57352C7.71297 6.26797 7.82602 6.178 7.82602 6.06704C7.82602 5.95607 7.71297 5.86611 7.57352 5.86611H4.59347C4.28656 5.34276 3.62136 5 2.88503 5C1.84562 5 1 5.6729 1 6.5C1 7.3271 1.84562 8 2.88503 8C3.6214 8 4.28652 7.65724 4.59347 7.13386H9.40687ZM11.6787 6.94802C11.8291 6.82834 11.9119 6.66924 11.9119 6.5C11.9119 6.15049 11.5545 5.86614 11.1153 5.86614H9.9883C10.2428 5.58034 10.6606 5.40186 11.1153 5.40186C11.8761 5.40186 12.495 5.89448 12.495 6.5C12.495 7.10552 11.8761 7.59814 11.1153 7.59814C10.6606 7.59814 10.2428 7.41966 9.9883 7.13386H11.1153C11.3281 7.13386 11.5281 7.06785 11.6787 6.94802ZM2.88503 7.59814C2.12408 7.59814 1.50501 7.10552 1.50501 6.5C1.50501 5.89448 2.12408 5.40186 2.88503 5.40186C3.33977 5.40186 3.75755 5.58034 4.01204 5.86614H2.88503C2.67212 5.86614 2.47203 5.93204 2.32134 6.05196C2.17115 6.1719 2.08846 6.33101 2.08846 6.5C2.08846 6.84951 2.4458 7.13386 2.88503 7.13386H4.01204C3.75755 7.41966 3.33977 7.59814 2.88503 7.59814Z" fill="#333333"/>
</g>
<defs>
<clipPath id="clip0_1_5729">
<rect width="28" height="28" fill="white"/>
</clipPath>
</defs>
</svg>
