<svg width="31" height="31" viewBox="0 0 31 31" fill="none" xmlns="http://www.w3.org/2000/svg">
<g clip-path="url(#clip0_1_5658)">
<path d="M29.1836 1.21094C28.3944 1.21094 27.7212 1.71707 27.4713 2.42188H23.0078C23.0078 1.08653 21.9213 0 20.5859 0C19.248 0 18.1641 1.08369 18.1641 2.42188H15.7422C15.7422 1.08653 14.6557 0 13.3203 0C11.9824 0 10.8984 1.08369 10.8984 2.42188H8.47656C8.47656 1.08653 7.39003 0 6.05469 0C4.71674 0 3.63281 1.08369 3.63281 2.42188H0.605469C0.271042 2.42188 0 2.69292 0 3.02734C0 3.36177 0.271042 3.6321 0.605469 3.6321H3.63281C3.63281 4.30001 3.08955 4.84375 2.42188 4.84375H0.605469C0.271042 4.84375 0 5.11479 0 5.44922V14.2891C0 14.6235 0.271042 14.8945 0.605469 14.8945C0.939896 14.8945 1.21094 14.6235 1.21094 14.2891V6.05469H2.42188C3.75722 6.05469 4.84375 4.96815 4.84375 3.63281V2.42188C4.84375 1.75302 5.38583 1.21094 6.05469 1.21094C6.72236 1.21094 7.26562 1.7542 7.26562 2.42188V3.63281C7.26562 4.97076 8.34932 6.05469 9.6875 6.05469C11.0228 6.05469 12.1094 4.96815 12.1094 3.63281V2.42188C12.1094 1.75302 12.6515 1.21094 13.3203 1.21094C13.988 1.21094 14.5312 1.7542 14.5312 2.42188V3.63281C14.5312 4.97076 15.6149 6.05469 16.9531 6.05469C18.2885 6.05469 19.375 4.96815 19.375 3.63281V2.42188C19.375 1.75302 19.9171 1.21094 20.5859 1.21094C21.2536 1.21094 21.7969 1.7542 21.7969 2.42188V28.5781C21.7969 29.247 21.2548 29.7891 20.5859 29.7891C19.9183 29.7891 19.375 29.2458 19.375 28.5781C19.375 26.8083 19.375 15.1795 19.375 12.7148C19.375 12.3804 19.104 12.1094 18.7695 12.1094C18.4351 12.1094 18.1641 12.3804 18.1641 12.7148V25.2696C17.7998 25.0584 17.3852 24.9453 16.9531 24.9453C16.5123 24.9453 16.0986 25.0643 15.7422 25.2712V7.87109C15.7422 7.53667 15.4711 7.26562 15.1367 7.26562C14.8023 7.26562 14.5312 7.53667 14.5312 7.87109V28.5781C14.5312 29.247 13.9892 29.7891 13.3203 29.7891C12.6526 29.7891 12.1094 29.2458 12.1094 28.5781C12.1094 26.8083 12.1094 15.1795 12.1094 12.7148C12.1094 12.3804 11.8383 12.1094 11.5039 12.1094C11.1695 12.1094 10.8984 12.3804 10.8984 12.7148V25.2696C10.5342 25.0584 10.1196 24.9453 9.6875 24.9453C9.24664 24.9453 8.83298 25.0643 8.47656 25.2712V7.87109C8.47656 7.53667 8.20552 7.26562 7.87109 7.26562C7.53667 7.26562 7.26562 7.53667 7.26562 7.87109V28.5781C7.26562 29.247 6.72354 29.7891 6.05469 29.7891C5.38702 29.7891 4.84375 29.2458 4.84375 28.5781C4.84375 26.8083 4.84375 15.1795 4.84375 12.7148C4.84375 12.3804 4.57271 12.1094 4.23828 12.1094C3.90385 12.1094 3.63281 12.3804 3.63281 12.7148V25.2712C3.27639 25.0643 2.86273 24.9453 2.42188 24.9453H1.21094V19.1328C1.21094 18.7984 0.939896 18.5273 0.605469 18.5273C0.271042 18.5273 0 18.7984 0 19.1328V25.5508C0 25.8852 0.271042 26.1562 0.605469 26.1562H2.42188C3.08955 26.1562 3.63281 26.6995 3.63281 27.3672V28.5781C3.63281 29.9135 4.71935 31 6.05469 31C7.39263 31 8.47656 29.9163 8.47656 28.5781V27.3672C8.47656 26.6995 9.01983 26.1562 9.6875 26.1562C10.3561 26.1562 10.8984 26.6983 10.8984 27.3672V28.5781C10.8984 29.9135 11.985 31 13.3203 31C14.6583 31 15.7422 29.9163 15.7422 28.5781V27.3672C15.7422 26.6995 16.2855 26.1562 16.9531 26.1562C17.6217 26.1562 18.1641 26.6983 18.1641 27.3672V28.5781C18.1641 29.9135 19.2506 31 20.5859 31C21.9239 31 23.0078 29.9163 23.0078 28.5781V3.63281H27.4713C27.7212 4.33762 28.3944 4.84375 29.1836 4.84375C30.1852 4.84375 31 4.02897 31 3.02734C31 2.02572 30.1852 1.21094 29.1836 1.21094ZM9.6875 4.84375C9.01888 4.84375 8.47656 4.30096 8.47656 3.6321H10.8984C10.8984 4.30001 10.3552 4.84375 9.6875 4.84375ZM16.9531 4.84375C16.2845 4.84375 15.7422 4.30096 15.7422 3.6321H18.1641C18.1641 4.30001 17.6208 4.84375 16.9531 4.84375ZM29.1836 3.63281C28.8496 3.63281 28.5781 3.3613 28.5781 3.02734C28.5781 2.69339 28.8496 2.42188 29.1836 2.42188C29.5175 2.42188 29.7891 2.69339 29.7891 3.02734C29.7891 3.3613 29.5175 3.63281 29.1836 3.63281Z" fill="#333333"/>
<path d="M1.21094 16.7109C1.21094 17.0454 0.939896 17.3164 0.605469 17.3164C0.271042 17.3164 0 17.0454 0 16.7109C0 16.3765 0.271042 16.1055 0.605469 16.1055C0.939896 16.1055 1.21094 16.3765 1.21094 16.7109Z" fill="#333333"/>
</g>
<defs>
<clipPath id="clip0_1_5658">
<rect width="31" height="31" fill="white"/>
</clipPath>
</defs>
</svg>
