<svg width="30" height="30" viewBox="0 0 30 30" fill="none" xmlns="http://www.w3.org/2000/svg">
<path d="M17.3438 5.18481H12.6562V6.06372H17.3438V5.18481Z" fill="#333333"/>
<path d="M17.3438 3.66138H12.6562V4.54028H17.3438V3.66138Z" fill="#333333"/>
<path d="M1.75781 3.07568V3.61973C1.62029 3.57098 1.47234 3.54443 1.31836 3.54443C0.591445 3.54443 0 4.13582 0 4.86279C0 5.58977 0.591445 6.18115 1.31836 6.18115C1.47234 6.18115 1.62029 6.15461 1.75781 6.10586V26.9241H2.19727C2.70697 26.9241 2.97973 26.7589 3.19893 26.6262C3.36879 26.5233 3.481 26.4554 3.74531 26.4554C4.00963 26.4554 4.12184 26.5233 4.2917 26.6262C4.51084 26.7589 4.78365 26.9241 5.29336 26.9241C5.80301 26.9241 6.07582 26.7589 6.29496 26.6262C6.46471 26.5233 6.57697 26.4554 6.84117 26.4554C7.10537 26.4554 7.21758 26.5233 7.38732 26.6262C7.60646 26.7589 7.87922 26.9241 8.38887 26.9241C8.89852 26.9241 9.17133 26.7589 9.39047 26.6262C9.56021 26.5233 9.67248 26.4554 9.93662 26.4554C10.2009 26.4554 10.3131 26.5233 10.4828 26.6262C10.702 26.7589 10.9748 26.9241 11.4844 26.9241L11.9238 26.9233V3.07568H1.75781ZM1.31836 5.30225C1.07602 5.30225 0.878906 5.10514 0.878906 4.86279C0.878906 4.62045 1.07602 4.42334 1.31836 4.42334C1.5607 4.42334 1.75781 4.62045 1.75781 4.86279C1.75781 5.10514 1.5607 5.30225 1.31836 5.30225ZM11.0449 25.9372C11.0106 25.9182 10.9758 25.8971 10.9382 25.8743C10.7426 25.7558 10.5042 25.6114 10.0928 25.5818V13.2746H9.21387V25.7217C9.10699 25.7702 9.01729 25.8245 8.93508 25.8743C8.76533 25.9771 8.65307 26.0451 8.38887 26.0451C8.2923 26.0451 8.21602 26.036 8.14986 26.0194H8.33496V8.31982H7.45605V25.6775C7.29586 25.6186 7.09881 25.5764 6.84117 25.5764C6.74519 25.5764 6.6576 25.5822 6.57715 25.5927V12.8901H5.69824V25.9558C5.5899 26.0116 5.47922 26.0452 5.29336 26.0452C5.06818 26.0452 4.9534 25.9959 4.81934 25.9177V8.31982H3.94043V25.5851C3.87943 25.5795 3.81457 25.5764 3.74531 25.5764C3.23561 25.5764 2.96285 25.7416 2.74365 25.8744C2.70592 25.8972 2.67105 25.9183 2.63672 25.9374V3.95459H3.94043V6.35693H4.81934V3.95459H7.45605V6.35693H8.33496V3.95459H11.0449V25.9372Z" fill="#333333"/>
<path d="M10.0938 8.02661H9.21484V11.8938H10.0938V8.02661Z" fill="#333333"/>
<path d="M10.0938 6.56177H9.21484V7.44067H10.0938V6.56177Z" fill="#333333"/>
<path d="M10.0938 5.09717H9.21484V5.97607H10.0938V5.09717Z" fill="#333333"/>
<path d="M6.57812 7.67505H5.69922V11.5422H6.57812V7.67505Z" fill="#333333"/>
<path d="M6.57812 4.74561H5.69922V5.62451H6.57812V4.74561Z" fill="#333333"/>
<path d="M6.57812 6.21021H5.69922V7.08911H6.57812V6.21021Z" fill="#333333"/>
<path d="M26.4102 6.67896H25.5312V7.55786H26.4102V6.67896Z" fill="#333333"/>
<path d="M26.4102 8.1438H25.5312V12.011H26.4102V8.1438Z" fill="#333333"/>
<path d="M26.4102 5.21436H25.5312V6.09326H26.4102V5.21436Z" fill="#333333"/>
<path d="M22.8945 9.13989H22.0156V10.0188H22.8945V9.13989Z" fill="#333333"/>
<path d="M22.8945 4.74561H22.0156V5.62451H22.8945V4.74561Z" fill="#333333"/>
<path d="M22.8945 6.21021H22.0156V7.08911H22.8945V6.21021Z" fill="#333333"/>
<path d="M22.8945 7.67505H22.0156V8.55395H22.8945V7.67505Z" fill="#333333"/>
<path d="M28.6816 3.54443C28.5277 3.54443 28.3797 3.57098 28.2422 3.61973V3.07568H18.0762V26.9241H18.5156C19.0253 26.9241 19.2981 26.7589 19.5173 26.6262C19.6871 26.5233 19.7994 26.4554 20.0637 26.4554C20.328 26.4554 20.4402 26.5233 20.6101 26.6262C20.8292 26.7589 21.102 26.9241 21.6117 26.9241C22.1214 26.9241 22.3942 26.7589 22.6133 26.6262C22.7831 26.5233 22.8953 26.4554 23.1595 26.4554C23.4237 26.4554 23.5359 26.5233 23.7057 26.6262C23.9248 26.7589 24.1976 26.9241 24.7072 26.9241C25.2169 26.9241 25.4897 26.7589 25.7088 26.6262C25.8786 26.5233 25.9908 26.4554 26.255 26.4554C26.5192 26.4554 26.6314 26.5233 26.8012 26.6262C27.0203 26.7589 27.2931 26.9241 27.8027 26.9241L28.2422 26.9233V6.1058C28.3797 6.15455 28.5277 6.18109 28.6816 6.18109C29.4086 6.18109 30 5.58971 30 4.86273C30 4.1357 29.4086 3.54443 28.6816 3.54443ZM27.3633 25.9372C27.329 25.9182 27.2942 25.8971 27.2566 25.8743C27.0609 25.7558 26.8226 25.6114 26.4111 25.5818V13.2746H25.5322V25.7217C25.4254 25.7702 25.3356 25.8245 25.2534 25.8743C25.0837 25.9771 24.9714 26.0451 24.7072 26.0451C24.6107 26.0451 24.5344 26.036 24.4682 26.0194H24.6533V8.31982H23.7744V25.6775C23.6142 25.6186 23.4172 25.5764 23.1595 25.5764C23.0636 25.5764 22.976 25.5822 22.8955 25.5927V10.8979H22.0166V25.9558C21.9083 26.0116 21.7976 26.0452 21.6117 26.0452C21.3865 26.0452 21.2718 25.9959 21.1377 25.9177V8.31982H20.2588V25.5851C20.1978 25.5795 20.1329 25.5764 20.0637 25.5764C19.554 25.5764 19.2812 25.7416 19.062 25.8744C19.0243 25.8972 18.9894 25.9183 18.9551 25.9374V3.95459H20.2588V6.35693H21.1377V3.95459H23.7744V6.35693H24.6533V3.95459H27.3633V25.9372ZM28.6816 5.30225C28.4393 5.30225 28.2422 5.10514 28.2422 4.86279C28.2422 4.62045 28.4393 4.42334 28.6816 4.42334C28.924 4.42334 29.1211 4.62045 29.1211 4.86279C29.1211 5.10514 28.924 5.30225 28.6816 5.30225Z" fill="#333333"/>
</svg>
