<svg width="31" height="31" viewBox="0 0 31 31" fill="none" xmlns="http://www.w3.org/2000/svg">
<path d="M20.4421 11.9177L19.3126 25.3064C19.2621 25.9058 20.1665 25.9877 20.2176 25.3827L21.3471 11.994C21.3682 11.7441 21.1827 11.5245 20.9328 11.5033C20.6826 11.4823 20.4632 11.6677 20.4421 11.9177Z" fill="#333333"/>
<path d="M10.0663 11.5033C9.81646 11.5245 9.631 11.7441 9.65201 11.994L10.7816 25.3827C10.8327 25.9884 11.7371 25.9058 11.6866 25.3064L10.557 11.9176C10.536 11.6677 10.3162 11.4824 10.0663 11.5033Z" fill="#333333"/>
<path d="M15.0449 11.9558V25.3445C15.0449 25.5953 15.2482 25.7986 15.499 25.7986C15.7499 25.7986 15.9531 25.5953 15.9531 25.3445V11.9558C15.9531 11.705 15.7499 11.5017 15.499 11.5017C15.2482 11.5017 15.0449 11.705 15.0449 11.9558Z" fill="#333333"/>
<path d="M26.9652 3.5076H19.8245V1.91153C19.8245 0.857525 18.9669 0 17.9129 0H13.0864C12.0324 0 11.1749 0.857525 11.1749 1.91153V3.5076H4.03401C2.87908 3.5076 1.93945 4.44723 1.93945 5.60216C1.93945 6.75709 2.87908 7.69672 4.03401 7.69672H4.52244L6.22127 27.8324C6.37227 29.622 7.86863 31 9.66736 31H21.332C23.1279 31 24.6268 29.6248 24.778 27.8324L25.0136 25.0408C25.0346 24.7909 24.8491 24.5713 24.5992 24.5501C24.3487 24.5286 24.1296 24.7145 24.1086 24.9644L23.873 27.7561C23.7626 29.0658 22.6464 30.0918 21.332 30.0918H9.66736C8.35294 30.0918 7.23676 29.0658 7.12626 27.7561L5.43386 7.69672H6.77836C7.02921 7.69672 7.23246 7.4934 7.23246 7.24262C7.23246 6.99183 7.02921 6.78852 6.77836 6.78852C5.78364 6.78852 4.61066 6.78852 4.03401 6.78852C3.37986 6.78852 2.84766 6.25631 2.84766 5.60216C2.84766 4.94801 3.37986 4.4158 4.03401 4.4158H26.9652C27.6194 4.4158 28.1517 4.94801 28.1517 5.60216C28.1517 6.25631 27.6194 6.78852 26.9652 6.78852C26.2599 6.78852 10.4276 6.78852 8.90253 6.78852C8.65168 6.78852 8.44843 6.99183 8.44843 7.24262C8.44843 7.4934 8.65168 7.69672 8.90253 7.69672H25.5655L24.2873 22.8458C24.2662 23.0957 24.4518 23.3154 24.7016 23.3365C24.7146 23.3376 24.7275 23.3382 24.7404 23.3382C24.9739 23.3382 25.1724 23.1591 25.1924 22.9222L26.4769 7.69672H26.9653C28.1202 7.69672 29.0599 6.75709 29.0599 5.60216C29.0599 4.44723 28.1202 3.5076 26.9652 3.5076ZM18.9163 3.5076H12.0831V1.91153C12.0831 1.35831 12.5332 0.908203 13.0864 0.908203H17.9129C18.4662 0.908203 18.9162 1.35831 18.9162 1.91153V3.5076H18.9163Z" fill="#333333"/>
</svg>
