<svg width="29" height="30" viewBox="0 0 29 30" fill="none" xmlns="http://www.w3.org/2000/svg">
<g clip-path="url(#clip0_1_5505)">
<path d="M28.0737 13.5491H20.1905C20.6582 12.6489 20.9081 11.6448 20.9188 10.6229C20.9434 8.29825 19.7426 6.14416 17.7853 5.00197C15.8279 3.85978 13.4247 3.91069 11.5142 5.13483C11.1155 5.38014 10.7457 5.6726 10.4122 6.0063L1.80732 14.9015C0.040115 16.7314 -0.487914 19.4822 0.469335 21.8717C1.42659 24.2612 3.68071 25.8192 6.18109 25.8196H17.1155C17.2416 25.8196 17.3625 25.7677 17.4516 25.6755C18.2185 24.8817 20.2746 22.7665 22.4344 20.543C24.84 18.0683 27.3753 15.4588 28.4098 14.3886C28.5457 14.2479 28.5864 14.0364 28.5128 13.8527C28.4393 13.669 28.266 13.5491 28.0737 13.5491ZM11.0811 6.70712C11.3601 6.42847 11.6693 6.18407 12.0025 5.97876C14.0597 4.65109 16.7303 4.96687 18.4448 6.74052C20.1593 8.51417 20.4646 11.2769 19.1812 13.405C18.9829 13.7448 18.7499 14.0615 18.4861 14.3497L12.2031 20.8524C12.3068 20.3845 12.3599 19.9061 12.3614 19.4261C12.3575 15.8968 9.59276 13.0368 6.18109 13.0327C5.71707 13.0342 5.25466 13.0891 4.8024 13.1965L11.0811 6.70712ZM0.951579 19.4261C0.946728 17.9901 1.49745 16.6118 2.48097 15.5984H2.48335C4.24821 13.7718 7.0146 13.4893 9.09066 14.9236C11.1667 16.358 11.9742 19.1097 11.0193 21.4958C10.0644 23.882 7.61307 25.2381 5.16446 24.7347C2.71585 24.2313 0.951976 22.0087 0.951579 19.4261ZM21.7641 19.8461C19.7222 21.9466 17.7754 23.9507 16.9187 24.836H9.47282C9.86425 24.5835 10.2272 24.2866 10.5549 23.9507L19.166 15.0343C19.3124 14.8748 19.4506 14.7073 19.58 14.5327H26.9246C25.6677 15.8291 23.6762 17.8794 21.7641 19.8461Z" fill="#333333"/>
<path d="M7.60636 19.4261C7.60636 18.6112 6.96782 17.9507 6.18014 17.9507C5.39245 17.9507 4.75391 18.6112 4.75391 19.4261C4.75391 20.2409 5.39245 20.9015 6.18014 20.9015C6.96782 20.9015 7.60636 20.2409 7.60636 19.4261ZM5.70473 19.4261C5.70473 19.1545 5.91757 18.9343 6.18014 18.9343C6.4427 18.9343 6.65554 19.1545 6.65554 19.4261C6.65554 19.6977 6.4427 19.9179 6.18014 19.9179C5.91757 19.9179 5.70473 19.6977 5.70473 19.4261Z" fill="#333333"/>
<path d="M6.65564 15.9835C6.65564 15.7119 6.44279 15.4917 6.18023 15.4917C4.08072 15.4941 2.37931 17.2542 2.37695 19.4261C2.37695 19.6977 2.5898 19.9179 2.85236 19.9179C3.11492 19.9179 3.32777 19.6977 3.32777 19.4261C3.32935 17.7971 4.60551 16.4769 6.18023 16.4753C6.44279 16.4753 6.65564 16.2551 6.65564 15.9835Z" fill="#333333"/>
<path d="M9.50836 18.9343C9.24579 18.9343 9.03295 19.1545 9.03295 19.4261C9.03137 21.0551 7.7552 22.3753 6.18049 22.3769C5.91793 22.3769 5.70508 22.5971 5.70508 22.8688C5.70508 23.1404 5.91793 23.3606 6.18049 23.3606C8.28 23.3581 9.98141 21.598 9.98376 19.4261C9.98376 19.2957 9.93368 19.1706 9.84452 19.0784C9.75536 18.9861 9.63444 18.9343 9.50836 18.9343Z" fill="#333333"/>
</g>
<defs>
<clipPath id="clip0_1_5505">
<rect width="29" height="30" fill="white"/>
</clipPath>
</defs>
</svg>
