<svg width="29" height="30" viewBox="0 0 29 30" fill="none" xmlns="http://www.w3.org/2000/svg">
<g clip-path="url(#clip0_1_5513)">
<path d="M26.2815 15H25.1306C25.4822 14.5964 25.7131 14.0959 25.7952 13.5593C25.8773 13.0226 25.8071 12.4728 25.5932 11.9766C25.3792 11.4804 25.0307 11.0591 24.5899 10.7637C24.1491 10.4683 23.6349 10.3116 23.1097 10.3125H21.5056C21.9564 9.79678 22.2052 9.12575 22.2035 8.43045C22.2017 7.73514 21.9495 7.06547 21.4961 6.55219C22.1919 6.49095 22.8383 6.15506 23.3012 5.61414C23.7642 5.07322 24.0081 4.36876 23.9825 3.6468C23.957 2.92485 23.6638 2.24075 23.1638 1.73634C22.6639 1.23193 21.9955 0.945886 21.2972 0.937504H12.2347C11.7094 0.936571 11.1952 1.0933 10.7544 1.38868C10.3136 1.68406 9.96508 2.10541 9.75114 2.60162C9.53721 3.09784 9.46704 3.64761 9.54915 4.18426C9.63126 4.72091 9.86211 5.22139 10.2137 5.625H7.70341C7.177 5.62396 6.66166 5.78132 6.22018 6.07791C5.77869 6.3745 5.43012 6.79752 5.21694 7.29543C5.00376 7.79334 4.93516 8.34464 5.0195 8.88216C5.10385 9.41969 5.3375 9.92024 5.69199 10.3228C5.18515 10.36 4.69861 10.5438 4.28783 10.8532C3.87705 11.1626 3.55854 11.5851 3.36862 12.0726C3.1787 12.5602 3.125 13.0931 3.21364 13.6107C3.30228 14.1282 3.5297 14.6096 3.86997 15H2.71903C2.44733 14.9915 2.17701 15.0432 1.92627 15.1518C1.67553 15.2604 1.45019 15.4233 1.26541 15.6295C1.11805 15.808 1.01 16.0175 0.94873 16.2435C0.887464 16.4695 0.874457 16.7066 0.910612 16.9383L2.26999 27.2616C2.42813 28.2755 3.61531 29.0625 4.53153 29.0625H24.469C25.3853 29.0625 26.5724 28.2755 26.7306 27.2508L28.09 16.9416C28.1266 16.7093 28.1139 16.4716 28.0527 16.2449C27.9915 16.0182 27.8833 15.8081 27.7356 15.6291C27.5507 15.4229 27.3253 15.26 27.0745 15.1515C26.8237 15.043 26.5533 14.9913 26.2815 15ZM12.2347 1.875H21.2972C21.7779 1.875 22.2389 2.07255 22.5788 2.42418C22.9187 2.77581 23.1097 3.25272 23.1097 3.75C23.1097 4.24729 22.9187 4.7242 22.5788 5.07583C22.2389 5.42746 21.7779 5.625 21.2972 5.625H12.2347C11.754 5.625 11.2929 5.42746 10.953 5.07583C10.6131 4.7242 10.4222 4.24729 10.4222 3.75C10.4222 3.25272 10.6131 2.77581 10.953 2.42418C11.2929 2.07255 11.754 1.875 12.2347 1.875ZM7.70341 6.5625H19.4847C19.9654 6.5625 20.4264 6.76005 20.7663 7.11168C21.1062 7.46331 21.2972 7.94022 21.2972 8.4375C21.2972 8.93479 21.1062 9.4117 20.7663 9.76333C20.4264 10.115 19.9654 10.3125 19.4847 10.3125H7.70341C7.2227 10.3125 6.76169 10.115 6.42178 9.76333C6.08187 9.4117 5.89091 8.93479 5.89091 8.4375C5.89091 7.94022 6.08187 7.46331 6.42178 7.11168C6.76169 6.76005 7.2227 6.5625 7.70341 6.5625ZM5.89091 11.25H23.1097C23.5904 11.25 24.0514 11.4475 24.3913 11.7992C24.7312 12.1508 24.9222 12.6277 24.9222 13.125C24.9222 13.6223 24.7312 14.0992 24.3913 14.4508C24.0514 14.8025 23.5904 15 23.1097 15H5.89091C5.4102 15 4.94919 14.8025 4.60928 14.4508C4.26937 14.0992 4.07841 13.6223 4.07841 13.125C4.07841 12.6277 4.26937 12.1508 4.60928 11.7992C4.94919 11.4475 5.4102 11.25 5.89091 11.25ZM27.1919 16.8117L25.8325 27.1134C25.726 27.4017 25.54 27.6512 25.2976 27.831C25.0552 28.0109 24.7671 28.1131 24.469 28.125H4.53153C3.95561 28.125 3.24103 27.5958 3.16808 27.1242L1.80871 16.8084C1.7905 16.7097 1.79379 16.6079 1.81832 16.5107C1.84285 16.4134 1.88802 16.3229 1.95053 16.2459C2.05031 16.1413 2.17038 16.0597 2.30284 16.0066C2.4353 15.9534 2.57715 15.9299 2.71903 15.9375H26.2815C26.4236 15.9293 26.5656 15.9523 26.6984 16.0051C26.8312 16.0578 26.9517 16.1391 27.0518 16.2436C27.1147 16.3215 27.1599 16.4129 27.1841 16.5112C27.2083 16.6095 27.211 16.7122 27.1919 16.8117Z" fill="#333333"/>
<path d="M13.1406 20.625H15.8594C16.3401 20.625 16.8011 20.4275 17.141 20.0758C17.4809 19.7242 17.6719 19.2473 17.6719 18.75C17.6719 18.2527 17.4809 17.7758 17.141 17.4242C16.8011 17.0725 16.3401 16.875 15.8594 16.875H13.1406C12.6599 16.875 12.1989 17.0725 11.859 17.4242C11.5191 17.7758 11.3281 18.2527 11.3281 18.75C11.3281 19.2473 11.5191 19.7242 11.859 20.0758C12.1989 20.4275 12.6599 20.625 13.1406 20.625ZM13.1406 17.8125H15.8594C16.0997 17.8125 16.3302 17.9113 16.5002 18.0871C16.6701 18.2629 16.7656 18.5014 16.7656 18.75C16.7656 18.9986 16.6701 19.2371 16.5002 19.4129C16.3302 19.5887 16.0997 19.6875 15.8594 19.6875H13.1406C12.9003 19.6875 12.6698 19.5887 12.4998 19.4129C12.3299 19.2371 12.2344 18.9986 12.2344 18.75C12.2344 18.5014 12.3299 18.2629 12.4998 18.0871C12.6698 17.9113 12.9003 17.8125 13.1406 17.8125Z" fill="#333333"/>
<path d="M4.07812 26.25H5.89062V27.1875H4.07812V26.25Z" fill="#333333"/>
<path d="M6.79688 26.25H8.60938V27.1875H6.79688V26.25Z" fill="#333333"/>
<path d="M9.51562 26.25H11.3281V27.1875H9.51562V26.25Z" fill="#333333"/>
<path d="M12.2344 26.25H14.0469V27.1875H12.2344V26.25Z" fill="#333333"/>
<path d="M14.9531 26.25H16.7656V27.1875H14.9531V26.25Z" fill="#333333"/>
<path d="M17.6719 26.25H19.4844V27.1875H17.6719V26.25Z" fill="#333333"/>
<path d="M20.3906 26.25H22.2031V27.1875H20.3906V26.25Z" fill="#333333"/>
<path d="M23.1094 26.25H24.9219V27.1875H23.1094V26.25Z" fill="#333333"/>
<path d="M5.4375 24.375H7.25V25.3125H5.4375V24.375Z" fill="#333333"/>
<path d="M8.15625 24.375H9.96875V25.3125H8.15625V24.375Z" fill="#333333"/>
<path d="M10.875 24.375H12.6875V25.3125H10.875V24.375Z" fill="#333333"/>
<path d="M13.5938 24.375H15.4062V25.3125H13.5938V24.375Z" fill="#333333"/>
<path d="M16.3125 24.375H18.125V25.3125H16.3125V24.375Z" fill="#333333"/>
<path d="M19.0312 24.375H20.8438V25.3125H19.0312V24.375Z" fill="#333333"/>
<path d="M21.75 24.375H23.5625V25.3125H21.75V24.375Z" fill="#333333"/>
<path d="M11.7812 4.21875H21.75C21.8702 4.21875 21.9854 4.16936 22.0704 4.08146C22.1554 3.99355 22.2031 3.87432 22.2031 3.75C22.2031 3.62568 22.1554 3.50645 22.0704 3.41854C21.9854 3.33064 21.8702 3.28125 21.75 3.28125H11.7812C11.6611 3.28125 11.5458 3.33064 11.4608 3.41854C11.3759 3.50645 11.3281 3.62568 11.3281 3.75C11.3281 3.87432 11.3759 3.99355 11.4608 4.08146C11.5458 4.16936 11.6611 4.21875 11.7812 4.21875Z" fill="#333333"/>
<path d="M16.3125 8.90625H19.9375C20.0577 8.90625 20.1729 8.85686 20.2579 8.76896C20.3429 8.68105 20.3906 8.56182 20.3906 8.4375C20.3906 8.31318 20.3429 8.19395 20.2579 8.10604C20.1729 8.01814 20.0577 7.96875 19.9375 7.96875H16.3125C16.1923 7.96875 16.0771 8.01814 15.9921 8.10604C15.9071 8.19395 15.8594 8.31318 15.8594 8.4375C15.8594 8.56182 15.9071 8.68105 15.9921 8.76896C16.0771 8.85686 16.1923 8.90625 16.3125 8.90625Z" fill="#333333"/>
<path d="M5.4375 13.5938H12.2344C12.3546 13.5938 12.4698 13.5444 12.5548 13.4565C12.6398 13.3685 12.6875 13.2493 12.6875 13.125C12.6875 13.0007 12.6398 12.8815 12.5548 12.7935C12.4698 12.7056 12.3546 12.6562 12.2344 12.6562H5.4375C5.31732 12.6562 5.20207 12.7056 5.11709 12.7935C5.03211 12.8815 4.98438 13.0007 4.98438 13.125C4.98438 13.2493 5.03211 13.3685 5.11709 13.4565C5.20207 13.5444 5.31732 13.5938 5.4375 13.5938Z" fill="#333333"/>
<path d="M21.2969 13.5938H23.5625C23.6827 13.5938 23.7979 13.5444 23.8829 13.4565C23.9679 13.3685 24.0156 13.2493 24.0156 13.125C24.0156 13.0007 23.9679 12.8815 23.8829 12.7935C23.7979 12.7056 23.6827 12.6562 23.5625 12.6562H21.2969C21.1767 12.6562 21.0614 12.7056 20.9765 12.7935C20.8915 12.8815 20.8438 13.0007 20.8438 13.125C20.8438 13.2493 20.8915 13.3685 20.9765 13.4565C21.0614 13.5444 21.1767 13.5938 21.2969 13.5938Z" fill="#333333"/>
<path d="M7.25 8.90625H10.4219C10.5421 8.90625 10.6573 8.85686 10.7423 8.76896C10.8273 8.68105 10.875 8.56182 10.875 8.4375C10.875 8.31318 10.8273 8.19395 10.7423 8.10604C10.6573 8.01814 10.5421 7.96875 10.4219 7.96875H7.25C7.12982 7.96875 7.01457 8.01814 6.92959 8.10604C6.84461 8.19395 6.79688 8.31318 6.79688 8.4375C6.79688 8.56182 6.84461 8.68105 6.92959 8.76896C7.01457 8.85686 7.12982 8.90625 7.25 8.90625Z" fill="#333333"/>
</g>
<defs>
<clipPath id="clip0_1_5513">
<rect width="29" height="30" fill="white"/>
</clipPath>
</defs>
</svg>
