<svg width="30" height="30" viewBox="0 0 30 30" fill="none" xmlns="http://www.w3.org/2000/svg">
<g clip-path="url(#clip0_1_5740)">
<path d="M29.9995 0.439453C29.9995 0.196758 29.8027 0 29.56 0H21.8654C21.2967 0 20.8341 0.462656 20.8341 1.03137V2.21514C20.8341 2.78385 21.2967 3.2465 21.8654 3.2465H22.0178V14.0871H8.42947C7.665 14.0871 7.04297 14.709 7.04297 15.4736C7.04297 16.1485 7.52783 16.712 8.16738 16.8349V18.1963C8.16738 22.3551 11.5508 25.7385 15.7096 25.7385H19.3541V29.5605C19.3541 29.8032 19.5509 30 19.7936 30H26.482C26.7247 30 26.9215 29.8032 26.9215 29.5605V25.3125C26.9215 25.0698 26.7247 24.873 26.482 24.873C26.2393 24.873 26.0426 25.0698 26.0426 25.3125V29.1211H20.233V25.299C20.233 25.0563 20.0363 24.8596 19.7936 24.8596H15.7096C12.0354 24.8596 9.04629 21.8704 9.04629 18.1963V16.86L26.0426 16.8598V23.2617C26.0426 23.5044 26.2393 23.7012 26.482 23.7012C26.7247 23.7012 26.9215 23.5044 26.9215 23.2617V16.8598H28.3764C29.2713 16.8598 29.9994 16.1317 29.9994 15.2367V12.7066C29.9994 12.4639 29.8027 12.2672 29.56 12.2672C29.3173 12.2672 29.1205 12.4639 29.1205 12.7066V15.2367C29.1205 15.6471 28.7867 15.9809 28.3764 15.9809H22.8967V3.2465H29.1206V10.6559C29.1206 10.8986 29.3173 11.0953 29.56 11.0953C29.8027 11.0953 29.9995 10.8986 29.9995 10.6559V0.439453ZM7.92188 15.4735C7.92188 15.1937 8.14957 14.9659 8.42947 14.9659H22.0178V15.9811H8.42947C8.14963 15.9811 7.92188 15.7534 7.92188 15.4735ZM21.713 2.21514V1.03137C21.713 0.947285 21.7813 0.878906 21.8654 0.878906H29.1206V2.3676H21.8654C21.7813 2.3676 21.713 2.29916 21.713 2.21514Z" fill="#333333"/>
<path d="M24.3848 5.88494C24.3848 6.77996 25.113 7.50816 26.008 7.50816C26.903 7.50816 27.6312 6.77996 27.6312 5.88494C27.6312 4.98992 26.903 4.26172 26.008 4.26172C25.113 4.26172 24.3848 4.98992 24.3848 5.88494ZM26.7523 5.88494C26.7523 6.29533 26.4184 6.62926 26.008 6.62926C25.5976 6.62926 25.2637 6.29533 25.2637 5.88494C25.2637 5.47455 25.5976 5.14062 26.008 5.14062C26.4184 5.14062 26.7523 5.47455 26.7523 5.88494Z" fill="#333333"/>
</g>
<defs>
<clipPath id="clip0_1_5740">
<rect width="30" height="30" fill="white"/>
</clipPath>
</defs>
</svg>
