<svg width="31" height="30" viewBox="0 0 31 30" fill="none" xmlns="http://www.w3.org/2000/svg">
<g clip-path="url(#clip0_1_5537)">
<path d="M4.67936 3.28396L3.00545 2.33563C2.789 2.213 2.51085 2.28343 2.38413 2.49289C2.2574 2.70236 2.33018 2.97154 2.54663 3.09417L4.22048 4.04244C4.43318 4.16314 4.71375 4.09681 4.84181 3.88518C4.96853 3.67577 4.89575 3.40653 4.67936 3.28396ZM5.17632 2.19823C5.34446 2.37917 5.63169 2.39288 5.81763 2.2311C6.00405 2.0688 6.0193 1.79095 5.85159 1.61049L4.49016 0.145548C4.3225 -0.0348591 4.0354 -0.0495659 3.84885 0.112678C3.66243 0.27498 3.64717 0.552827 3.81489 0.733293L5.17632 2.19823ZM3.48546 4.99328L1.499 4.56157C1.25391 4.50819 1.01137 4.65726 0.956453 4.89403C0.901477 5.13086 1.05532 5.36594 1.29999 5.41908L3.28644 5.85079C3.31998 5.85812 3.35341 5.86163 3.38634 5.86163C3.59414 5.86163 3.78153 5.72277 3.82899 5.51839C3.88397 5.2815 3.73012 5.04649 3.48546 4.99328ZM29.5526 12.5263C28.7807 10.7601 27.236 9.47822 25.3145 9.00941L13.5601 6.14159L10.2511 2.53039C9.85223 2.09493 9.1735 2.04155 8.70597 2.40876C7.81304 3.1097 7.05615 3.94307 6.45639 4.88565C5.75393 5.98977 5.28991 7.20376 5.07715 8.49386C4.98252 9.06771 5.36989 9.60858 5.959 9.72536L10.8448 10.6929L12.4771 12.3201C12.6519 12.4943 12.9393 12.4983 13.1192 12.3293C13.2992 12.1602 13.3034 11.882 13.1287 11.708L11.6378 10.2217L13.5349 7.04187L25.0924 9.86165C26.7353 10.2625 28.056 11.3585 28.716 12.8686C29.376 14.3787 29.2686 16.0593 28.4215 17.4792C27.5744 18.8992 26.1242 19.8295 24.4428 20.0314C22.7615 20.2336 21.1202 19.6745 19.94 18.498L14.4237 12.9989C14.249 12.8246 13.9616 12.8206 13.7817 12.9896C13.6017 13.1587 13.5974 13.4369 13.7721 13.611L17.445 17.2725C16.7107 17.3942 16.0566 17.8255 15.6783 18.4602C15.3407 19.0263 15.2509 19.6857 15.4256 20.3169C15.6253 21.0385 16.1738 21.6331 16.8736 21.9533L14.8264 25.3846C14.4018 26.0963 14.289 26.9255 14.5088 27.7192C14.7286 28.5128 15.2546 29.176 15.9897 29.5866C16.7271 29.9984 17.5865 30.1055 18.4016 29.8942C19.2217 29.6816 19.9072 29.1726 20.3319 28.4608L23.9335 22.424C24.0588 22.2138 23.9844 21.9451 23.7673 21.8237C23.5501 21.7024 23.2723 21.7743 23.147 21.9846L19.5454 28.0214C19.2421 28.5299 18.7524 28.8935 18.1666 29.0453C17.5809 29.1973 16.9691 29.1192 16.4439 28.8256C15.9187 28.5323 15.5431 28.0586 15.3861 27.4917C15.2291 26.9248 15.3096 26.3326 15.6129 25.8242L19.4992 19.3105C20.668 20.3737 22.179 20.951 23.7655 20.951C24.0269 20.951 24.2904 20.9353 24.5547 20.9036C26.5212 20.6674 28.2173 19.5794 29.2081 17.9187C30.1989 16.258 30.3244 14.2924 29.5526 12.5263ZM10.8435 9.79544L6.14112 8.86422C6.0296 8.84213 5.95615 8.74024 5.97395 8.63225C6.16776 7.457 6.59031 6.35147 7.22974 5.34642C7.77568 4.48833 8.46481 3.72955 9.27813 3.09119C9.31797 3.0599 9.3658 3.04455 9.41327 3.04455C9.47181 3.04455 9.52988 3.06787 9.57153 3.11339L12.7563 6.58906L10.8435 9.79544ZM17.3278 21.1923L17.0578 21.0415C16.2842 20.6094 16.0182 19.6486 16.4649 18.8995C16.7534 18.4157 17.2916 18.1151 17.8697 18.1151C18.0399 18.1151 18.207 18.1412 18.3677 18.1923L18.838 18.661L17.3278 21.1923ZM27.3139 16.831C28.2595 15.2461 27.6539 13.2447 26.0768 12.3635C24.4712 11.4663 22.3812 12.0171 21.4604 13.5606C20.5287 15.1223 21.0835 17.1264 22.6973 18.0281C24.291 18.9185 26.3724 18.4092 27.3139 16.831ZM22.2469 13.9999C22.9209 12.8703 24.4477 12.4681 25.6228 13.1246C26.7815 13.772 27.2001 15.2639 26.5274 16.3916C25.846 17.5337 24.3315 17.9262 23.1514 17.267C21.9713 16.6076 21.5656 15.142 22.2469 13.9999ZM19.9787 24.7651C20.3302 24.6739 20.624 24.4558 20.8059 24.1508C20.9878 23.8459 21.0362 23.4906 20.942 23.1505C20.8478 22.8103 20.6224 22.526 20.3074 22.35C19.9922 22.1739 19.6251 22.1271 19.2736 22.2183C18.9221 22.3095 18.6284 22.5275 18.4464 22.8326C18.0709 23.4621 18.2946 24.27 18.945 24.6334C19.1549 24.7507 19.3879 24.8106 19.624 24.8106C19.7423 24.8106 19.8614 24.7955 19.9787 24.7651ZM19.3991 23.8722C19.1823 23.7511 19.1077 23.4817 19.2329 23.2719C19.2936 23.1702 19.3915 23.0975 19.5087 23.0671C19.5478 23.057 19.5875 23.052 19.6269 23.052C19.7056 23.052 19.7833 23.072 19.8533 23.1111C19.9583 23.1698 20.0334 23.2645 20.0648 23.3779C20.0962 23.4913 20.0801 23.6097 20.0194 23.7114V23.7114C19.9587 23.813 19.8608 23.8858 19.7437 23.9161C19.6266 23.9465 19.5042 23.9308 19.3991 23.8722ZM25.1613 16.6432C25.2867 16.433 25.2123 16.1642 24.9951 16.0429L23.3251 15.1099C23.1078 14.9886 22.8301 15.0605 22.7049 15.2707C22.5795 15.4809 22.6539 15.7496 22.8711 15.871L24.541 16.804C24.7543 16.9233 25.0345 16.8556 25.1613 16.6432ZM18.779 26.7778L17.109 25.8447C16.8917 25.7234 16.614 25.7953 16.4887 26.0056C16.3633 26.2157 16.4377 26.4845 16.6549 26.6058L18.3249 27.5389C18.3965 27.5788 18.4745 27.5978 18.5515 27.5978C18.7085 27.5978 18.8611 27.519 18.9452 27.378C19.0706 27.1679 18.9961 26.8992 18.779 26.7778ZM23.7792 14.3486L25.4492 15.2817C25.6625 15.4012 25.9428 15.3332 26.0695 15.1209C26.1949 14.9107 26.1205 14.6419 25.9033 14.5206L24.2333 13.5875C24.0162 13.4662 23.7384 13.5381 23.613 13.7483C23.4876 13.9585 23.5621 14.2273 23.7792 14.3486Z" fill="#333333"/>
</g>
<defs>
<clipPath id="clip0_1_5537">
<rect width="31" height="30" fill="white"/>
</clipPath>
</defs>
</svg>
