<svg width="35" height="35" viewBox="0 0 35 35" fill="none" xmlns="http://www.w3.org/2000/svg">
<path d="M31.7639 9.30047H29.6606C29.3648 9.30047 29.1019 9.39906 28.8718 9.56338C27.9188 4.04225 23.1207 0 17.5338 0C11.947 0 7.14884 4.04225 6.13006 9.56338C5.90001 9.39906 5.6371 9.30047 5.34133 9.30047H3.23804C2.87654 9.33333 2.5479 9.46479 2.28499 9.7277C2.02208 9.99061 1.89062 10.3192 1.89062 10.6808C1.89062 11.0423 2.02208 11.3709 2.28499 11.6338C2.5479 11.8967 2.87654 12.0282 3.23804 12.0282H3.79673C4.05964 18.7324 9.12067 24.2535 15.7592 25.108V31.4507H12.2427C10.5667 31.4507 9.21926 32.7981 9.21926 34.4742C9.21926 34.77 9.44931 35 9.74509 35H25.224C25.5197 35 25.7498 34.77 25.7498 34.4742C25.7498 32.7981 24.4024 31.4507 22.7263 31.4507H19.177V25.0751C25.8484 24.2535 30.9423 18.6995 31.2052 11.9953H31.7639C32.1254 11.9953 32.454 11.8638 32.7169 11.6009C32.9798 11.338 33.1113 11.0094 33.1113 10.6479C33.1113 9.92488 32.5197 9.30047 31.7639 9.30047ZM10.1395 4.17371C14.2474 0 20.8531 0 24.961 4.17371C26.9 6.1784 28.0174 8.9061 28.0174 11.7653C28.0174 14.5915 26.9329 17.3192 24.961 19.3239C20.8531 23.4977 14.2474 23.5305 10.1395 19.3239C6.03147 15.1174 6.03147 8.34742 10.1395 4.17371ZM3.30377 11.0094C3.20518 11.0094 3.10659 10.9765 3.07372 10.9108C3.008 10.8451 2.97513 10.7793 2.97513 10.6808C2.97513 10.5822 3.008 10.5164 3.07372 10.4507C3.13945 10.385 3.20518 10.3521 3.30377 10.3521H5.40706C5.60424 10.3521 5.7357 10.4836 5.7357 10.6808C5.7357 10.7793 5.70283 10.8451 5.6371 10.9108C5.57138 10.9765 5.50565 11.0094 5.40706 11.0094H3.30377ZM22.7263 32.5023C23.6465 32.5352 24.4352 33.1268 24.6653 34.0141H10.3366C10.5667 33.1268 11.3554 32.5023 12.2756 32.5023H18.6841H22.7263ZM16.8108 25.1408C17.0409 25.1737 17.2709 25.1737 17.501 25.1737C17.731 25.1737 17.9282 25.1737 18.1582 25.1737L18.1911 31.4178H16.8108V25.1408ZM18.1911 24.0235C11.1911 24.385 5.24274 19.0282 4.88124 12.0282H5.40706C5.6371 12.0282 5.83429 11.9624 6.03147 11.8638C6.03147 18.2066 11.1911 23.3662 17.5338 23.3662C23.8765 23.3662 29.0362 18.2066 29.0362 11.8638C29.2333 11.9624 29.4305 12.0282 29.6606 12.0282H30.1864C29.8578 18.5023 24.6653 23.6948 18.1911 24.0235ZM31.9939 10.9108C31.9282 10.9765 31.8625 11.0094 31.7639 11.0094H29.6606C29.562 11.0094 29.4963 10.9437 29.4305 10.9108C29.3648 10.8451 29.3319 10.7793 29.3319 10.6808C29.3319 10.5822 29.3648 10.5164 29.4305 10.4507C29.4963 10.385 29.5949 10.3521 29.6606 10.3521H31.7639C31.9611 10.3521 32.0925 10.4836 32.0925 10.6808C32.0925 10.7793 32.0596 10.8451 31.9939 10.9108Z" fill="#3C3A83"/>
</svg>
