<svg width="14" height="14" viewBox="0 0 14 14" fill="none" xmlns="http://www.w3.org/2000/svg">
<g clip-path="url(#clip0_1_2210)">
<path d="M7.77344 7.00027L13.8398 0.933847C14.0534 0.720265 14.0534 0.373985 13.8398 0.16043C13.6262 -0.0531239 13.28 -0.0531513 13.0664 0.16043L6.99999 6.22685L0.933603 0.16043C0.720021 -0.0531513 0.37374 -0.0531513 0.160186 0.16043C-0.0533681 0.374012 -0.0533954 0.720293 0.160186 0.933847L6.22658 7.00024L0.160186 13.0667C-0.0533954 13.2802 -0.0533954 13.6265 0.160186 13.8401C0.266963 13.9469 0.406936 14.0002 0.546908 14.0002C0.68688 14.0002 0.826826 13.9469 0.93363 13.8401L6.99999 7.77368L13.0664 13.8401C13.1732 13.9469 13.3131 14.0002 13.4531 14.0002C13.5931 14.0002 13.733 13.9469 13.8398 13.8401C14.0534 13.6265 14.0534 13.2802 13.8398 13.0667L7.77344 7.00027Z" fill="#3C3A83"/>
</g>
<defs>
<clipPath id="clip0_1_2210">
<rect width="14" height="14" rx="3" fill="white"/>
</clipPath>
</defs>
</svg>
