<svg width="32" height="32" viewBox="0 0 32 32" fill="none" xmlns="http://www.w3.org/2000/svg">
<g clip-path="url(#clip0_1_5461)">
<path d="M31.5312 31.0625H28.2689V30.0588H29.7897C30.2155 30.0588 30.5619 29.7212 30.5619 29.3062V20.3517C30.987 20.3509 31.3327 20.0049 31.3327 19.5796V17.7596C31.3327 17.3338 30.9863 16.9874 30.5606 16.9874H29.8579V12.8432C30.3584 12.5514 30.6956 12.0091 30.6956 11.3892C30.6956 10.7694 30.3584 10.2271 29.8579 9.93531V7.98962C30.3584 7.69781 30.6956 7.15556 30.6956 6.53569C30.6956 5.91581 30.3584 5.3735 29.8579 5.08175V3.36431H30.5606C30.9863 3.36431 31.3327 3.01794 31.3327 2.59219V0.772125C31.3327 0.346375 30.9863 0 30.5606 0H10.4791C10.0534 0 9.70706 0.346375 9.70687 0.772125V2.59212C9.70687 3.01787 10.0533 3.36425 10.479 3.36425H11.1816V5.08156C10.6812 5.37337 10.3439 5.91563 10.3439 6.5355C10.3439 7.15538 10.6812 7.69769 11.1816 7.98944V9.93513C10.6812 10.2269 10.3439 10.7692 10.3439 11.3891C10.3439 12.0089 10.6812 12.5513 11.1816 12.843V16.9872H10.479C10.0533 16.9872 9.70687 17.3336 9.70687 17.7594V19.5794C9.70687 20.0047 10.0526 20.3508 10.4777 20.3515V29.3061C10.4777 29.721 10.8241 30.0586 11.2498 30.0586H12.7707V31.0625H7.36831V30.0586H7.49713C7.92794 30.0586 8.27837 29.7081 8.27837 29.2773V6.24144C8.27837 5.81063 7.92794 5.46019 7.49713 5.46019H1.44856C1.01775 5.46019 0.667313 5.81063 0.667313 6.24144V29.2773C0.667313 29.7081 1.01775 30.0586 1.44856 30.0586H1.57738V31.0625H0.46875C0.209812 31.0625 0 31.2723 0 31.5312C0 31.7902 0.209812 32 0.46875 32H22.1882C22.4472 32 22.657 31.7902 22.657 31.5312C22.657 31.2723 22.4472 31.0625 22.1882 31.0625H13.7083V30.0586H27.3314V31.0625H24.0892C23.8302 31.0625 23.6204 31.2723 23.6204 31.5312C23.6204 31.7902 23.8302 32 24.0892 32H31.5312C31.7902 32 32 31.7902 32 31.5312C32 31.2723 31.7902 31.0625 31.5312 31.0625ZM6.43087 31.0625H2.51487V30.0586H6.43087V31.0625ZM7.34094 29.1211H1.60487V19.7449H7.34094V29.1211ZM7.34094 18.8074H1.60487V16.1047H7.34094V18.8074ZM7.34094 15.1672H1.60487V6.39769H7.34094V15.1672ZM29.6244 23.7974H11.4154V20.3516H29.6244V23.7974ZM10.6446 2.42675L10.6444 0.9375H30.3951V2.42681H19.2558C18.9969 2.42681 18.7871 2.63662 18.7871 2.89556C18.7871 3.1545 18.9969 3.36431 19.2558 3.36431H20.5711L18.3379 5.5975C18.1548 5.78056 18.1548 6.07731 18.3379 6.26044C18.4294 6.35194 18.5494 6.39769 18.6694 6.39769C18.7893 6.39769 18.9093 6.35194 19.0009 6.26044L21.8971 3.36425H24.6969V4.69875L21.3713 8.02431C21.1883 8.20738 21.1883 8.50413 21.3713 8.68725C21.4629 8.77875 21.5829 8.8245 21.7028 8.8245C21.8228 8.8245 21.9428 8.77875 22.0343 8.68725L24.6969 6.02469V13.3472H20.3516V11.0858C20.3516 10.8424 20.5495 10.6445 20.7929 10.6445C21.0363 10.6445 21.2342 10.8424 21.2342 11.0858V11.3892C21.2342 11.6481 21.444 11.8579 21.7029 11.8579C21.9619 11.8579 22.1717 11.6481 22.1717 11.3892V11.0858C22.1717 10.3255 21.5532 9.707 20.7929 9.707C20.0326 9.707 19.4141 10.3256 19.4141 11.0858V13.3472H16.3428V11.5834L19.8456 8.0805C20.0287 7.89744 20.0287 7.60069 19.8456 7.41756C19.6626 7.23456 19.3658 7.23456 19.1827 7.41756L16.3428 10.2574V3.36425H17.5168C17.7757 3.36425 17.9855 3.15444 17.9855 2.8955C17.9855 2.63656 17.7757 2.42675 17.5168 2.42675H10.6446ZM26.7151 13.3472H25.6344V4.89306V3.36425H28.9204V4.85631C28.036 4.90481 27.3314 5.63944 27.3314 6.53575C27.3314 7.43206 28.036 8.16669 28.9204 8.21519V9.70981C28.036 9.75831 27.3314 10.4929 27.3314 11.3892C27.3314 12.2856 28.036 13.0202 28.9204 13.0687V16.9874H26.1787C26.9796 16.2892 27.4872 15.2627 27.4872 14.1193C27.4872 13.6936 27.1408 13.3472 26.7151 13.3472ZM28.2689 11.3892C28.2689 10.9786 28.6029 10.6446 29.0135 10.6446C29.4241 10.6446 29.7581 10.9786 29.7581 11.3892C29.7581 11.7998 29.4241 12.1338 29.0135 12.1338C28.6029 12.1338 28.2689 11.7998 28.2689 11.3892ZM29.0135 7.28025C28.6029 7.28025 28.2689 6.94619 28.2689 6.53562C28.2689 6.12506 28.6029 5.791 29.0135 5.791C29.4241 5.791 29.7581 6.12506 29.7581 6.53562C29.7581 6.94619 29.4241 7.28025 29.0135 7.28025ZM15.323 16.9873H12.1193V13.0686C13.0037 13.0201 13.7084 12.2854 13.7084 11.3891C13.7084 10.4928 13.0037 9.75819 12.1193 9.70969V8.21506C13.0037 8.16656 13.7084 7.43194 13.7084 6.53562C13.7084 5.63931 13.0037 4.90469 12.1193 4.85619V3.36425H15.4053V11.3888V13.3471H14.7867C14.3609 13.3471 14.0146 13.6935 14.0146 14.1193C14.0146 15.2627 14.5221 16.2891 15.323 16.9873ZM12.0262 10.6446C12.4368 10.6446 12.7708 10.9786 12.7708 11.3892C12.7708 11.7998 12.4368 12.1338 12.0262 12.1338C11.6156 12.1338 11.2816 11.7998 11.2816 11.3892C11.2816 10.9786 11.6156 10.6446 12.0262 10.6446ZM11.2816 6.53562C11.2816 6.12506 11.6156 5.791 12.0262 5.791C12.4368 5.791 12.7708 6.12506 12.7708 6.53562C12.7708 6.94625 12.4368 7.28025 12.0262 7.28025C11.6156 7.28025 11.2816 6.94619 11.2816 6.53562ZM10.6446 19.4141V17.9248H20.4288C20.6877 17.9248 20.8976 17.715 20.8976 17.4561C20.8976 17.1971 20.6877 16.9873 20.4288 16.9873H17.8201C16.2941 16.9873 15.0428 15.7895 14.9567 14.2847H26.545C26.4591 15.7895 25.2076 16.9873 23.6817 16.9873H22.2489C21.99 16.9873 21.7802 17.1971 21.7802 17.4561C21.7802 17.715 21.99 17.9248 22.2489 17.9248H30.3952V19.4141H10.6446ZM11.4154 29.1211V24.7349H29.6244V29.1211H11.4154Z" fill="#3C3A83"/>
<path d="M5.92969 23.9917C6.18862 23.9917 6.39844 23.7819 6.39844 23.5229V21.7029C6.39844 21.444 6.18862 21.2341 5.92969 21.2341C5.67075 21.2341 5.46094 21.4439 5.46094 21.7029V23.5229C5.46094 23.7819 5.67075 23.9917 5.92969 23.9917Z" fill="#3C3A83"/>
<path d="M22.6433 26.0876H18.3965C18.1375 26.0876 17.9277 26.2975 17.9277 26.5564C17.9277 26.8153 18.1375 27.0251 18.3965 27.0251H22.6433C22.9022 27.0251 23.112 26.8153 23.112 26.5564C23.112 26.2975 22.9022 26.0876 22.6433 26.0876Z" fill="#3C3A83"/>
<path d="M18.3965 22.1716H22.6433C22.9022 22.1716 23.112 21.9618 23.112 21.7029C23.112 21.4439 22.9022 21.2341 22.6433 21.2341H18.3965C18.1375 21.2341 17.9277 21.4439 17.9277 21.7029C17.9277 21.9618 18.1375 22.1716 18.3965 22.1716Z" fill="#3C3A83"/>
<path d="M5.92969 11.8579C6.18862 11.8579 6.39844 11.6481 6.39844 11.3892V9.56909C6.39844 9.31015 6.18862 9.10034 5.92969 9.10034C5.67075 9.10034 5.46094 9.31015 5.46094 9.56909V11.3892C5.46094 11.648 5.67081 11.8579 5.92969 11.8579Z" fill="#3C3A83"/>
<path d="M3.50195 17.9248H5.32201C5.58095 17.9248 5.79076 17.715 5.79076 17.4561C5.79076 17.1971 5.58095 16.9873 5.32201 16.9873H3.50195C3.24302 16.9873 3.0332 17.1971 3.0332 17.4561C3.0332 17.7149 3.24308 17.9248 3.50195 17.9248Z" fill="#3C3A83"/>
</g>
<defs>
<clipPath id="clip0_1_5461">
<rect width="32" height="32" fill="white"/>
</clipPath>
</defs>
</svg>
