<svg width="29" height="29" viewBox="0 0 29 29" fill="none" xmlns="http://www.w3.org/2000/svg">
<g clip-path="url(#clip0_1_5439)">
<path d="M27.6305 19.032H19.0279V10.4226C19.0279 10.172 18.8254 9.96948 18.5748 9.96948H9.97266V1.36011C9.97266 1.10953 9.77011 0.906982 9.51953 0.906982H0.457031C0.206453 0.906982 0.00390625 1.10953 0.00390625 1.36011V10.4226V19.4851V28.5476C0.00390625 28.7982 0.206453 29.0007 0.457031 29.0007H9.51228H9.51953H18.568H18.5752H27.6305C27.8811 29.0007 28.0836 28.7982 28.0836 28.5476V19.4851C28.0836 19.2345 27.8806 19.032 27.6305 19.032ZM0.910156 10.8757H9.05916V19.032H0.910156V10.8757ZM9.97266 19.9382H18.1149V28.0945H9.97266V19.9382ZM18.1217 19.032H9.97266V10.8757H18.1217V19.032ZM0.910156 1.81323H9.06641V9.96948H0.910156V1.81323ZM0.910156 19.9382H9.05916V28.0945H0.910156V19.9382ZM27.1774 28.0945H19.0279V19.9382H27.1769V28.0945H27.1774Z" fill="#3C3A83"/>
<path d="M8.16016 2.26636C7.90958 2.26636 7.70703 2.4689 7.70703 2.71948V8.61011H1.81641C1.56583 8.61011 1.36328 8.81265 1.36328 9.06323C1.36328 9.31381 1.56583 9.51636 1.81641 9.51636H8.16016C8.41073 9.51636 8.61328 9.31381 8.61328 9.06323V2.71948C8.61328 2.4689 8.41073 2.26636 8.16016 2.26636Z" fill="#3C3A83"/>
<path d="M8.16016 11.3289C7.90958 11.3289 7.70703 11.5314 7.70703 11.782V17.6726H1.81641C1.56583 17.6726 1.36328 17.8751 1.36328 18.1257C1.36328 18.3763 1.56583 18.5788 1.81641 18.5788H8.16016C8.41073 18.5788 8.61328 18.3763 8.61328 18.1257V11.782C8.61328 11.5314 8.41073 11.3289 8.16016 11.3289Z" fill="#3C3A83"/>
<path d="M8.16016 20.3914C7.90958 20.3914 7.70703 20.5939 7.70703 20.8445V26.7351H1.81641C1.56583 26.7351 1.36328 26.9377 1.36328 27.1882C1.36328 27.4388 1.56583 27.6414 1.81641 27.6414H8.16016C8.41073 27.6414 8.61328 27.4388 8.61328 27.1882V20.8445C8.61328 20.5939 8.41073 20.3914 8.16016 20.3914Z" fill="#3C3A83"/>
<path d="M10.8789 18.5788H17.2227C17.4732 18.5788 17.6758 18.3763 17.6758 18.1257V11.782C17.6758 11.5314 17.4732 11.3289 17.2227 11.3289C16.9721 11.3289 16.7695 11.5314 16.7695 11.782V17.6726H10.8789C10.6283 17.6726 10.4258 17.8751 10.4258 18.1257C10.4258 18.3763 10.6283 18.5788 10.8789 18.5788Z" fill="#3C3A83"/>
<path d="M17.2227 20.3914C16.9721 20.3914 16.7695 20.5939 16.7695 20.8445V26.7351H10.8789C10.6283 26.7351 10.4258 26.9377 10.4258 27.1882C10.4258 27.4388 10.6283 27.6414 10.8789 27.6414H17.2227C17.4732 27.6414 17.6758 27.4388 17.6758 27.1882V20.8445C17.6758 20.5939 17.4732 20.3914 17.2227 20.3914Z" fill="#3C3A83"/>
<path d="M19.9414 27.6414H26.2852C26.5357 27.6414 26.7383 27.4388 26.7383 27.1882V20.8445C26.7383 20.5939 26.5357 20.3914 26.2852 20.3914C26.0346 20.3914 25.832 20.5939 25.832 20.8445V26.7351H19.9414C19.6908 26.7351 19.4883 26.9377 19.4883 27.1882C19.4883 27.4388 19.6908 27.6414 19.9414 27.6414Z" fill="#3C3A83"/>
<path d="M10.8691 2.25757H18.1187C18.3693 2.25757 18.5718 2.05502 18.5718 1.80444C18.5718 1.55387 18.3693 1.35132 18.1187 1.35132H10.8691C10.6186 1.35132 10.416 1.55387 10.416 1.80444C10.416 2.05502 10.619 2.25757 10.8691 2.25757Z" fill="#3C3A83"/>
<path d="M10.8691 4.0708H18.1187C18.3693 4.0708 18.5718 3.86825 18.5718 3.61768C18.5718 3.3671 18.3693 3.16455 18.1187 3.16455H10.8691C10.6186 3.16455 10.416 3.3671 10.416 3.61768C10.416 3.86825 10.619 4.0708 10.8691 4.0708Z" fill="#3C3A83"/>
<path d="M10.8691 5.88428H18.1187C18.3693 5.88428 18.5718 5.68173 18.5718 5.43115C18.5718 5.18057 18.3693 4.97803 18.1187 4.97803H10.8691C10.6186 4.97803 10.416 5.18057 10.416 5.43115C10.416 5.68173 10.619 5.88428 10.8691 5.88428Z" fill="#3C3A83"/>
<path d="M10.8691 7.69776H18.1187C18.3693 7.69776 18.5718 7.49521 18.5718 7.24463C18.5718 6.99405 18.3693 6.7915 18.1187 6.7915H10.8691C10.6186 6.7915 10.416 6.99405 10.416 7.24463C10.416 7.49521 10.619 7.69776 10.8691 7.69776Z" fill="#3C3A83"/>
<path d="M10.8691 9.51025H18.1187C18.3693 9.51025 18.5718 9.30771 18.5718 9.05713C18.5718 8.80655 18.3693 8.604 18.1187 8.604H10.8691C10.6186 8.604 10.416 8.80655 10.416 9.05713C10.416 9.30771 10.619 9.51025 10.8691 9.51025Z" fill="#3C3A83"/>
<path d="M25.0276 0.156803C24.6919 0.547396 21.7461 4.02604 21.7461 5.89246C21.7461 7.49561 22.7933 8.8568 24.2387 9.33394V10.875H23.7856C23.535 10.875 23.3325 11.0776 23.3325 11.3281C23.3325 11.5787 23.535 11.7813 23.7856 11.7813H23.7861V15.6315C23.7861 15.6324 23.7856 15.6328 23.7856 15.6337C23.7856 16.5083 24.497 17.2197 25.3715 17.2197C26.2461 17.2197 26.9575 16.5083 26.9575 15.6337C26.9575 15.6328 26.957 15.6324 26.957 15.6315V11.7813C27.2076 11.7813 27.4102 11.5787 27.4102 11.3281C27.4102 11.0776 27.2076 10.875 26.957 10.875H26.5039V9.33394C27.9489 8.85635 28.9961 7.49516 28.9961 5.89246C28.9961 4.02604 26.0503 0.547396 25.7146 0.156803C25.5428 -0.0434785 25.1994 -0.0434785 25.0276 0.156803ZM26.0512 15.6351C26.0503 16.0094 25.7458 16.3134 25.3715 16.3134C24.9973 16.3134 24.6928 16.0094 24.6919 15.6351C24.6919 15.6346 24.6923 15.6342 24.6923 15.6337V11.7813H26.0508V15.6337C26.0508 15.6342 26.0512 15.6346 26.0512 15.6351ZM25.5977 10.875H25.145V9.50613C25.2202 9.51111 25.295 9.51746 25.3711 9.51746C25.4477 9.51746 25.5224 9.51066 25.5977 9.50613V10.875ZM25.3711 8.61121C23.8717 8.61121 22.6523 7.39185 22.6523 5.89246C22.6523 4.74379 24.3824 2.37666 25.3711 1.16002C26.3603 2.37666 28.0898 4.74288 28.0898 5.89246C28.0898 7.39185 26.8705 8.61121 25.3711 8.61121Z" fill="#3C3A83"/>
</g>
<defs>
<clipPath id="clip0_1_5439">
<rect width="29" height="29" fill="white"/>
</clipPath>
</defs>
</svg>
