<svg width="31" height="31" viewBox="0 0 31 31" fill="none" xmlns="http://www.w3.org/2000/svg">
<path d="M28.0885 20.7211H27.9068V5.02588C27.9054 3.69345 27.3755 2.41599 26.4334 1.47377C25.4913 0.531559 24.2139 0.0015386 22.8814 0L13.6139 0C12.2815 0.00153836 11.0042 0.531492 10.0621 1.4736C9.11999 2.41571 8.59004 3.69305 8.5885 5.02539V8.05613H6.59191C6.52844 8.05615 6.4658 8.07041 6.40858 8.09787C6.35137 8.12532 6.30104 8.16527 6.26132 8.21476L5.72851 8.87932C4.53741 10.3675 3.84648 12.1936 3.7542 14.0975H3.05597C2.64862 14.0979 2.25808 14.26 1.97004 14.548C1.682 14.836 1.51998 15.2266 1.51953 15.6339V16.7465C1.5196 16.8589 1.56427 16.9667 1.64374 17.0462C1.72321 17.1256 1.83097 17.1703 1.94336 17.1704H18.019C18.1314 17.1704 18.2392 17.1257 18.3187 17.0462C18.3982 16.9667 18.4429 16.8589 18.4429 16.7465V15.6339C18.4425 15.2266 18.2805 14.8361 17.9925 14.548C17.7045 14.26 17.314 14.0979 16.9067 14.0975H16.2067C16.1152 12.1937 15.4247 10.3675 14.2339 8.87932L13.7011 8.21476C13.6614 8.16527 13.6111 8.12533 13.5539 8.09787C13.4968 8.07041 13.4342 8.05615 13.3707 8.05613H11.3737V5.02588C11.3743 4.43193 11.6105 3.86248 12.0305 3.4425C12.4505 3.02251 13.0199 2.78628 13.6139 2.78564H22.8814C23.4754 2.78628 24.0448 3.02251 24.4648 3.4425C24.8848 3.86248 25.121 4.43193 25.1217 5.02588V20.7211H24.94C24.5708 20.7215 24.2169 20.8684 23.9558 21.1295C23.6948 21.3905 23.5479 21.7445 23.5474 22.1137V22.3106H21.6099C21.2406 22.3106 20.8864 22.4573 20.6252 22.7184C20.3641 22.9796 20.2174 23.3338 20.2174 23.7031C20.2174 24.0725 20.3641 24.4267 20.6252 24.6878C20.8864 24.949 21.2406 25.0957 21.6099 25.0957H23.5474V25.2924C23.5478 25.6616 23.6947 26.0156 23.9558 26.2766C24.2168 26.5377 24.5708 26.6846 24.94 26.6849H25.1217V30.5757C25.1217 30.6881 25.1663 30.7959 25.2458 30.8754C25.3253 30.9549 25.4331 30.9995 25.5455 30.9995H27.483C27.5954 30.9995 27.7031 30.9548 27.7826 30.8753C27.8621 30.7958 27.9068 30.6881 27.9068 30.5757V26.6849H28.0885C28.4577 26.6845 28.8116 26.5376 29.0727 26.2766C29.3337 26.0155 29.4806 25.6616 29.481 25.2924V22.1137C29.4806 21.7445 29.3337 21.3905 29.0727 21.1295C28.8116 20.8684 28.4577 20.7215 28.0885 20.7211ZM17.5947 15.6339V16.3234H2.36719V15.6339C2.36738 15.4513 2.44001 15.2762 2.56914 15.1471C2.69827 15.018 2.87335 14.9453 3.05597 14.9451H16.9062C17.0888 14.9454 17.2638 15.0181 17.3929 15.1472C17.5219 15.2763 17.5945 15.4514 17.5947 15.6339ZM13.573 9.40971C14.6433 10.7473 15.2679 12.3865 15.3591 14.0973H4.60306C4.69406 12.3866 5.31869 10.7474 6.38919 9.40995L6.79534 8.90378H13.1668L13.573 9.40971ZM22.8814 1.9375H13.6139C12.7952 1.9384 12.0103 2.26402 11.4314 2.84291C10.8525 3.42181 10.5269 4.20671 10.526 5.02539V8.05613H9.43616V5.02588C9.43724 3.91816 9.87773 2.85612 10.661 2.0728C11.4442 1.28948 12.5062 0.848875 13.6139 0.847656H22.8814C23.989 0.848938 25.0509 1.2895 25.8341 2.0727C26.6173 2.8559 27.0579 3.91778 27.0592 5.02539V20.7211H25.9693V5.02588C25.9686 4.20711 25.643 3.42209 25.0641 2.84309C24.4852 2.26408 23.7002 1.9384 22.8814 1.9375ZM21.6104 24.2476C21.4659 24.2476 21.3273 24.1902 21.2251 24.088C21.1229 23.9858 21.0655 23.8472 21.0655 23.7027C21.0655 23.5581 21.1229 23.4195 21.2251 23.3173C21.3273 23.2151 21.4659 23.1577 21.6104 23.1577H23.5479V24.2476H21.6104ZM27.0597 30.1514H25.9698V26.6849H27.0597V30.1514ZM28.6339 25.2919C28.6337 25.4363 28.5762 25.5748 28.4741 25.677C28.3719 25.7791 28.2334 25.8366 28.0889 25.8368H24.9405C24.796 25.8367 24.6575 25.7792 24.5553 25.6771C24.4532 25.5749 24.3957 25.4364 24.3956 25.2919V22.1137C24.3957 21.9692 24.4532 21.8306 24.5553 21.7285C24.6575 21.6263 24.796 21.5689 24.9405 21.5687H28.0889C28.2334 21.5689 28.3719 21.6264 28.4741 21.7286C28.5762 21.8307 28.6337 21.9692 28.6339 22.1137V25.2919Z" fill="#3C3A83"/>
<path d="M4.16797 18.6033C4.05556 18.6033 3.94776 18.6479 3.86828 18.7274C3.78879 18.8069 3.74414 18.9147 3.74414 19.0271V20.6934C3.74414 20.8058 3.78879 20.9136 3.86828 20.993C3.94776 21.0725 4.05556 21.1172 4.16797 21.1172C4.28037 21.1172 4.38818 21.0725 4.46766 20.993C4.54714 20.9136 4.5918 20.8058 4.5918 20.6934V19.0271C4.5918 18.9147 4.54714 18.8069 4.46766 18.7274C4.38818 18.6479 4.28037 18.6033 4.16797 18.6033Z" fill="#3C3A83"/>
<path d="M7.07422 18.6033C6.96181 18.6033 6.85401 18.6479 6.77453 18.7274C6.69504 18.8069 6.65039 18.9147 6.65039 19.0271V20.6934C6.65039 20.8058 6.69504 20.9136 6.77453 20.993C6.85401 21.0725 6.96181 21.1172 7.07422 21.1172C7.18662 21.1172 7.29443 21.0725 7.37391 20.993C7.45339 20.9136 7.49805 20.8058 7.49805 20.6934V19.0271C7.49805 18.9147 7.45339 18.8069 7.37391 18.7274C7.29443 18.6479 7.18662 18.6033 7.07422 18.6033Z" fill="#3C3A83"/>
<path d="M9.98047 18.6033C9.86806 18.6033 9.76026 18.6479 9.68078 18.7274C9.60129 18.8069 9.55664 18.9147 9.55664 19.0271V20.6934C9.55664 20.8058 9.60129 20.9136 9.68078 20.993C9.76026 21.0725 9.86806 21.1172 9.98047 21.1172C10.0929 21.1172 10.2007 21.0725 10.2802 20.993C10.3596 20.9136 10.4043 20.8058 10.4043 20.6934V19.0271C10.4043 18.9147 10.3596 18.8069 10.2802 18.7274C10.2007 18.6479 10.0929 18.6033 9.98047 18.6033Z" fill="#3C3A83"/>
<path d="M12.8867 18.6033C12.7743 18.6033 12.6665 18.6479 12.587 18.7274C12.5075 18.8069 12.4629 18.9147 12.4629 19.0271V20.6934C12.4629 20.8058 12.5075 20.9136 12.587 20.993C12.6665 21.0725 12.7743 21.1172 12.8867 21.1172C12.9991 21.1172 13.1069 21.0725 13.1864 20.993C13.2659 20.9136 13.3105 20.8058 13.3105 20.6934V19.0271C13.3106 18.9714 13.2996 18.9163 13.2783 18.8649C13.2571 18.8134 13.2258 18.7667 13.1865 18.7273C13.1471 18.688 13.1004 18.6568 13.0489 18.6355C12.9975 18.6142 12.9424 18.6032 12.8867 18.6033Z" fill="#3C3A83"/>
<path d="M15.793 18.6033C15.6806 18.6033 15.5728 18.6479 15.4933 18.7274C15.4138 18.8069 15.3691 18.9147 15.3691 19.0271V20.6934C15.3691 20.8058 15.4138 20.9136 15.4933 20.993C15.5728 21.0725 15.6806 21.1172 15.793 21.1172C15.9054 21.1172 16.0132 21.0725 16.0927 20.993C16.1721 20.9136 16.2168 20.8058 16.2168 20.6934V19.0271C16.2168 18.9714 16.2059 18.9163 16.1846 18.8649C16.1633 18.8134 16.1321 18.7667 16.0927 18.7273C16.0534 18.688 16.0066 18.6568 15.9552 18.6355C15.9038 18.6142 15.8486 18.6032 15.793 18.6033Z" fill="#3C3A83"/>
<path d="M4.16797 23.5444C4.05556 23.5444 3.94776 23.5891 3.86828 23.6686C3.78879 23.7481 3.74414 23.8559 3.74414 23.9683V25.6345C3.74414 25.7469 3.78879 25.8547 3.86828 25.9342C3.94776 26.0137 4.05556 26.0583 4.16797 26.0583C4.28037 26.0583 4.38818 26.0137 4.46766 25.9342C4.54714 25.8547 4.5918 25.7469 4.5918 25.6345V23.9683C4.5918 23.8559 4.54714 23.7481 4.46766 23.6686C4.38818 23.5891 4.28037 23.5444 4.16797 23.5444Z" fill="#3C3A83"/>
<path d="M7.07422 23.5444C6.96181 23.5444 6.85401 23.5891 6.77453 23.6686C6.69504 23.7481 6.65039 23.8559 6.65039 23.9683V25.6345C6.65039 25.7469 6.69504 25.8547 6.77453 25.9342C6.85401 26.0137 6.96181 26.0583 7.07422 26.0583C7.18662 26.0583 7.29443 26.0137 7.37391 25.9342C7.45339 25.8547 7.49805 25.7469 7.49805 25.6345V23.9683C7.49805 23.8559 7.45339 23.7481 7.37391 23.6686C7.29443 23.5891 7.18662 23.5444 7.07422 23.5444Z" fill="#3C3A83"/>
<path d="M9.98047 23.5444C9.86806 23.5444 9.76026 23.5891 9.68078 23.6686C9.60129 23.7481 9.55664 23.8559 9.55664 23.9683V25.6345C9.55664 25.7469 9.60129 25.8547 9.68078 25.9342C9.76026 26.0137 9.86806 26.0583 9.98047 26.0583C10.0929 26.0583 10.2007 26.0137 10.2802 25.9342C10.3596 25.8547 10.4043 25.7469 10.4043 25.6345V23.9683C10.4043 23.8559 10.3596 23.7481 10.2802 23.6686C10.2007 23.5891 10.0929 23.5444 9.98047 23.5444Z" fill="#3C3A83"/>
<path d="M12.8867 23.5444C12.7743 23.5444 12.6665 23.5891 12.587 23.6686C12.5075 23.7481 12.4629 23.8559 12.4629 23.9683V25.6345C12.4629 25.7469 12.5075 25.8547 12.587 25.9342C12.6665 26.0137 12.7743 26.0583 12.8867 26.0583C12.9991 26.0583 13.1069 26.0137 13.1864 25.9342C13.2659 25.8547 13.3105 25.7469 13.3105 25.6345V23.9683C13.3106 23.9126 13.2996 23.8575 13.2783 23.806C13.2571 23.7546 13.2258 23.7079 13.1865 23.6685C13.1471 23.6291 13.1004 23.5979 13.0489 23.5766C12.9975 23.5553 12.9424 23.5444 12.8867 23.5444Z" fill="#3C3A83"/>
<path d="M15.793 23.5444C15.6806 23.5444 15.5728 23.5891 15.4933 23.6686C15.4138 23.7481 15.3691 23.8559 15.3691 23.9683V25.6345C15.3691 25.7469 15.4138 25.8547 15.4933 25.9342C15.5728 26.0137 15.6806 26.0583 15.793 26.0583C15.9054 26.0583 16.0132 26.0137 16.0927 25.9342C16.1721 25.8547 16.2168 25.7469 16.2168 25.6345V23.9683C16.2168 23.9126 16.2059 23.8575 16.1846 23.806C16.1633 23.7546 16.1321 23.7079 16.0927 23.6685C16.0534 23.6291 16.0066 23.5979 15.9552 23.5766C15.9038 23.5553 15.8486 23.5444 15.793 23.5444Z" fill="#3C3A83"/>
<path d="M4.16797 28.4856C4.05558 28.4857 3.94782 28.5303 3.86835 28.6098C3.78888 28.6893 3.7442 28.797 3.74414 28.9094V30.5757C3.74414 30.6881 3.78879 30.7959 3.86828 30.8754C3.94776 30.9548 4.05556 30.9995 4.16797 30.9995C4.28037 30.9995 4.38818 30.9548 4.46766 30.8754C4.54714 30.7959 4.5918 30.6881 4.5918 30.5757V28.9094C4.59173 28.797 4.54706 28.6893 4.46759 28.6098C4.38812 28.5303 4.28036 28.4857 4.16797 28.4856Z" fill="#3C3A83"/>
<path d="M7.07422 28.4856C6.96183 28.4857 6.85407 28.5303 6.7746 28.6098C6.69513 28.6893 6.65045 28.797 6.65039 28.9094V30.5757C6.65039 30.6881 6.69504 30.7959 6.77453 30.8754C6.85401 30.9548 6.96181 30.9995 7.07422 30.9995C7.18662 30.9995 7.29443 30.9548 7.37391 30.8754C7.45339 30.7959 7.49805 30.6881 7.49805 30.5757V28.9094C7.49798 28.797 7.45331 28.6893 7.37384 28.6098C7.29437 28.5303 7.18661 28.4857 7.07422 28.4856Z" fill="#3C3A83"/>
<path d="M9.98047 28.4856C9.86808 28.4857 9.76032 28.5303 9.68085 28.6098C9.60138 28.6893 9.5567 28.797 9.55664 28.9094V30.5757C9.55664 30.6881 9.60129 30.7959 9.68078 30.8754C9.76026 30.9548 9.86806 30.9995 9.98047 30.9995C10.0929 30.9995 10.2007 30.9548 10.2802 30.8754C10.3596 30.7959 10.4043 30.6881 10.4043 30.5757V28.9094C10.4042 28.797 10.3596 28.6893 10.2801 28.6098C10.2006 28.5303 10.0929 28.4857 9.98047 28.4856Z" fill="#3C3A83"/>
<path d="M12.8867 28.4856C12.7743 28.4857 12.6666 28.5303 12.5871 28.6098C12.5076 28.6893 12.463 28.797 12.4629 28.9094V30.5757C12.4629 30.6881 12.5075 30.7959 12.587 30.8754C12.6665 30.9548 12.7743 30.9995 12.8867 30.9995C12.9991 30.9995 13.1069 30.9548 13.1864 30.8754C13.2659 30.7959 13.3105 30.6881 13.3105 30.5757V28.9094C13.3105 28.797 13.2659 28.6892 13.1864 28.6097C13.1069 28.5302 12.9991 28.4856 12.8867 28.4856Z" fill="#3C3A83"/>
<path d="M15.793 28.4856C15.6806 28.4857 15.5728 28.5303 15.4933 28.6098C15.4139 28.6893 15.3692 28.797 15.3691 28.9094V30.5757C15.3691 30.6881 15.4138 30.7959 15.4933 30.8754C15.5728 30.9548 15.6806 30.9995 15.793 30.9995C15.9054 30.9995 16.0132 30.9548 16.0927 30.8754C16.1721 30.7959 16.2168 30.6881 16.2168 30.5757V28.9094C16.2168 28.797 16.1721 28.6892 16.0927 28.6097C16.0132 28.5302 15.9054 28.4856 15.793 28.4856Z" fill="#3C3A83"/>
</svg>
