<svg width="17" height="17" viewBox="0 0 17 17" fill="none" xmlns="http://www.w3.org/2000/svg">
<g clip-path="url(#clip0_1_1976)">
<path d="M11.5553 5.15137C11.3717 5.15137 11.2227 5.29974 11.2227 5.48327C11.2227 5.66666 11.3717 5.8153 11.5553 5.8153C11.7394 5.8153 11.888 5.66666 11.888 5.48327C11.888 5.29974 11.7394 5.15137 11.5553 5.15137Z" fill="#333333"/>
<path d="M5.5109 11.1841C5.32689 11.1841 5.17822 11.3328 5.17822 11.5161C5.17822 11.6998 5.32689 11.8481 5.5109 11.8481C5.69453 11.8481 5.84358 11.6998 5.84358 11.5161C5.84358 11.3328 5.69453 11.1841 5.5109 11.1841Z" fill="#333333"/>
<path d="M16.6365 2.04267C16.5242 2.0166 16.4062 2.05046 16.3251 2.13217L14.9459 3.51956H14.2847L13.5568 2.76692V2.0978L14.9163 0.720773C14.9967 0.639322 15.0295 0.522203 15.0028 0.410791C14.9763 0.299508 14.8942 0.209756 14.7855 0.173181C14.444 0.0582667 14.0866 3.15004e-05 13.7232 3.15004e-05C12.6396 3.15004e-05 11.6552 0.504304 11.0223 1.38354C10.43 2.20661 10.2474 3.21529 10.509 4.18064L8.05849 6.62639L3.97586 2.54241V1.74086C3.97586 1.62426 3.91453 1.51609 3.81433 1.45617L1.46204 0.0473719C1.33105 -0.0310964 1.16354 -0.0104742 1.05568 0.0973063L0.114815 1.0362C0.00695345 1.14398 -0.0137091 1.31117 0.0647828 1.4419L1.47608 3.7896C1.53612 3.8896 1.64437 3.95069 1.7612 3.95082L2.56405 3.95108L6.64706 8.03506L4.20588 10.4715C3.23864 10.2105 2.22747 10.393 1.40239 10.9846C0.521959 11.6158 0.0170898 12.598 0.0170898 13.6795C0.0170898 14.0421 0.075439 14.3989 0.190578 14.7396C0.227355 14.8487 0.318192 14.9311 0.430472 14.957C0.542882 14.9831 0.66075 14.9492 0.741971 14.8675L2.12104 13.4802H2.78588L3.54338 14.2363V14.8998L2.1534 16.2762C2.07153 16.3572 2.03761 16.4749 2.06373 16.5871C2.08972 16.6991 2.17224 16.7898 2.28153 16.8265C2.62292 16.9414 2.98042 16.9996 3.34377 16.9996C4.42732 16.9996 5.41133 16.4956 6.04394 15.6169C6.63666 14.7935 6.81951 13.7844 6.55804 12.819L8.51865 10.8623L8.96777 11.3491L8.76166 11.5547C8.63171 11.6844 8.63171 11.8947 8.76166 12.0244C8.89162 12.1539 9.10214 12.1539 9.23223 12.0244L9.41884 11.8381L13.6327 16.4064C13.6358 16.4098 13.6391 16.413 13.6423 16.4163C14.422 17.1945 15.6853 17.1947 16.4654 16.4161C17.2433 15.6394 17.2433 14.3754 16.4654 13.5987C16.4621 13.5953 16.4586 13.592 16.455 13.5888L11.8707 9.3912L12.0552 9.20703C12.1852 9.07746 12.1852 8.86722 12.0552 8.73752C11.9253 8.60782 11.7147 8.60782 11.5846 8.73752L11.38 8.94192L10.8912 8.4942L12.8613 6.52795C13.1414 6.60266 13.4304 6.64053 13.7232 6.64053C15.5576 6.64053 17.0498 5.15106 17.0498 3.32035C17.0498 2.95758 16.9915 2.6009 16.8764 2.26005C16.8396 2.15097 16.7487 2.06861 16.6365 2.04267ZM2.93754 3.38455C2.87516 3.32216 2.79056 3.29038 2.70219 3.29038L1.94976 3.29013L0.769001 1.32258L1.34249 0.750215L3.3105 1.92893V2.67989C3.3105 2.76782 3.34546 2.85213 3.40771 2.91439L7.58805 7.09604L7.11749 7.56555L2.93754 3.38455ZM11.3997 9.86123L15.9997 14.073C16.5135 14.5913 16.512 15.4304 15.9949 15.9467C15.4766 16.464 14.6376 16.4655 14.1173 15.9513L9.88966 11.3681L11.3997 9.86123ZM10.909 9.41182L9.43859 10.8791L8.98947 10.3922L10.4203 8.9641L10.909 9.41182ZM13.7232 5.97647C13.4322 5.97647 13.146 5.9299 12.8729 5.83808C12.7532 5.798 12.6209 5.82887 12.5315 5.91797C10.8637 7.58254 7.26993 11.1691 5.94661 12.49C5.8572 12.5792 5.82614 12.7113 5.86656 12.8308C6.1431 13.6504 6.01081 14.5246 5.50347 15.2295C4.99756 15.9324 4.2103 16.3356 3.34377 16.3356C3.24644 16.3356 3.14962 16.3303 3.05371 16.32L4.11037 15.2736C4.17326 15.2113 4.20874 15.1265 4.20874 15.0379V14.0987C4.20874 14.0106 4.17365 13.9262 4.11128 13.8639L3.15885 12.9133C3.09647 12.8511 3.01187 12.8161 2.92363 12.8161H1.98251C1.89375 12.8161 1.80876 12.8515 1.74625 12.9142L0.697916 13.9688C0.68752 13.8731 0.682322 13.7765 0.682322 13.6793C0.682322 12.8144 1.08622 12.0288 1.79057 11.5239C2.49673 11.0175 3.37275 10.8853 4.19406 11.1615C4.31374 11.2018 4.44604 11.1708 4.53544 11.0816C4.55377 11.0634 11.1156 4.51423 11.1203 4.50956C11.2097 4.42033 11.2407 4.28842 11.2004 4.16884C10.9237 3.34927 11.0557 2.47535 11.5627 1.77095C12.069 1.06746 12.8564 0.664094 13.723 0.664094C13.8234 0.664094 13.923 0.669671 14.0218 0.680566L12.9871 1.72867C12.9258 1.7908 12.8915 1.87445 12.8915 1.96161V2.9009C12.8915 2.98702 12.9249 3.06964 12.9848 3.1315L13.9039 4.08207C13.9666 4.14692 14.053 4.1835 14.1433 4.1835H15.0844C15.1731 4.1835 15.258 4.14822 15.3205 4.08531L16.3689 3.03086C16.3793 3.12657 16.3845 3.2232 16.3845 3.32035C16.3845 4.78491 15.1906 5.97647 13.7232 5.97647Z" fill="#333333"/>
<path d="M10.3791 6.18761L6.21602 10.3425C6.0862 10.4721 6.0862 10.6824 6.21602 10.8121C6.34597 10.9418 6.55663 10.9418 6.68658 10.8121L10.8496 6.65712C10.9796 6.52755 10.9796 6.31731 10.8496 6.18761C10.7197 6.05791 10.509 6.05791 10.3791 6.18761Z" fill="#333333"/>
<path d="M14.5833 15.0079C14.7132 15.1372 14.9239 15.1372 15.0538 15.0071C15.1835 14.8773 15.1831 14.667 15.0531 14.5376L12.0544 11.5544C11.9243 11.4249 11.7135 11.4253 11.584 11.5551C11.4541 11.6851 11.4545 11.8952 11.5846 12.0246L14.5833 15.0079Z" fill="#333333"/>
</g>
<defs>
<clipPath id="clip0_1_1976">
<rect width="17" height="17" fill="white"/>
</clipPath>
</defs>
</svg>
