<svg width="35" height="35" viewBox="0 0 35 35" fill="none" xmlns="http://www.w3.org/2000/svg">
<path d="M11.3435 20.1719H11.3448C11.3459 20.1719 11.347 20.1717 11.3481 20.1717H26.752C27.1312 20.1717 27.4646 19.9272 27.5688 19.5727L30.9673 8.00853C31.0405 7.75922 30.9892 7.4912 30.8288 7.28427C30.6681 7.07734 30.417 6.95559 30.1504 6.95559H9.38408L8.77674 4.29838C8.69023 3.92043 8.34552 3.65155 7.94727 3.65155H2.84961C2.38033 3.65155 2 4.02132 2 4.47756C2 4.9338 2.38033 5.30357 2.84961 5.30357H7.26581C7.37334 5.77444 10.1722 18.0196 10.3333 18.7241C9.43032 19.1057 8.79688 19.9809 8.79688 20.9977C8.79688 22.3641 9.94031 23.4758 11.3457 23.4758H26.752C27.2212 23.4758 27.6016 23.106 27.6016 22.6498C27.6016 22.1935 27.2212 21.8237 26.752 21.8237H11.3457C10.8773 21.8237 10.4961 21.4531 10.4961 20.9977C10.4961 20.543 10.876 20.173 11.3435 20.1719ZM29.024 8.6076L26.111 18.5197H12.0272L9.76154 8.6076H29.024Z" fill="white"/>
<path d="M10.4961 26.7836C10.4961 28.15 11.6395 29.2617 13.0449 29.2617C14.4503 29.2617 15.5937 28.15 15.5937 26.7836C15.5937 25.4173 14.4503 24.3056 13.0449 24.3056C11.6395 24.3056 10.4961 25.4173 10.4961 26.7836ZM13.0449 25.9576C13.5133 25.9576 13.8945 26.3282 13.8945 26.7836C13.8945 27.239 13.5133 27.6096 13.0449 27.6096C12.5765 27.6096 12.1953 27.239 12.1953 26.7836C12.1953 26.3282 12.5765 25.9576 13.0449 25.9576Z" fill="white"/>
<path d="M22.5039 26.7836C22.5039 28.15 23.6473 29.2617 25.0527 29.2617C26.4581 29.2617 27.6016 28.15 27.6016 26.7836C27.6016 25.4173 26.4581 24.3056 25.0527 24.3056C23.6473 24.3056 22.5039 25.4173 22.5039 26.7836ZM25.0527 25.9576C25.5211 25.9576 25.9023 26.3282 25.9023 26.7836C25.9023 27.239 25.5211 27.6096 25.0527 27.6096C24.5843 27.6096 24.2031 27.239 24.2031 26.7836C24.2031 26.3282 24.5843 25.9576 25.0527 25.9576Z" fill="white"/>
</svg>
