<svg width="36" height="36" viewBox="0 0 36 36" fill="none" xmlns="http://www.w3.org/2000/svg">
<g clip-path="url(#clip0_7_2074)">
<path d="M34.8 9H10.2C9.86863 9 9.6 9.26863 9.6 9.6C9.6 9.93137 9.86863 10.2 10.2 10.2H13.827C11.1643 11.8944 9.56574 14.8441 9.6 18C9.56574 21.1559 11.1643 24.1056 13.827 25.8H1.2V10.2H7.2C7.53137 10.2 7.8 9.93137 7.8 9.6C7.8 9.26863 7.53137 9 7.2 9H1.2C0.537258 9 0 9.53726 0 10.2V25.8C0 26.4627 0.537258 27 1.2 27H34.8C35.4627 27 36 26.4627 36 25.8V10.2C36 9.53726 35.4627 9 34.8 9ZM10.8 18C10.8 13.6992 14.0298 10.2 18 10.2C21.9702 10.2 25.2 13.6992 25.2 18C25.2 22.3008 21.9702 25.8 18 25.8C14.0298 25.8 10.8 22.3008 10.8 18ZM34.8 25.8H22.173C24.8357 24.1056 26.4343 21.1559 26.4 18C26.4343 14.8441 24.8357 11.8944 22.173 10.2H34.8V25.8Z" fill="white"/>
<path d="M31.6414 2.52599C31.3574 2.38384 31.0286 2.3601 30.727 2.45999L17.803 6.79139C17.4882 6.89677 17.3185 7.23739 17.4238 7.55219C17.5292 7.86699 17.8698 8.03677 18.1846 7.93139L31.105 3.59999L32.431 7.55339C32.4991 7.75703 32.6706 7.90889 32.881 7.95177C33.0914 7.99465 33.3087 7.92204 33.451 7.76127C33.5933 7.60051 33.6391 7.37603 33.571 7.17239L32.2444 3.22139C32.1456 2.91767 31.9281 2.66685 31.6414 2.52599Z" fill="white"/>
<path d="M17.816 28.0692L4.89559 32.4L3.56959 28.4466C3.46438 28.1318 3.12389 27.9619 2.80909 28.0671C2.49429 28.1723 2.32438 28.5128 2.42959 28.8276L3.75379 32.7774C3.85193 33.0806 4.06827 33.3313 4.35379 33.4728C4.51991 33.5554 4.70286 33.5986 4.88839 33.5988C5.01737 33.599 5.14556 33.5787 5.26819 33.5388L18.1922 29.2074C18.507 29.102 18.6768 28.7614 18.5714 28.4466C18.466 28.1318 18.1254 27.962 17.8106 28.0674L17.816 28.0692Z" fill="white"/>
<path d="M19.8 15.9C19.8 16.2313 20.0686 16.5 20.4 16.5C20.7314 16.5 21 16.2313 21 15.9C20.9421 14.555 19.933 13.4428 18.6 13.2546V13.2C18.6 12.8686 18.3314 12.6 18 12.6C17.6686 12.6 17.4 12.8686 17.4 13.2V13.2546C16.067 13.4428 15.0579 14.555 15 15.9C15.0579 17.2449 16.067 18.3572 17.4 18.5454V21.5076C16.7323 21.3561 16.2439 20.7832 16.2 20.1C16.2 19.7686 15.9314 19.5 15.6 19.5C15.2686 19.5 15 19.7686 15 20.1C15.0579 21.4449 16.067 22.5572 17.4 22.7454V22.8C17.4 23.1313 17.6686 23.4 18 23.4C18.3314 23.4 18.6 23.1313 18.6 22.8V22.7454C19.933 22.5572 20.9421 21.4449 21 20.1C20.9421 18.755 19.933 17.6428 18.6 17.4546V14.4924C19.2677 14.6439 19.7561 15.2167 19.8 15.9ZM16.2 15.9C16.2439 15.2167 16.7323 14.6439 17.4 14.4924V17.3076C16.7323 17.1561 16.2439 16.5832 16.2 15.9ZM19.8 20.1C19.7561 20.7832 19.2677 21.3561 18.6 21.5076V18.6924C19.2677 18.8439 19.7561 19.4167 19.8 20.1Z" fill="white"/>
<path d="M30.6 24.6H33C33.3314 24.6 33.6 24.3314 33.6 24V21.6C33.6 21.2686 33.3314 21 33 21C32.6686 21 32.4 21.2686 32.4 21.6V23.4H30.6C30.2686 23.4 30 23.6686 30 24C30 24.3314 30.2686 24.6 30.6 24.6Z" fill="white"/>
<path d="M3.00039 21C2.66902 21 2.40039 21.2686 2.40039 21.6V24C2.40039 24.3314 2.66902 24.6 3.00039 24.6H5.40039C5.73176 24.6 6.00039 24.3314 6.00039 24C6.00039 23.6686 5.73176 23.4 5.40039 23.4H3.60039V21.6C3.60039 21.2686 3.33176 21 3.00039 21Z" fill="white"/>
<path d="M5.40039 11.4H3.00039C2.66902 11.4 2.40039 11.6687 2.40039 12V14.4C2.40039 14.7314 2.66902 15 3.00039 15C3.33176 15 3.60039 14.7314 3.60039 14.4V12.6H5.40039C5.73176 12.6 6.00039 12.3314 6.00039 12C6.00039 11.6687 5.73176 11.4 5.40039 11.4Z" fill="white"/>
<path d="M30.6 12.6H32.4V14.4C32.4 14.7314 32.6686 15 33 15C33.3314 15 33.6 14.7314 33.6 14.4V12C33.6 11.6687 33.3314 11.4 33 11.4H30.6C30.2686 11.4 30 11.6687 30 12C30 12.3314 30.2686 12.6 30.6 12.6Z" fill="white"/>
</g>
<defs>
<clipPath id="clip0_7_2074">
<rect width="36" height="36" fill="white"/>
</clipPath>
</defs>
</svg>
