<svg width="36" height="36" viewBox="0 0 36 36" fill="none" xmlns="http://www.w3.org/2000/svg">
<g clip-path="url(#clip0_7_2087)">
<path d="M32.25 6H3.74998C1.683 6 0 7.683 0 9.75005V26.2501C0 28.317 1.683 30 3.74998 30H32.25C34.3169 30 35.9999 28.317 35.9999 26.2501V9.75005C36 7.683 34.317 6 32.25 6ZM34.5 26.25C34.5 27.4905 33.4905 28.5 32.25 28.5H3.74998C2.50945 28.5 1.49998 27.4905 1.49998 26.25V9.75005C1.49998 8.50952 2.50945 7.50005 3.74998 7.50005H32.25C33.4905 7.50005 34.5 8.50952 34.5 9.75005V26.25H34.5Z" fill="white"/>
<path d="M35.25 10.5H0.750023C0.336023 10.5 0 10.836 0 11.25V15.75C0 16.164 0.336023 16.5 0.750023 16.5H35.25C35.664 16.5 36.0001 16.164 36.0001 15.75V11.25C36 10.836 35.664 10.5 35.25 10.5ZM34.5 15H1.49998V12H34.5V15H34.5Z" fill="white"/>
<path d="M14.25 21.0001H5.25002C4.83602 21.0001 4.5 21.3361 4.5 21.7501C4.5 22.1641 4.83602 22.5 5.25002 22.5H14.25C14.664 22.5 15 22.164 15 21.75C15 21.336 14.664 21.0001 14.25 21.0001Z" fill="white"/>
<path d="M14.25 23.9999H5.25002C4.83602 23.9999 4.5 24.3359 4.5 24.7499C4.5 25.1639 4.83602 25.4999 5.25002 25.4999H14.25C14.664 25.4999 15 25.1639 15 24.7499C15 24.3359 14.664 23.9999 14.25 23.9999Z" fill="white"/>
<path d="M29.25 19.4999H27.75C26.5095 19.4999 25.5 20.5094 25.5 21.7499V23.2499C25.5 24.4904 26.5095 25.4999 27.75 25.4999H29.25C30.4905 25.4999 31.5 24.4904 31.5 23.2499V21.7499C31.5 20.5095 30.4905 19.4999 29.25 19.4999ZM30 23.25C30 23.664 29.664 24 29.25 24H27.75C27.336 24 27 23.664 27 23.25V21.75C27 21.336 27.336 21 27.75 21H29.25C29.664 21 30 21.336 30 21.75V23.25Z" fill="white"/>
</g>
<defs>
<clipPath id="clip0_7_2087">
<rect width="36" height="36" fill="white"/>
</clipPath>
</defs>
</svg>
