<svg width="40" height="40" viewBox="0 0 40 40" fill="none" xmlns="http://www.w3.org/2000/svg">
<g clip-path="url(#clip0_1_6049)">
<g clip-path="url(#clip1_1_6049)">
<path d="M14.9992 19.1673C10.4043 19.1673 6.66602 15.4293 6.66602 10.8344C6.66602 6.23951 10.4043 2.50122 14.9992 2.50122C19.5941 2.50122 23.3323 6.23951 23.3323 10.8344C23.3323 15.4293 19.5941 19.1673 14.9992 19.1673V19.1673ZM14.9992 5.00114C11.7827 5.00114 9.16594 7.61764 9.16594 10.8344C9.16594 14.0508 11.7827 16.6673 14.9992 16.6673C18.2156 16.6673 20.8324 14.0508 20.8324 10.8344C20.8324 7.61764 18.2156 5.00114 14.9992 5.00114V5.00114Z" fill="white"/>
<path d="M28.7491 37.5H1.24996C0.55998 37.5 0 36.9401 0 36.2501V30.4168C0 26.052 3.55152 22.5005 7.91632 22.5005H22.0827C26.4475 22.5005 29.9991 26.052 29.9991 30.4168V36.2501C29.9991 36.9401 29.4391 37.5 28.7491 37.5V37.5ZM2.49992 35.0001H27.4991V30.4168C27.4991 27.4305 25.0691 25.0004 22.0827 25.0004H7.91632C4.92996 25.0004 2.49992 27.4305 2.49992 30.4168V35.0001Z" fill="white"/>
<path d="M38.7481 19.5842H24.582C23.892 19.5842 23.332 19.0242 23.332 18.3342C23.332 17.6442 23.892 17.0842 24.582 17.0842H38.7481C39.4381 17.0842 39.9981 17.6442 39.9981 18.3342C39.9981 19.0242 39.4381 19.5842 38.7481 19.5842Z" fill="white"/>
<path d="M32.0817 26.2505C31.7616 26.2505 31.4418 26.1287 31.1982 25.884C30.71 25.3954 30.71 24.6038 31.1982 24.1156L36.9814 18.3323L31.1982 12.5491C30.71 12.0609 30.71 11.2693 31.1982 10.781C31.6865 10.2927 32.4781 10.2927 32.9667 10.781L39.633 17.4474C40.1213 17.9356 40.1213 18.7275 39.633 19.2158L32.9667 25.8822C32.7216 26.1287 32.4015 26.2505 32.0817 26.2505V26.2505Z" fill="white"/>
</g>
</g>
<defs>
<clipPath id="clip0_1_6049">
<rect width="40" height="40" fill="white"/>
</clipPath>
<clipPath id="clip1_1_6049">
<rect width="40" height="40" fill="white"/>
</clipPath>
</defs>
</svg>
