<svg width="29" height="29" viewBox="0 0 29 29" fill="none" xmlns="http://www.w3.org/2000/svg">
<g clip-path="url(#clip0_7_2166)">
<path d="M21.1499 -0.00012207H7.85002C3.52145 -0.00012207 0 3.52133 0 7.8499V21.15C0 25.4784 3.52145 28.9998 7.85002 28.9998H21.1501C25.4785 28.9998 28.9999 25.4784 28.9999 21.15V7.8499C28.9999 3.52133 25.4785 -0.00012207 21.1499 -0.00012207V-0.00012207ZM27.2998 21.15C27.2998 24.5409 24.5411 27.2997 21.1499 27.2997H7.85002C4.45889 27.2997 1.7001 24.5409 1.7001 21.15V7.8499C1.7001 4.45877 4.45889 1.69998 7.85002 1.69998H21.1501C24.5411 1.69998 27.2998 4.45877 27.2998 7.8499V21.15Z" fill="white"/>
<path d="M14.4998 6.57037C10.1274 6.57037 6.57031 10.1274 6.57031 14.4998C6.57031 18.8722 10.1274 22.4293 14.4998 22.4293C18.8721 22.4293 22.4292 18.8722 22.4292 14.4998C22.4292 10.1274 18.8721 6.57037 14.4998 6.57037ZM14.4998 20.7292C11.065 20.7292 8.27041 17.9348 8.27041 14.4998C8.27041 11.0651 11.065 8.27047 14.4998 8.27047C17.9347 8.27047 20.7291 11.0651 20.7291 14.4998C20.7291 17.9348 17.9347 20.7292 14.4998 20.7292Z" fill="white"/>
<path d="M22.6184 3.75427C21.3263 3.75427 20.2754 4.80544 20.2754 6.09733C20.2754 7.38944 21.3263 8.44061 22.6184 8.44061C23.9106 8.44061 24.9617 7.38944 24.9617 6.09733C24.9617 4.80522 23.9106 3.75427 22.6184 3.75427ZM22.6184 6.74029C22.264 6.74029 21.9755 6.45178 21.9755 6.09733C21.9755 5.74266 22.264 5.45437 22.6184 5.45437C22.9731 5.45437 23.2616 5.74266 23.2616 6.09733C23.2616 6.45178 22.9731 6.74029 22.6184 6.74029Z" fill="white"/>
</g>
<defs>
<clipPath id="clip0_7_2166">
<rect width="29" height="29" fill="white"/>
</clipPath>
</defs>
</svg>
