<svg width="30" height="29" viewBox="0 0 30 29" fill="none" xmlns="http://www.w3.org/2000/svg">
<g clip-path="url(#clip0_7_2162)">
<path d="M26.4531 4.3046H2.55078C1.14253 4.3046 0.00195312 5.45225 0.00195312 6.85342V22.1464C0.00195312 23.5559 1.15091 24.6952 2.55078 24.6952H26.4531C27.8496 24.6952 29.002 23.5607 29.002 22.1464V6.85342C29.002 5.45474 27.8659 4.3046 26.4531 4.3046ZM26.0962 6.00381C25.5754 6.52179 16.6137 15.4363 16.3043 15.7441C15.8228 16.2256 15.1828 16.4907 14.502 16.4907C13.8211 16.4907 13.1811 16.2255 12.6981 15.7425C12.49 15.5355 3.62712 6.71941 2.90773 6.00381H26.0962ZM1.70117 21.8005V7.20035L9.04395 14.5044L1.70117 21.8005ZM2.90881 22.996L10.2487 15.7028L11.4981 16.9457C12.3005 17.748 13.3673 18.1899 14.502 18.1899C15.6366 18.1899 16.7034 17.748 17.5042 16.9472L18.7552 15.7028L26.0951 22.996H2.90881ZM27.3027 21.8005L19.96 14.5044L27.3027 7.20035V21.8005Z" fill="white"/>
</g>
<defs>
<clipPath id="clip0_7_2162">
<rect width="29" height="29" fill="white" transform="translate(0.00195312 -9.15527e-05)"/>
</clipPath>
</defs>
</svg>
