<svg width="28" height="28" viewBox="0 0 28 28" fill="none" xmlns="http://www.w3.org/2000/svg">
<g clip-path="url(#clip0_7_2148)">
<path d="M22.128 17.345C21.5548 16.7481 20.8633 16.429 20.1306 16.429C19.4037 16.429 18.7063 16.7422 18.1095 17.3391L16.242 19.2006C16.0884 19.1179 15.9347 19.041 15.787 18.9642C15.5743 18.8578 15.3733 18.7574 15.202 18.651C13.4527 17.54 11.863 16.0922 10.3384 14.2188C9.59966 13.2851 9.10325 12.4991 8.74277 11.7013C9.22735 11.2581 9.67648 10.7972 10.1138 10.3539C10.2793 10.1885 10.4447 10.0171 10.6102 9.85163C11.8512 8.61062 11.8512 7.00321 10.6102 5.76219L8.99688 4.14887C8.81368 3.96568 8.62457 3.77657 8.44729 3.58746C8.09271 3.22107 7.72041 2.84285 7.33628 2.48828C6.76305 1.92096 6.07754 1.61957 5.35657 1.61957C4.6356 1.61957 3.93827 1.92096 3.34731 2.48828C3.3414 2.49419 3.3414 2.49419 3.33549 2.5001L1.32623 4.52709C0.569802 5.28352 0.138402 6.20541 0.0438483 7.27505C-0.0979819 9.00065 0.410243 10.6081 0.800276 11.66C1.75763 14.2425 3.18775 16.6358 5.32111 19.2006C7.90951 22.2913 11.0239 24.732 14.5814 26.4517C15.9406 27.0958 17.7549 27.8582 19.7819 27.9882C19.906 27.9941 20.036 28 20.1542 28C21.5193 28 22.6658 27.5095 23.564 26.5344C23.5699 26.5226 23.5818 26.5167 23.5877 26.5049C23.895 26.1326 24.2495 25.7957 24.6218 25.4352C24.876 25.1929 25.136 24.9388 25.3901 24.6729C25.9751 24.0642 26.2824 23.355 26.2824 22.6282C26.2824 21.8954 25.9692 21.1921 25.3724 20.6012L22.128 17.345ZM24.2436 23.5678C24.2377 23.5678 24.2377 23.5737 24.2436 23.5678C24.0132 23.816 23.7768 24.0406 23.5227 24.2888C23.1385 24.6552 22.7485 25.0393 22.3821 25.4707C21.7852 26.1089 21.082 26.4103 20.1601 26.4103C20.0715 26.4103 19.9769 26.4103 19.8883 26.4044C18.1331 26.2921 16.5021 25.6066 15.2788 25.0216C11.9339 23.4023 8.99688 21.1035 6.55622 18.1901C4.54105 15.7612 3.19366 13.5156 2.30131 11.1045C1.75172 9.63298 1.55079 8.48651 1.63944 7.40506C1.69853 6.71364 1.96447 6.14041 2.45496 5.64991L4.47013 3.63474C4.7597 3.3629 5.067 3.21516 5.36839 3.21516C5.74069 3.21516 6.04208 3.43972 6.23119 3.62883C6.2371 3.63474 6.24301 3.64065 6.24892 3.64656C6.6094 3.98341 6.95216 4.33207 7.31265 4.70438C7.49584 4.89348 7.68495 5.08259 7.87406 5.27761L9.48738 6.89092C10.1138 7.51734 10.1138 8.09648 9.48738 8.7229C9.316 8.89428 9.15053 9.06565 8.97915 9.23112C8.48275 9.73935 8.00998 10.2121 7.49584 10.6731C7.48402 10.6849 7.47221 10.6908 7.4663 10.7026C6.95807 11.2108 7.05262 11.7072 7.159 12.0441C7.16491 12.0618 7.17082 12.0795 7.17673 12.0973C7.59631 13.1137 8.18727 14.0711 9.08552 15.2116L9.09143 15.2175C10.7225 17.2268 12.4422 18.7928 14.3392 19.9925C14.5814 20.1461 14.8296 20.2702 15.066 20.3884C15.2788 20.4948 15.4797 20.5953 15.6511 20.7016C15.6747 20.7135 15.6984 20.7312 15.722 20.743C15.9229 20.8435 16.112 20.8907 16.307 20.8907C16.7975 20.8907 17.1048 20.5835 17.2053 20.483L19.2264 18.4619C19.4273 18.261 19.7464 18.0187 20.1187 18.0187C20.4851 18.0187 20.7865 18.2492 20.9697 18.4501C20.9756 18.456 20.9756 18.456 20.9815 18.4619L24.2377 21.7181C24.8464 22.3209 24.8464 22.9414 24.2436 23.5678Z" fill="white"/>
<path d="M15.1313 6.66048C16.6796 6.92051 18.0861 7.65329 19.2089 8.77612C20.3317 9.89894 21.0586 11.3054 21.3245 12.8537C21.3896 13.2438 21.7264 13.5156 22.1105 13.5156C22.1578 13.5156 22.1992 13.5097 22.2464 13.5038C22.6838 13.4329 22.9733 13.0192 22.9024 12.5819C22.5833 10.7086 21.6969 9.00068 20.3436 7.64739C18.9903 6.29409 17.2824 5.40765 15.409 5.08853C14.9717 5.01762 14.564 5.30719 14.4872 5.73859C14.4103 6.16999 14.694 6.58957 15.1313 6.66048Z" fill="white"/>
<path d="M27.9671 12.3514C27.4411 9.26655 25.9874 6.4595 23.7535 4.22567C21.5197 1.99185 18.7126 0.538086 15.6278 0.0121323C15.1964 -0.0646924 14.7887 0.230787 14.7118 0.662187C14.6409 1.0995 14.9305 1.50726 15.3678 1.58408C18.1217 2.05094 20.6333 3.35696 22.6307 5.34849C24.6281 7.34594 25.9283 9.85751 26.3951 12.6114C26.4601 13.0014 26.797 13.2733 27.1811 13.2733C27.2284 13.2733 27.2697 13.2673 27.317 13.2614C27.7484 13.1964 28.0439 12.7828 27.9671 12.3514Z" fill="white"/>
</g>
<defs>
<clipPath id="clip0_7_2148">
<rect width="28" height="28" fill="white"/>
</clipPath>
</defs>
</svg>
