<svg width="32" height="32" viewBox="0 0 32 32" fill="none" xmlns="http://www.w3.org/2000/svg">
<g clip-path="url(#clip0_7_2105)">
<path d="M28.3803 6.43109C29.1272 7.3942 29.7495 8.45051 30.2785 9.56895L15.9021 20.1631L9.86523 16.3728V11.8369L15.871 15.5961L28.3803 6.43109Z" fill="white"/>
<path d="M3.73454 16.0626C3.73454 15.8451 3.73454 15.6587 3.76565 15.4412L0.124868 15.2548C0.124868 15.5034 0.09375 15.783 0.09375 16.0315C0.09375 20.381 1.86747 24.3267 4.73031 27.1849L7.31309 24.6063C5.10372 22.4315 3.73454 19.4179 3.73454 16.0626Z" fill="white"/>
<path d="M15.8706 3.94593C16.0885 3.94593 16.2752 3.94593 16.493 3.97699L16.6797 0.342042C16.4308 0.342042 16.1507 0.310974 15.9018 0.310974C11.5453 0.310974 7.59331 2.08185 4.73047 4.9401L7.31325 7.51874C9.4915 5.31292 12.541 3.94593 15.8706 3.94593Z" fill="white"/>
<path d="M15.8696 28.1789C15.6518 28.1789 15.4651 28.1789 15.2473 28.1478L15.0605 31.7828C15.3095 31.7828 15.5895 31.8138 15.8385 31.8138C20.195 31.8138 24.1469 30.043 27.0098 27.1847L24.427 24.6061C22.2488 26.843 19.2303 28.1789 15.8696 28.1789Z" fill="white"/>
<path d="M22.717 6.05843L25.7977 3.79046C23.0904 1.61571 19.6364 0.279785 15.8711 0.279785V3.91474C18.4228 3.9458 20.7877 4.7225 22.717 6.05843Z" fill="white"/>
<path d="M31.6784 16.0624C31.6784 15.0993 31.5851 14.1673 31.4295 13.2352L28.0376 15.7517C28.0376 15.8449 28.0376 15.9692 28.0376 16.0624C28.0376 19.6352 26.4817 22.8352 24.0234 25.0411L26.4817 27.744C29.6558 24.8857 31.6784 20.6915 31.6784 16.0624Z" fill="white"/>
<path d="M15.8702 28.1787C12.2917 28.1787 9.08654 26.6253 6.87717 24.171L4.16992 26.6253C7.06388 29.8253 11.2337 31.8137 15.8702 31.8137V28.1787Z" fill="white"/>
<path d="M7.74873 7.08371L5.29043 4.3808C2.08529 7.27012 0.09375 11.4332 0.09375 16.0624H3.73454C3.73454 12.5206 5.29043 9.28954 7.74873 7.08371Z" fill="white"/>
</g>
<defs>
<clipPath id="clip0_7_2105">
<rect width="32" height="32" fill="white"/>
</clipPath>
</defs>
</svg>
