<svg width="50" height="50" viewBox="0 0 50 50" fill="none" xmlns="http://www.w3.org/2000/svg">
<path d="M34.5844 31.5225C34.545 31.3419 34.4357 31.1842 34.2804 31.0841C34.1251 30.9839 33.9364 30.9494 33.7556 30.9882L32.483 31.2627C32.3925 31.281 32.3065 31.317 32.2301 31.3688C32.1536 31.4206 32.0882 31.487 32.0377 31.5643C31.9871 31.6416 31.9524 31.7281 31.9355 31.8189C31.9187 31.9097 31.92 32.0029 31.9395 32.0932C31.959 32.1834 31.9962 32.2689 32.049 32.3447C32.1017 32.4205 32.169 32.485 32.247 32.5345C32.3249 32.5841 32.4119 32.6176 32.5029 32.6333C32.5939 32.649 32.6871 32.6464 32.7771 32.6257L34.0501 32.3512C34.2308 32.3122 34.3887 32.2029 34.4889 32.0475C34.5891 31.8921 34.6234 31.7032 34.5844 31.5225Z" fill="#3C3A83"/>
<path d="M30.0565 31.7858L26.5283 32.5468C26.4378 32.5651 26.3518 32.6012 26.2754 32.6529C26.1989 32.7047 26.1335 32.7712 26.083 32.8484C26.0324 32.9257 25.9977 33.0122 25.9808 33.103C25.964 33.1938 25.9653 33.287 25.9848 33.3773C26.0043 33.4675 26.0415 33.553 26.0943 33.6288C26.147 33.7046 26.2143 33.7691 26.2923 33.8186C26.3702 33.8682 26.4572 33.9018 26.5482 33.9174C26.6392 33.9331 26.7324 33.9305 26.8224 33.9098L30.3505 33.1488C30.5292 33.1078 30.6846 32.9981 30.7829 32.8434C30.8813 32.6887 30.9148 32.5014 30.8761 32.3222C30.8375 32.143 30.7298 31.9862 30.5764 31.8858C30.423 31.7854 30.2362 31.7495 30.0565 31.7858Z" fill="#3C3A83"/>
<path d="M19.023 36.5633C18.1736 36.7463 17.3975 37.177 16.7929 37.8011C16.1883 38.4252 15.7823 39.2146 15.6263 40.0694C15.4704 40.9243 15.5714 41.8061 15.9167 42.6035C16.2619 43.4009 16.8359 44.078 17.566 44.5492C18.2961 45.0204 19.1496 45.2644 20.0184 45.2505C20.8872 45.2367 21.7324 44.9654 22.4471 44.4712C23.1618 43.9769 23.7138 43.2818 24.0334 42.4738C24.353 41.6657 24.4258 40.7811 24.2426 39.9317C23.9959 38.7935 23.3078 37.7997 22.3293 37.1682C21.3508 36.5367 20.1618 36.3192 19.023 36.5633ZM20.5813 43.7881C20.0016 43.9133 19.3978 43.8637 18.8462 43.6456C18.2947 43.4275 17.8202 43.0508 17.4828 42.5631C17.1453 42.0754 16.9601 41.4985 16.9505 40.9055C16.9409 40.3125 17.1074 39.73 17.4288 39.2316C17.7503 38.7332 18.2123 38.3413 18.7565 38.1055C19.3007 37.8697 19.9026 37.8006 20.4861 37.9069C21.0696 38.0132 21.6084 38.2901 22.0345 38.7026C22.4606 39.1152 22.7548 39.6448 22.8799 40.2245C23.0466 41.0018 22.8982 41.8134 22.4673 42.4815C22.0364 43.1495 21.3582 43.6194 20.5813 43.7881Z" fill="#3C3A83"/>
<path d="M49.1672 34.5561L48.5723 31.7973C48.553 31.7078 48.5163 31.6229 48.4642 31.5476C48.4121 31.4722 48.3457 31.4079 48.2687 31.3583C48.1917 31.3086 48.1058 31.2746 48.0157 31.2582C47.9255 31.2418 47.8331 31.2433 47.7436 31.2626L45.1167 31.8292L40.4187 10.0406C40.3795 9.86001 40.2703 9.70231 40.115 9.60214C39.9597 9.50196 39.771 9.4675 39.5903 9.50631L25.6195 12.5185L17.8014 14.2047L15.2482 2.36592C15.2145 2.21012 15.1285 2.07056 15.0045 1.97045C14.8804 1.87034 14.7259 1.81572 14.5665 1.81567H2.51294C2.42136 1.81562 2.33067 1.83362 2.24605 1.86864C2.16143 1.90367 2.08454 1.95502 2.01978 2.01978C1.95502 2.08454 1.90367 2.16143 1.86864 2.24605C1.83362 2.33067 1.81562 2.42136 1.81567 2.51294V5.33507C1.81567 5.52 1.88914 5.69735 2.0199 5.82811C2.15066 5.95888 2.32801 6.03234 2.51294 6.03234H11.7252L17.5197 32.9014C16.0016 33.3638 14.6474 34.2507 13.6167 35.4574C12.5861 36.6641 11.9219 38.1403 11.7025 39.712C11.4832 41.2837 11.7178 42.8854 12.3787 44.3282C13.0396 45.7709 14.0992 46.9947 15.4327 47.8551C16.7661 48.7155 18.3178 49.1768 19.9047 49.1844C21.4916 49.1921 23.0477 48.7458 24.3893 47.8983C25.731 47.0508 26.8024 45.8373 27.4772 44.401C28.152 42.9646 28.402 41.3653 28.1978 39.7915L48.6325 35.3844C48.8132 35.3455 48.9711 35.2363 49.0714 35.081C49.1716 34.9256 49.2061 34.7368 49.1672 34.5561ZM21.8013 32.7516L19.3242 21.271L26.461 19.7318L27.5085 24.5836C27.5372 24.7171 27.6044 24.8393 27.702 24.9349C27.7996 25.0304 27.9231 25.0952 28.0572 25.1211C28.1009 25.1296 28.1453 25.1339 28.1898 25.1338C28.3039 25.1338 28.4162 25.1058 28.5169 25.0523C28.6176 24.9989 28.7037 24.9215 28.7676 24.827L30.6426 22.0539L33.2695 23.8325C33.3847 23.9105 33.5206 23.9522 33.6597 23.9523C33.7988 23.9524 33.9347 23.9109 34.05 23.8332C34.1653 23.7554 34.2548 23.6449 34.3068 23.516C34.3589 23.387 34.3712 23.2454 34.3421 23.1094L33.2958 18.2576L40.4326 16.7184L43.7552 32.1232L26.5718 35.8287C25.3888 34.2784 23.7015 33.19 21.8013 32.7516ZM30.7028 12.8488L31.7857 17.8691L32.6125 21.7021L30.8466 20.5068C30.6934 20.4031 30.5053 20.3646 30.3236 20.3997C30.142 20.4347 29.9817 20.5404 29.878 20.6936L28.5281 22.6918L26.5953 13.7345L30.7028 12.8488ZM40.1386 15.3554L33.0018 16.8937L32.0658 12.5548L39.2027 11.0156L40.1386 15.3554ZM25.2322 14.0286L26.1682 18.368L19.0314 19.9079L18.0954 15.5677L25.2322 14.0286ZM12.2878 4.63781H3.21021V3.21021H14.0035L16.585 15.1805L20.3303 32.5491C19.8466 32.5257 19.3619 32.5448 18.8815 32.6061L12.9695 5.18805C12.9359 5.03222 12.8499 4.89261 12.7259 4.79249C12.6018 4.69237 12.4472 4.63778 12.2878 4.63781ZM21.412 47.6328C20.0716 47.9227 18.6753 47.8085 17.3998 47.3047C16.1242 46.8009 15.0268 45.9301 14.2463 44.8024C13.4657 43.6748 13.0371 42.341 13.0148 40.9698C12.9924 39.5986 13.3772 38.2515 14.1205 37.099C14.8638 35.9465 15.9323 35.0403 17.1907 34.4951C18.4491 33.95 19.8409 33.7903 21.1901 34.0362C22.5392 34.2822 23.7852 34.9228 24.7702 35.877C25.7553 36.8311 26.4352 38.056 26.724 39.3967C27.1091 41.1933 26.7659 43.0694 25.7697 44.6133C24.7735 46.1573 23.2057 47.2432 21.41 47.6328H21.412ZM27.9066 38.4289C27.7644 37.9661 27.5819 37.5166 27.3611 37.0858L47.3583 32.7731L47.6595 34.1676L27.9066 38.4289Z" fill="#3C3A83"/>
</svg>
