<svg width="44" height="44" viewBox="0 0 44 44" fill="none" xmlns="http://www.w3.org/2000/svg">
<g clip-path="url(#clip0_1_959)">
<path d="M29.9079 13.333C29.4327 13.333 29.0469 13.717 29.0469 14.192C29.0469 14.6667 29.4327 15.0514 29.9079 15.0514C30.3842 15.0514 30.769 14.6667 30.769 14.192C30.769 13.717 30.3842 13.333 29.9079 13.333Z" fill="#3C3A83"/>
<path d="M14.2629 28.9473C13.7866 28.9473 13.4019 29.3323 13.4019 29.8066C13.4019 30.282 13.7866 30.666 14.2629 30.666C14.7382 30.666 15.124 30.282 15.124 29.8066C15.124 29.3323 14.7382 28.9473 14.2629 28.9473Z" fill="#3C3A83"/>
<path d="M43.0579 5.28692C42.7673 5.21945 42.4619 5.30706 42.252 5.51855L38.6823 9.10946H36.971L35.0871 7.16143V5.42959L38.6057 1.86553C38.8139 1.65472 38.8986 1.35158 38.8297 1.06322C38.761 0.775198 38.5485 0.542898 38.2673 0.448233C37.3834 0.150808 36.4584 8.15304e-05 35.5176 8.15304e-05C32.7131 8.15304e-05 30.1653 1.30526 28.5273 3.58092C26.9942 5.71124 26.5216 8.32193 27.1987 10.8205L20.8561 17.1507L10.2893 6.58035V4.50576C10.2893 4.20397 10.1306 3.924 9.87125 3.76891L3.78297 0.12261C3.44393 -0.0804849 3.01037 -0.0271096 2.7312 0.251852L0.296026 2.68194C0.0168555 2.9609 -0.0366242 3.39361 0.166531 3.73199L3.8193 9.80838C3.97469 10.0672 4.25487 10.2253 4.55725 10.2256L6.63522 10.2263L17.203 20.7966L10.8847 27.1026C8.38122 26.4272 5.76407 26.8995 3.62859 28.4306C1.34981 30.0645 0.0430908 32.6067 0.0430908 35.4057C0.0430908 36.3443 0.194112 37.2678 0.492119 38.1496C0.587306 38.432 0.822415 38.6451 1.11302 38.7123C1.40396 38.7797 1.70903 38.6921 1.91925 38.4806L5.4886 34.8901H7.20937L9.16996 36.8468V38.5642L5.57235 42.1266C5.36045 42.3364 5.27267 42.6409 5.34027 42.9313C5.40754 43.2213 5.62112 43.4559 5.904 43.5509C6.78759 43.8484 7.71289 43.9991 8.65332 43.9991C11.4578 43.9991 14.0047 42.6946 15.642 40.4203C17.1761 38.289 17.6493 35.6773 16.9726 33.1787L22.0471 28.1141L23.2096 29.3743L22.6761 29.9063C22.3398 30.242 22.3398 30.7862 22.6761 31.1219C23.0125 31.4573 23.5573 31.4573 23.894 31.1219L24.377 30.6398L35.2835 42.4636C35.2916 42.4724 35.3 42.4808 35.3084 42.4892C37.3265 44.5033 40.5962 44.504 42.6153 42.4888C44.6287 40.4783 44.6287 37.207 42.6153 35.1965C42.6065 35.1878 42.5975 35.1794 42.5884 35.171L30.7229 24.3066L31.2006 23.83C31.5369 23.4946 31.5369 22.9504 31.2006 22.6147C30.8642 22.2791 30.3193 22.2791 29.9826 22.6147L29.4529 23.1438L28.1879 21.985L33.2869 16.8959C34.0118 17.0892 34.7598 17.1873 35.5176 17.1873C40.2655 17.1873 44.1279 13.3322 44.1279 8.59384C44.1279 7.6549 43.9768 6.73174 43.6788 5.84954C43.5836 5.56722 43.3485 5.35406 43.0579 5.28692ZM7.60189 8.76C7.44044 8.59854 7.22148 8.51629 6.99276 8.51629L5.04529 8.51562L1.98921 3.42315L3.47353 1.94173L8.56722 4.99252V6.93618C8.56722 7.16378 8.65769 7.38198 8.81881 7.54312L19.6385 18.3662L18.4206 19.5814L7.60189 8.76ZM29.504 25.5232L41.4098 36.4242C42.7397 37.7656 42.7357 39.9375 41.3974 41.2739C40.056 42.6127 37.8845 42.6167 36.5378 41.2857L25.5956 29.4233L29.504 25.5232ZM28.234 24.36L24.4282 28.1577L23.2657 26.8975L26.9689 23.2012L28.234 24.36ZM35.5176 15.4685C34.7645 15.4685 34.0239 15.348 33.3169 15.1103C33.0071 15.0066 32.6647 15.0865 32.4333 15.3171C28.1166 19.6254 18.8151 28.9083 15.3901 32.327C15.1587 32.558 15.0783 32.8997 15.1829 33.2092C15.8986 35.3305 15.5562 37.5931 14.2431 39.4176C12.9337 41.2367 10.8961 42.2803 8.65332 42.2803C8.4014 42.2803 8.15082 42.2666 7.90259 42.2401L10.6375 39.5317C10.8002 39.3706 10.8921 39.151 10.8921 38.9217V36.4906C10.8921 36.2627 10.8013 36.0442 10.6398 35.883L8.1747 33.4227C8.01325 33.2616 7.79428 33.171 7.5659 33.171H5.13005C4.90033 33.171 4.68035 33.2626 4.51857 33.4251L1.80523 36.1546C1.77832 35.9069 1.76487 35.6568 1.76487 35.4053C1.76487 33.1666 2.81024 31.1333 4.63326 29.8265C6.46099 28.5159 8.72833 28.1738 10.8541 28.8885C11.1638 28.9929 11.5062 28.9127 11.7377 28.6817C11.7851 28.6347 28.7688 11.6839 28.7809 11.6718C29.0123 11.4409 29.0923 11.0995 28.9881 10.7899C28.272 8.6687 28.6137 6.40679 29.9258 4.58364C31.2362 2.76284 33.2742 1.71883 35.5173 1.71883C35.7769 1.71883 36.0349 1.73327 36.2906 1.76147L33.6125 4.47421C33.4538 4.635 33.365 4.85152 33.365 5.07711V7.5082C33.365 7.7311 33.4514 7.94494 33.6065 8.10507L35.9855 10.5654C36.1476 10.7332 36.3713 10.8279 36.605 10.8279H39.0409C39.2703 10.8279 39.4903 10.7366 39.652 10.5738L42.3654 7.84457C42.3923 8.09231 42.4057 8.3424 42.4057 8.59384C42.4057 12.3845 39.3157 15.4685 35.5176 15.4685Z" fill="#3C3A83"/>
<path d="M26.864 16.015L16.089 26.7689C15.753 27.1043 15.753 27.6484 16.089 27.9841C16.4253 28.3198 16.9706 28.3198 17.3069 27.9841L28.0819 17.2302C28.4182 16.8948 28.4182 16.3506 28.0819 16.015C27.7455 15.6793 27.2003 15.6793 26.864 16.015Z" fill="#3C3A83"/>
<path d="M37.7449 38.8437C38.0813 39.1784 38.6265 39.1784 38.9628 38.8417C39.2985 38.5056 39.2975 37.9615 38.9608 37.6265L31.1995 29.9052C30.8629 29.5702 30.3173 29.5712 29.982 29.9072C29.6459 30.2436 29.6469 30.7874 29.9836 31.1224L37.7449 38.8437Z" fill="#3C3A83"/>
</g>
<defs>
<clipPath id="clip0_1_959">
<rect width="44" height="44" fill="white"/>
</clipPath>
</defs>
</svg>
